<?xml version="1.0" encoding="UTF-8"?>
<!DOCTYPE svg PUBLIC "-//W3C//DTD SVG 1.1//EN" "http://www.w3.org/Graphics/SVG/1.1/DTD/svg11.dtd">
<svg xmlns="http://www.w3.org/2000/svg" version="1.1" width="212px" height="204px" style="shape-rendering:geometricPrecision; text-rendering:geometricPrecision; image-rendering:optimizeQuality; fill-rule:evenodd; clip-rule:evenodd" xmlns:xlink="http://www.w3.org/1999/xlink">
<g><path style="opacity:0.004" fill="#ff3625" d="M 126.5,4.5 C 126.5,4.16667 126.5,3.83333 126.5,3.5C 131.833,3.83333 131.833,4.16667 126.5,4.5 Z"/></g>
<g><path style="opacity:0.004" fill="#fe0000" d="M 133.5,4.5 C 134.833,5.16667 134.833,5.16667 133.5,4.5 Z"/></g>
<g><path style="opacity:0.004" fill="#fe0000" d="M 73.5,6.5 C 73.8966,5.47498 74.5632,5.30831 75.5,6C 74.9056,6.46434 74.2389,6.63101 73.5,6.5 Z"/></g>
<g><path style="opacity:0.006" fill="#fe0000" d="M 136.5,6.5 C 136.897,5.47498 137.563,5.30831 138.5,6C 137.906,6.46434 137.239,6.63101 136.5,6.5 Z"/></g>
<g><path style="opacity:0.008" fill="#ff2d24" d="M 70.5,8.5 C 69.5084,8.32842 68.8417,8.66175 68.5,9.5C 66.6214,9.60682 66.2881,9.10682 67.5,8C 68.7494,7.25988 69.7494,7.42654 70.5,8.5 Z"/></g>
<g><path style="opacity:0.006" fill="#fe0000" d="M 147.5,11.5 C 147.897,10.475 148.563,10.3083 149.5,11C 148.906,11.4643 148.239,11.631 147.5,11.5 Z"/></g>
<g><path style="opacity:0.004" fill="#fe0000" d="M 57.5,12.5 C 58.8333,13.1667 58.8333,13.1667 57.5,12.5 Z"/></g>
<g><path style="opacity:0.008" fill="#fe807f" d="M 161.5,18.5 C 162.833,19.1667 162.833,19.1667 161.5,18.5 Z"/></g>
<g><path style="opacity:0.004" fill="#fe0000" d="M 46.5,19.5 C 47.8333,20.1667 47.8333,20.1667 46.5,19.5 Z"/></g>
<g><path style="opacity:0.004" fill="#f10000" d="M 169.5,25.5 C 170.497,24.2875 171.497,24.4542 172.5,26C 171.906,26.4643 171.239,26.631 170.5,26.5C 170.5,25.8333 170.167,25.5 169.5,25.5 Z"/></g>
<g><path style="opacity:0.016" fill="#f23314" d="M 37.5,29.5 C 36.8333,29.5 36.5,29.8333 36.5,30.5C 35.9569,30.44 35.6236,30.1067 35.5,29.5C 36.2565,28.2267 36.9232,28.2267 37.5,29.5 Z"/></g>
<g><path style="opacity:0.016" fill="#ec362e" d="M 192.5,50.5 C 192.167,50.5 191.833,50.5 191.5,50.5C 191.5,49.8333 191.167,49.5 190.5,49.5C 191.301,47.2071 191.968,47.5404 192.5,50.5 Z"/></g>
<g><path style="opacity:0.008" fill="#de8b7b" d="M 194.5,57.5 C 196.5,57.5 197.5,58.5 197.5,60.5C 196.833,60.5 196.5,60.8333 196.5,61.5C 194.896,60.713 194.229,59.3797 194.5,57.5 Z"/></g>
<g><path style="opacity:0.004" fill="#ff421d" d="M 201.5,71.5 C 201.672,70.5084 201.338,69.8417 200.5,69.5C 200.234,67.6526 200.568,66.986 201.5,67.5C 202.705,68.9948 202.705,70.3281 201.5,71.5 Z"/></g>
<g><path style="opacity:0.004" fill="#fe0000" d="M 202.5,73.5 C 203.833,74.1667 203.833,74.1667 202.5,73.5 Z"/></g>
<g><path style="opacity:0.004" fill="#ff6250" d="M 7.5,81.5 C 7.16667,81.5 6.83333,81.5 6.5,81.5C 6.83333,76.1667 7.16667,76.1667 7.5,81.5 Z"/></g>
<g><path style="opacity:0.004" fill="#e40001" d="M 6.5,81.5 C 6.65668,82.8734 6.49001,84.2068 6,85.5C 5.23502,83.9343 5.40168,82.6009 6.5,81.5 Z"/></g>
<g><path style="opacity:0.004" fill="#fe0000" d="M 4.5,88.5 C 5.83333,89.1667 5.83333,89.1667 4.5,88.5 Z"/></g>
<g><path style="opacity:0.004" fill="#000000" d="M 4.5,115.5 C 5.83333,116.167 5.83333,116.167 4.5,115.5 Z"/></g>
<g><path style="opacity:0.008" fill="#7d0d04" d="M 6.5,119.5 C 6.65668,120.873 6.49001,122.207 6,123.5C 5.23502,121.934 5.40168,120.601 6.5,119.5 Z"/></g>
<g><path style="opacity:0.996" fill="#f14131" d="M 126.5,3.5 C 121.167,3.83333 121.167,4.16667 126.5,4.5C 133.609,6.20312 140.609,8.53645 147.5,11.5C 152.099,14.1375 156.766,16.8042 161.5,19.5C 164.128,21.4884 166.795,23.4884 169.5,25.5C 170.167,25.5 170.5,25.8333 170.5,26.5C 174.104,29.6015 177.604,32.9349 181,36.5C 181.667,35.1667 182.333,35.1667 183,36.5C 183.617,37.4491 183.451,38.2825 182.5,39C 183.743,41.0338 185.243,41.8671 187,41.5C 188.368,42.9931 188.535,44.4931 187.5,46C 188.636,47.1451 189.636,48.3117 190.5,49.5C 191.167,49.5 191.5,49.8333 191.5,50.5C 191.833,51.8333 192.167,51.8333 192.5,50.5C 192.295,52.1373 192.795,53.804 194,55.5C 194.556,53.4049 195.056,53.2382 195.5,55C 195.257,55.9021 194.923,56.7354 194.5,57.5C 194.229,59.3797 194.896,60.713 196.5,61.5C 197.206,62.5573 197.539,62.2239 197.5,60.5C 199.676,61.7133 200.009,63.38 198.5,65.5C 198.994,67.0255 199.661,68.3588 200.5,69.5C 200.328,70.4916 200.662,71.1583 201.5,71.5C 203.803,75.9825 205.637,81.9825 207,89.5C 208.326,102.709 207.326,115.709 204,128.5C 203.667,128.167 203.333,127.833 203,127.5C 202.014,129.778 201.18,132.111 200.5,134.5C 201.167,134.833 201.833,135.167 202.5,135.5C 201.097,138.875 199.597,142.209 198,145.5C 197.097,146.701 195.931,147.535 194.5,148C 194.264,149.117 194.264,150.284 194.5,151.5C 194.573,153.027 193.906,154.027 192.5,154.5C 192.167,153.167 191.833,153.167 191.5,154.5C 190.662,154.842 190.328,155.508 190.5,156.5C 189.833,156.5 189.5,156.833 189.5,157.5C 188.167,157.833 188.167,158.167 189.5,158.5C 189.672,159.492 189.338,160.158 188.5,160.5C 188.167,159.167 187.833,159.167 187.5,160.5C 186.167,160.833 186.167,161.167 187.5,161.5C 187.672,162.492 187.338,163.158 186.5,163.5C 186.167,162.167 185.833,162.167 185.5,163.5C 184.833,163.5 184.5,163.833 184.5,164.5C 183.167,164.833 183.167,165.167 184.5,165.5C 184.573,167.027 183.906,168.027 182.5,168.5C 182.167,167.167 181.833,167.167 181.5,168.5C 180.833,168.5 180.5,168.833 180.5,169.5C 179.833,169.5 179.5,169.833 179.5,170.5C 178.833,170.5 178.5,170.833 178.5,171.5C 177.833,171.5 177.5,171.833 177.5,172.5C 176.833,172.5 176.5,172.833 176.5,173.5C 175.833,173.5 175.5,173.833 175.5,174.5C 174.833,174.5 174.5,174.833 174.5,175.5C 173.833,175.5 173.5,175.833 173.5,176.5C 172.833,176.5 172.5,176.833 172.5,177.5C 171.833,177.5 171.5,177.833 171.5,178.5C 170.508,178.328 169.842,178.662 169.5,179.5C 168.833,179.5 168.5,179.833 168.5,180.5C 167.833,180.5 167.5,180.833 167.5,181.5C 166.833,181.5 166.5,181.833 166.5,182.5C 165.833,182.5 165.5,182.833 165.5,183.5C 164.508,183.328 163.842,183.662 163.5,184.5C 162.29,184.932 161.29,185.599 160.5,186.5C 159.833,186.5 159.5,186.833 159.5,187.5C 158.508,187.328 157.842,187.662 157.5,188.5C 156.833,188.5 156.5,188.833 156.5,189.5C 155.508,189.328 154.842,189.662 154.5,190.5C 152.407,191.045 150.407,191.878 148.5,193C 148.833,193.333 149.167,193.667 149.5,194C 147.182,195.993 144.516,197.159 141.5,197.5C 141.265,196.903 140.765,196.57 140,196.5C 136.253,197.917 132.419,199.084 128.5,200C 132.226,201.043 131.893,201.543 127.5,201.5C 126.167,200.167 124.833,200.167 123.5,201.5C 121.585,201.216 119.919,201.549 118.5,202.5C 110.167,202.5 101.833,202.5 93.5,202.5C 92.0813,201.549 90.4147,201.216 88.5,201.5C 83.3536,199.88 78.0202,198.547 72.5,197.5C 68.123,194.982 63.4563,192.982 58.5,191.5C 58.0269,190.094 57.0269,189.427 55.5,189.5C 55.5,188.833 55.1667,188.5 54.5,188.5C 52.6644,186.412 50.3311,185.079 47.5,184.5C 47.1667,183.5 46.5,182.833 45.5,182.5C 45.5,181.833 45.1667,181.5 44.5,181.5C 42.563,180.069 40.7297,178.402 39,176.5C 36.9154,177.647 35.4154,176.98 34.5,174.5C 35.0161,172.267 34.0161,170.6 31.5,169.5C 31.5,168.833 31.1667,168.5 30.5,168.5C 29.9924,166.767 29.159,166.434 28,167.5C 29.0084,165.634 28.5084,164.301 26.5,163.5C 25.1316,162.528 23.6316,161.528 22,160.5C 21.1502,158.99 20.3169,157.49 19.5,156C 19.6448,155.228 19.9781,154.561 20.5,154C 17.2229,152.553 15.2229,150.053 14.5,146.5C 15.8333,145.833 15.8333,145.167 14.5,144.5C 14.4894,142.983 13.8228,141.816 12.5,141C 12.8333,140.667 13.1667,140.333 13.5,140C 9.27486,135.714 7.10819,130.547 7,124.5C 7.33333,125.5 7.66667,126.5 8,127.5C 8.43258,124.581 7.93258,121.914 6.5,119.5C 6.2685,106.808 6.60183,94.141 7.5,81.5C 9.19746,78.8785 9.53079,76.0452 8.5,73C 9.48774,68.8635 11.4877,65.3635 14.5,62.5C 13.8333,62.1667 13.1667,61.8333 12.5,61.5C 13.8717,56.8825 16.5384,53.3825 20.5,51C 20.0426,50.586 19.7093,50.086 19.5,49.5C 20.4672,47.3703 21.6338,45.3703 23,43.5C 24.7566,43.8671 26.2566,43.0338 27.5,41C 26.3322,39.1291 26.8322,37.6291 29,36.5C 29.3333,36.8333 29.6667,37.1667 30,37.5C 32.3722,35.2968 34.5389,32.9635 36.5,30.5C 37.1667,30.5 37.5,30.1667 37.5,29.5C 39.7914,28.4579 40.7914,26.9579 40.5,25C 45.6272,22.9069 50.6272,19.9069 55.5,16C 59.9252,13.7874 64.2585,11.6207 68.5,9.5C 69.4916,9.67158 70.1583,9.33825 70.5,8.5C 78.7116,6.19763 87.0449,4.3643 95.5,3C 88.4968,2.50344 88.1635,1.83678 94.5,1C 102.167,0.333333 109.833,0.333333 117.5,1C 120.742,1.40612 123.742,2.23945 126.5,3.5 Z"/></g>
<g><path style="opacity:1" fill="#fef4f3" d="M 98.5,6.5 C 146.12,6.70895 178.954,28.7089 197,72.5C 208.064,113.631 197.897,148.464 166.5,177C 126.75,205.32 86.7499,205.654 46.5,178C 14.8054,150.241 3.97204,115.741 14,74.5C 28.6488,34.7898 56.8155,12.1231 98.5,6.5 Z"/></g>
<g><path style="opacity:1" fill="#f14938" d="M 183.5,125.5 C 185.646,124.569 187.812,124.903 190,126.5C 190.167,126.833 190.333,127.167 190.5,127.5C 188.887,128.427 187.221,129.261 185.5,130C 187.002,130.583 188.335,131.416 189.5,132.5C 189.167,132.833 188.833,133.167 188.5,133.5C 186.382,132.054 184.049,131.387 181.5,131.5C 181.5,130.167 181.5,128.833 181.5,127.5C 182.873,127.657 184.207,127.49 185.5,127C 184.956,126.283 184.289,125.783 183.5,125.5 Z"/></g>
<g><path style="opacity:1" fill="#f34f3d" d="M 20.5,127.5 C 23.2869,126.523 26.2869,126.19 29.5,126.5C 28.3134,129.367 26.3134,131.7 23.5,133.5C 23.1203,131.979 22.9536,130.313 23,128.5C 22.3292,127.748 21.4959,127.414 20.5,127.5 Z"/></g>
<g><path style="opacity:1" fill="#ef3e2f" d="M 185.5,116.5 C 192.19,115.331 193.857,117.497 190.5,123C 184.741,124.139 183.074,121.972 185.5,116.5 Z"/></g>
<g><path style="opacity:1" fill="#ef392c" d="M 20.5,116.5 C 22.604,116.201 24.604,116.534 26.5,117.5C 24.9547,118.452 23.288,118.785 21.5,118.5C 21.5,119.5 21.5,120.5 21.5,121.5C 23.674,121.08 25.674,121.08 27.5,121.5C 20.9571,125.286 18.6237,123.62 20.5,116.5 Z"/></g>
<g><path style="opacity:1" fill="#feefee" d="M 186.5,118.5 C 187.833,118.5 189.167,118.5 190.5,118.5C 190.5,119.5 190.5,120.5 190.5,121.5C 189.167,121.5 187.833,121.5 186.5,121.5C 186.5,120.5 186.5,119.5 186.5,118.5 Z"/></g>
<g><path style="opacity:1" fill="#ee2f24" d="M 122.5,31.5 C 150.565,38.3971 168.732,55.7304 177,83.5C 183.998,119.545 172.165,147.379 141.5,167C 128.006,173.999 113.672,176.832 98.5,175.5C 102.982,174.674 107.649,174.174 112.5,174C 108.179,173.501 103.846,173.334 99.5,173.5C 99.7148,171.821 99.0481,170.821 97.5,170.5C 89.7158,163.947 84.7158,155.614 82.5,145.5C 87.8025,144.671 93.1358,144.171 98.5,144C 92.8431,143.501 87.1764,143.334 81.5,143.5C 81.2789,140.608 80.4456,137.941 79,135.5C 78.5702,138.192 78.7369,140.859 79.5,143.5C 72.5778,143.812 65.7445,143.479 59,142.5C 52.8461,130.218 49.6795,117.218 49.5,103.5C 65.5,102.833 65.5,102.167 49.5,101.5C 49.3544,88.0827 52.3544,75.4161 58.5,63.5C 65.4684,62.503 72.4684,62.1697 79.5,62.5C 79.0728,65.3761 78.4062,68.2094 77.5,71C 77.8361,72.0299 78.5028,72.5299 79.5,72.5C 79.0825,73.2216 78.4158,73.7216 77.5,74C 78.056,74.3826 78.3893,74.8826 78.5,75.5C 77.9569,75.56 77.6236,75.8933 77.5,76.5C 78.8064,77.9122 79.6397,79.5789 80,81.5C 84.6686,85.3367 89.1686,89.3367 93.5,93.5C 94.1175,95.2292 95.1175,96.7292 96.5,98C 96.2716,98.3988 95.9382,98.5654 95.5,98.5C 87.2939,90.7969 78.1273,84.4636 68,79.5C 68.2716,83.1482 69.4383,86.4815 71.5,89.5C 71.5,90.8333 70.8333,91.5 69.5,91.5C 66.2182,90.461 63.0516,89.1276 60,87.5C 64.7651,101.454 69.7651,115.454 75,129.5C 83.4041,134.452 92.2374,138.452 101.5,141.5C 101.335,138.15 101.502,134.817 102,131.5C 102.87,138.815 103.537,146.148 104,153.5C 104.667,154.167 105.333,154.833 106,155.5C 107.79,148.664 109.124,141.664 110,134.5C 110.186,136.9 110.686,139.234 111.5,141.5C 120.18,137.779 128.68,133.779 137,129.5C 141.872,115.717 147.039,102.05 152.5,88.5C 152.167,88.1667 151.833,87.8333 151.5,87.5C 138.833,92.8333 126.167,98.1667 113.5,103.5C 112.571,102.311 112.238,100.978 112.5,99.5C 113.166,96.9723 113.832,94.3056 114.5,91.5C 115.719,92.2634 116.719,93.2634 117.5,94.5C 118.522,94.1445 119.189,93.4778 119.5,92.5C 123.473,88.6986 127.64,85.0319 132,81.5C 132.5,80 133,78.5 133.5,77C 133.43,76.2352 133.097,75.7352 132.5,75.5C 132.062,75.5654 131.728,75.3988 131.5,75C 132.571,74.1482 133.571,73.3149 134.5,72.5C 133.833,69.1667 133.167,65.8333 132.5,62.5C 139.532,62.1697 146.532,62.503 153.5,63.5C 159.332,75.495 162.332,88.1617 162.5,101.5C 146.5,102.167 146.5,102.833 162.5,103.5C 162.575,117.295 159.408,130.295 153,142.5C 146.256,143.479 139.422,143.812 132.5,143.5C 133.157,132.833 132.49,132.833 130.5,143.5C 124.833,143.5 119.167,143.5 113.5,143.5C 112.957,143.56 112.624,143.893 112.5,144.5C 118.128,145.495 123.794,145.829 129.5,145.5C 126.872,155.962 121.539,164.796 113.5,172C 115.456,171.778 117.29,170.945 119,169.5C 124.485,162.197 128.652,154.197 131.5,145.5C 138.022,145.177 144.355,145.51 150.5,146.5C 144.997,155.503 137.664,162.669 128.5,168C 131.522,168.164 134.189,167.164 136.5,165C 143.292,159.214 148.959,152.548 153.5,145C 156.167,144.667 158.833,144.333 161.5,144C 159.1,143.814 156.766,143.314 154.5,142.5C 161.094,130.377 164.427,117.377 164.5,103.5C 179.167,102.833 179.167,102.167 164.5,101.5C 164.52,87.778 161.187,74.9447 154.5,63C 164.85,61.7998 164.516,60.7998 153.5,60C 147.215,49.0471 138.382,40.8804 127,35.5C 126.5,35.6667 126,35.8333 125.5,36C 136.726,41.2259 145.393,49.2259 151.5,60C 144.833,60.6667 138.167,60.6667 131.5,60C 128.819,49.4548 123.486,40.6215 115.5,33.5C 117.599,32.3882 119.933,31.7215 122.5,31.5 Z"/></g>
<g><path style="opacity:1" fill="#fdd3d0" d="M 115.5,33.5 C 123.486,40.6215 128.819,49.4548 131.5,60C 138.167,60.6667 144.833,60.6667 151.5,60C 145.393,49.2259 136.726,41.2259 125.5,36C 126,35.8333 126.5,35.6667 127,35.5C 138.382,40.8804 147.215,49.0471 153.5,60C 164.516,60.7998 164.85,61.7998 154.5,63C 161.187,74.9447 164.52,87.778 164.5,101.5C 179.167,102.167 179.167,102.833 164.5,103.5C 164.427,117.377 161.094,130.377 154.5,142.5C 156.766,143.314 159.1,143.814 161.5,144C 158.833,144.333 156.167,144.667 153.5,145C 148.959,152.548 143.292,159.214 136.5,165C 134.189,167.164 131.522,168.164 128.5,168C 137.664,162.669 144.997,155.503 150.5,146.5C 151.043,146.44 151.376,146.107 151.5,145.5C 144.678,144.182 138.011,144.182 131.5,145.5C 128.652,154.197 124.485,162.197 119,169.5C 117.29,170.945 115.456,171.778 113.5,172C 121.539,164.796 126.872,155.962 129.5,145.5C 124.167,144.833 118.833,144.167 113.5,143.5C 119.167,143.5 124.833,143.5 130.5,143.5C 132.49,132.833 133.157,132.833 132.5,143.5C 139.422,143.812 146.256,143.479 153,142.5C 159.408,130.295 162.575,117.295 162.5,103.5C 146.5,102.833 146.5,102.167 162.5,101.5C 162.332,88.1617 159.332,75.495 153.5,63.5C 146.532,62.503 139.532,62.1697 132.5,62.5C 133.167,65.8333 133.833,69.1667 134.5,72.5C 133.25,72.4226 132.417,71.756 132,70.5C 131.498,67.4869 130.998,64.4869 130.5,61.5C 125.959,61.6691 125.626,61.0025 129.5,59.5C 126.67,49.6653 121.67,41.1653 114.5,34C 114.728,33.6012 115.062,33.4346 115.5,33.5 Z"/></g>
<g><path style="opacity:1" fill="#fef7f6" d="M 69.5,91.5 C 79.197,96.07 89.197,100.07 99.5,103.5C 99.5,99.8333 99.5,96.1667 99.5,92.5C 101.167,92.5 102.833,92.5 104.5,92.5C 104.5,95.5 104.5,98.5 104.5,101.5C 104.5,105.833 104.5,110.167 104.5,114.5C 105.5,114.5 106.5,114.5 107.5,114.5C 107.5,107.5 107.5,100.5 107.5,93.5C 108.919,92.5489 110.585,92.2155 112.5,92.5C 112.5,94.8333 112.5,97.1667 112.5,99.5C 112.238,100.978 112.571,102.311 113.5,103.5C 126.167,98.1667 138.833,92.8333 151.5,87.5C 151.833,87.8333 152.167,88.1667 152.5,88.5C 147.039,102.05 141.872,115.717 137,129.5C 128.68,133.779 120.18,137.779 111.5,141.5C 110.686,139.234 110.186,136.9 110,134.5C 109.124,141.664 107.79,148.664 106,155.5C 105.333,154.833 104.667,154.167 104,153.5C 103.537,146.148 102.87,138.815 102,131.5C 101.502,134.817 101.335,138.15 101.5,141.5C 92.2374,138.452 83.4041,134.452 75,129.5C 69.7651,115.454 64.7651,101.454 60,87.5C 63.0516,89.1276 66.2182,90.461 69.5,91.5 Z"/></g>
<g><path style="opacity:1" fill="#ee3126" d="M 116.5,116.5 C 116.522,118.532 116.855,120.698 117.5,123C 117,123.5 116.5,124 116,124.5C 115.278,121.739 115.445,119.073 116.5,116.5 Z"/></g>
<g><path style="opacity:1" fill="#f14b3b" d="M 109.5,118.5 C 112.626,119.806 113.793,122.14 113,125.5C 111.111,124.903 109.278,124.569 107.5,124.5C 108.747,122.677 109.414,120.677 109.5,118.5 Z"/></g>
<g><path style="opacity:1" fill="#f25143" d="M 92.5,116.5 C 94.6999,118.378 96.3665,120.711 97.5,123.5C 98.1867,121.726 99.0201,120.059 100,118.5C 101.333,122.5 102.667,122.5 104,118.5C 105.814,120.715 106.314,123.048 105.5,125.5C 104.858,122.203 103.691,121.869 102,124.5C 101.692,123.692 101.192,123.025 100.5,122.5C 99.8333,123.5 99.1667,124.5 98.5,125.5C 96.5017,123.666 94.1684,122.666 91.5,122.5C 91.5172,120.435 91.8505,118.435 92.5,116.5 Z"/></g>
<g><path style="opacity:1" fill="#f14b3d" d="M 132.5,110.5 C 133.629,112.628 133.796,114.961 133,117.5C 132.667,116.5 132.333,115.5 132,114.5C 130.273,116.107 128.439,117.774 126.5,119.5C 125.167,120.833 123.833,120.833 122.5,119.5C 121.409,121.015 120.076,121.848 118.5,122C 119.808,119.205 121.474,116.705 123.5,114.5C 124.167,115.833 124.833,117.167 125.5,118.5C 127.09,116.32 128.424,113.987 129.5,111.5C 131.048,114.007 132.048,113.674 132.5,110.5 Z"/></g>
<g><path style="opacity:1" fill="#ee392d" d="M 86.5,113.5 C 87.8985,115.873 89.2318,118.373 90.5,121C 89.5509,121.617 88.7175,121.451 88,120.5C 87.023,118.26 86.523,115.927 86.5,113.5 Z"/></g>
<g><path style="opacity:1" fill="#f14c40" d="M 81.5,112.5 C 83.3031,114.481 84.9697,116.648 86.5,119C 84.9532,119.333 83.6199,118.833 82.5,117.5C 81.914,117.709 81.414,118.043 81,118.5C 80.5099,116.455 80.6765,114.455 81.5,112.5 Z"/></g>
<g><path style="opacity:1" fill="#f15145" d="M 138.5,107.5 C 139.725,108.152 140.392,109.319 140.5,111C 140.167,112.167 139.833,113.333 139.5,114.5C 137.671,113.718 136.171,114.384 135,116.5C 136.093,113.619 137.26,110.619 138.5,107.5 Z"/></g>
<g><path style="opacity:1" fill="#fbbdb8" d="M 107.5,93.5 C 107.5,100.5 107.5,107.5 107.5,114.5C 106.5,114.5 105.5,114.5 104.5,114.5C 104.5,110.167 104.5,105.833 104.5,101.5C 105.324,105.312 105.824,109.312 106,113.5C 106.172,106.654 106.672,99.9874 107.5,93.5 Z"/></g>
<g><path style="opacity:1" fill="#f15448" d="M 71.5,107.5 C 72.8503,108.483 73.8503,109.816 74.5,111.5C 75.1924,110.975 75.6924,110.308 76,109.5C 77.6263,112.058 78.6263,114.725 79,117.5C 77.3333,115.833 75.6667,114.167 74,112.5C 73.6924,113.308 73.1924,113.975 72.5,114.5C 71.5258,112.257 71.1924,109.924 71.5,107.5 Z"/></g>
<g><path style="opacity:1" fill="#ee2e20" d="M 189.5,83.5 C 190.833,83.5 192.167,83.5 193.5,83.5C 193.5,84.5 193.5,85.5 193.5,86.5C 190.399,86.6917 187.399,87.3584 184.5,88.5C 183.614,87.675 183.281,86.675 183.5,85.5C 185.786,85.405 187.786,84.7384 189.5,83.5 Z"/></g>
<g><path style="opacity:1" fill="#f04434" d="M 19.5,76.5 C 21.8008,77.0604 24.1341,77.5604 26.5,78C 30.0719,80.6258 30.4052,83.6258 27.5,87C 24.7695,87.7284 22.1029,87.5617 19.5,86.5C 18.4173,85.635 18.2506,84.635 19,83.5C 21.3806,84.435 23.8806,84.7683 26.5,84.5C 26.6495,83.448 26.4828,82.448 26,81.5C 24.2151,80.7599 22.3817,80.0933 20.5,79.5C 19.6143,78.675 19.281,77.675 19.5,76.5 Z"/></g>
<g><path style="opacity:1" fill="#fef1f0" d="M 142.5,79.5 C 143.376,79.3691 144.043,79.7025 144.5,80.5C 143.26,83.3934 141.926,86.2267 140.5,89C 132.867,92.4264 125.201,95.4264 117.5,98C 124.868,90.3377 133.201,84.171 142.5,79.5 Z"/></g>
<g><path style="opacity:1" fill="#f04636" d="M 189.5,77.5 C 192.183,77.2266 193.683,78.2266 194,80.5C 192.32,79.3966 190.82,79.7299 189.5,81.5C 188.374,80.1916 188.374,78.8583 189.5,77.5 Z"/></g>
<g><path style="opacity:1" fill="#fee7e6" d="M 132.5,75.5 C 133.097,75.7352 133.43,76.2352 133.5,77C 133,78.5 132.5,80 132,81.5C 127.64,85.0319 123.473,88.6986 119.5,92.5C 118.957,92.44 118.624,92.1067 118.5,91.5C 122.252,85.3045 126.918,79.9712 132.5,75.5 Z"/></g>
<g><path style="opacity:1" fill="#fdd8d5" d="M 79.5,72.5 C 78.5028,72.5299 77.8361,72.0299 77.5,71C 78.4062,68.2094 79.0728,65.3761 79.5,62.5C 72.4684,62.1697 65.4684,62.503 58.5,63.5C 52.3544,75.4161 49.3544,88.0827 49.5,101.5C 65.5,102.167 65.5,102.833 49.5,103.5C 49.6795,117.218 52.8461,130.218 59,142.5C 65.7445,143.479 72.5778,143.812 79.5,143.5C 78.7369,140.859 78.5702,138.192 79,135.5C 80.4456,137.941 81.2789,140.608 81.5,143.5C 87.1764,143.334 92.8431,143.501 98.5,144C 93.1358,144.171 87.8025,144.671 82.5,145.5C 84.7158,155.614 89.7158,163.947 97.5,170.5C 98.463,171.363 98.463,172.03 97.5,172.5C 93.8595,170.693 91.0261,168.026 89,164.5C 85.6033,158.377 82.77,152.044 80.5,145.5C 73.9888,144.182 67.3222,144.182 60.5,145.5C 60.6236,146.107 60.9569,146.44 61.5,146.5C 67.003,155.503 74.3363,162.669 83.5,168C 81.7111,168.52 80.0444,168.187 78.5,167C 70.4701,160.967 63.8034,153.634 58.5,145C 55.5,144.667 52.5,144.333 49.5,144C 52.2263,143.818 54.8929,143.318 57.5,142.5C 50.903,130.448 47.5696,117.448 47.5,103.5C 31.5,102.833 31.5,102.167 47.5,101.5C 47.5537,87.6174 50.8871,74.6174 57.5,62.5C 54.8929,61.6816 52.2263,61.1816 49.5,61C 53.467,60.9973 57.1337,60.164 60.5,58.5C 63.428,59.8197 66.7614,60.4864 70.5,60.5C 73.8333,60.1667 77.1667,59.8333 80.5,59.5C 83.3303,49.6653 88.3303,41.1653 95.5,34C 96.1667,33.3333 96.8333,33.3333 97.5,34C 90.3257,41.1762 85.3257,49.6762 82.5,59.5C 94.1574,60.904 93.8241,62.2373 81.5,63.5C 80.0668,66.333 79.4001,69.333 79.5,72.5 Z"/></g>
<g><path style="opacity:1" fill="#ee3123" d="M 187.5,71.5 C 188.995,71.4148 189.995,72.0815 190.5,73.5C 187.51,74.8311 184.51,76.1644 181.5,77.5C 180.167,76.5 180.167,75.5 181.5,74.5C 183.604,73.4805 185.604,72.4805 187.5,71.5 Z"/></g>
<g><path style="opacity:1" fill="#ee3628" d="M 25.5,61.5 C 28.9835,62.7781 32.3168,64.4448 35.5,66.5C 32.9745,67.9574 30.3079,69.2907 27.5,70.5C 29.0534,71.439 30.3867,72.6057 31.5,74C 31.1667,74.5 30.8333,75 30.5,75.5C 27.9206,74.2939 25.4206,72.9606 23,71.5C 22.3333,70.5 22.3333,69.5 23,68.5C 24.8161,67.6705 26.6494,66.8372 28.5,66C 26.5614,65.0922 25.5614,63.5922 25.5,61.5 Z"/></g>
<g><path style="opacity:1" fill="#ef3628" d="M 183.5,60.5 C 185.121,60.7869 186.121,61.7869 186.5,63.5C 184.157,66.2072 181.823,68.8739 179.5,71.5C 178.692,71.1924 178.025,70.6924 177.5,70C 179.007,69.1627 179.507,67.9961 179,66.5C 177.577,64.4961 175.744,62.9961 173.5,62C 177.025,61.8213 180.359,61.3213 183.5,60.5 Z"/></g>
<g><path style="opacity:1" fill="#feeeee" d="M 179.5,63.5 C 182.797,63.3287 183.131,63.9954 180.5,65.5C 179.702,65.0431 179.369,64.3764 179.5,63.5 Z"/></g>
<g><path style="opacity:1" fill="#ee3426" d="M 29.5,54.5 C 32.0045,56.1443 34.6711,57.6443 37.5,59C 38.7836,60.2975 38.6169,61.4642 37,62.5C 34.2518,60.5421 31.4185,58.7088 28.5,57C 29.2524,56.3292 29.5858,55.4959 29.5,54.5 Z"/></g>
<g><path style="opacity:1" fill="#ef3c2d" d="M 37.5,43.5 C 40.1059,46.1277 42.4392,49.1277 44.5,52.5C 43.8551,53.646 43.0217,54.646 42,55.5C 38.7882,54.1446 35.6215,52.6446 32.5,51C 34.728,49.919 37.0613,49.419 39.5,49.5C 38.5,48.1667 37.5,46.8333 36.5,45.5C 36.8627,44.8165 37.1961,44.1499 37.5,43.5 Z"/></g>
<g><path style="opacity:1" fill="#ee3628" d="M 171.5,42.5 C 172.478,42.811 173.145,43.4777 173.5,44.5C 168.887,49.5136 169.554,50.5136 175.5,47.5C 176.646,48.1449 177.646,48.9783 178.5,50C 174.292,54.4262 174.792,55.2596 180,52.5C 180.692,53.0253 181.192,53.6919 181.5,54.5C 178.627,56.1031 175.627,57.4364 172.5,58.5C 170.281,56.2871 170.614,54.1204 173.5,52C 171.433,51.4644 169.599,51.9644 168,53.5C 166.978,52.646 166.145,51.646 165.5,50.5C 167.909,48.0976 169.909,45.4309 171.5,42.5 Z"/></g>
<g><path style="opacity:1" fill="#ee3123" d="M 47.5,33.5 C 48.4778,33.811 49.1445,34.4777 49.5,35.5C 46.7495,36.7158 45.5828,38.7158 46,41.5C 47.1707,39.3843 48.6707,38.7176 50.5,39.5C 49.6872,40.8139 48.6872,41.9805 47.5,43C 48,43.5 48.5,44 49,44.5C 50.1667,43.3333 51.3333,42.1667 52.5,41C 53.3317,40.3123 53.9984,40.479 54.5,41.5C 52.8333,43.8333 50.8333,45.8333 48.5,47.5C 45.8333,45.5 43.5,43.1667 41.5,40.5C 43.5227,38.1472 45.5227,35.8138 47.5,33.5 Z"/></g>
<g><path style="opacity:1" fill="#f24835" d="M 162.5,35.5 C 164.484,35.3832 166.15,36.0499 167.5,37.5C 166.274,40.9518 164.774,44.2852 163,47.5C 162.02,45.9411 161.187,44.2744 160.5,42.5C 158.339,41.9649 156.339,41.1316 154.5,40C 157.391,38.7258 160.058,37.2258 162.5,35.5 Z"/></g>
<g><path style="opacity:1" fill="#ee3628" d="M 148.5,24.5 C 149.756,24.4614 150.756,24.9614 151.5,26C 150.167,27.3333 150.167,28.6667 151.5,30C 153.199,30.3932 154.699,29.8932 156,28.5C 156.5,28.8333 157,29.1667 157.5,29.5C 156.169,32.8338 154.335,35.8338 152,38.5C 151.308,37.9747 150.808,37.3081 150.5,36.5C 152.283,32.9692 151.283,31.4692 147.5,32C 146.655,35.0325 145.322,35.1991 143.5,32.5C 145.193,29.8159 146.86,27.1492 148.5,24.5 Z"/></g>
<g><path style="opacity:1" fill="#ee3527" d="M 57.5,26.5 C 61.7589,26.1019 63.5922,28.1019 63,32.5C 65.9143,33.3196 66.081,34.3196 63.5,35.5C 62.1667,34.8333 60.8333,34.1667 59.5,33.5C 59.4192,35.6329 58.9192,37.6329 58,39.5C 55.9715,36.9708 54.1381,34.3041 52.5,31.5C 54.0063,29.5986 55.6729,27.9319 57.5,26.5 Z"/></g>
<g><path style="opacity:1" fill="#ee3025" d="M 122.5,31.5 C 119.933,31.7215 117.599,32.3882 115.5,33.5C 115.062,33.4346 114.728,33.6012 114.5,34C 121.67,41.1653 126.67,49.6653 129.5,59.5C 125.626,61.0025 125.959,61.6691 130.5,61.5C 130.998,64.4869 131.498,67.4869 132,70.5C 132.417,71.756 133.25,72.4226 134.5,72.5C 133.571,73.3149 132.571,74.1482 131.5,75C 131.728,75.3988 132.062,75.5654 132.5,75.5C 126.918,79.9712 122.252,85.3045 118.5,91.5C 118.624,92.1067 118.957,92.44 119.5,92.5C 119.189,93.4778 118.522,94.1445 117.5,94.5C 116.719,93.2634 115.719,92.2634 114.5,91.5C 113.832,94.3056 113.166,96.9723 112.5,99.5C 112.5,97.1667 112.5,94.8333 112.5,92.5C 110.585,92.2155 108.919,92.5489 107.5,93.5C 106.672,99.9874 106.172,106.654 106,113.5C 105.824,109.312 105.324,105.312 104.5,101.5C 104.5,98.5 104.5,95.5 104.5,92.5C 102.833,92.5 101.167,92.5 99.5,92.5C 99.5,96.1667 99.5,99.8333 99.5,103.5C 89.197,100.07 79.197,96.07 69.5,91.5C 70.8333,91.5 71.5,90.8333 71.5,89.5C 79.262,92.546 86.9286,95.8794 94.5,99.5C 95.1067,99.3764 95.44,99.0431 95.5,98.5C 95.9382,98.5654 96.2716,98.3988 96.5,98C 95.1175,96.7292 94.1175,95.2292 93.5,93.5C 93.9382,93.5654 94.2716,93.3988 94.5,93C 90.4136,85.9681 85.0803,80.1347 78.5,75.5C 78.3893,74.8826 78.056,74.3826 77.5,74C 78.4158,73.7216 79.0825,73.2216 79.5,72.5C 79.4001,69.333 80.0668,66.333 81.5,63.5C 93.8241,62.2373 94.1574,60.904 82.5,59.5C 85.3257,49.6762 90.3257,41.1762 97.5,34C 96.8333,33.3333 96.1667,33.3333 95.5,34C 88.3303,41.1653 83.3303,49.6653 80.5,59.5C 77.1667,59.8333 73.8333,60.1667 70.5,60.5C 66.7614,60.4864 63.428,59.8197 60.5,58.5C 57.1337,60.164 53.467,60.9973 49.5,61C 52.2263,61.1816 54.8929,61.6816 57.5,62.5C 50.8871,74.6174 47.5537,87.6174 47.5,101.5C 31.5,102.167 31.5,102.833 47.5,103.5C 47.5696,117.448 50.903,130.448 57.5,142.5C 54.8929,143.318 52.2263,143.818 49.5,144C 52.5,144.333 55.5,144.667 58.5,145C 63.8034,153.634 70.4701,160.967 78.5,167C 80.0444,168.187 81.7111,168.52 83.5,168C 74.3363,162.669 67.003,155.503 61.5,146.5C 67.6446,145.51 73.9779,145.177 80.5,145.5C 82.77,152.044 85.6033,158.377 89,164.5C 91.0261,168.026 93.8595,170.693 97.5,172.5C 98.463,172.03 98.463,171.363 97.5,170.5C 99.0481,170.821 99.7148,171.821 99.5,173.5C 103.846,173.334 108.179,173.501 112.5,174C 107.649,174.174 102.982,174.674 98.5,175.5C 65.8652,171.035 44.6986,153.035 35,121.5C 27.7776,86.455 38.9443,58.955 68.5,39C 85.6354,29.428 103.635,26.928 122.5,31.5 Z"/></g>
<g><path style="opacity:1" fill="#ef423b" d="M 80.5,110.5 C 81.4971,109.287 82.4971,109.454 83.5,111C 82.4232,111.47 81.4232,111.303 80.5,110.5 Z"/></g>
<g><path style="opacity:1" fill="#fef6f6" d="M 93.5,83.5 C 101.86,83.1688 110.193,83.5021 118.5,84.5C 115.323,88.9206 110.99,90.9206 105.5,90.5C 99.6056,91.225 95.6056,88.8916 93.5,83.5 Z"/></g>
<g><path style="opacity:1" fill="#fdefee" d="M 90.5,79.5 C 100.855,79.1681 111.188,79.5014 121.5,80.5C 116.333,80.8333 111.167,81.1667 106,81.5C 100.454,81.4946 95.2876,80.8279 90.5,79.5 Z"/></g>
<g><path style="opacity:1" fill="#feeeec" d="M 95.5,98.5 C 95.44,99.0431 95.1067,99.3764 94.5,99.5C 86.9286,95.8794 79.262,92.546 71.5,89.5C 69.4383,86.4815 68.2716,83.1482 68,79.5C 78.1273,84.4636 87.2939,90.7969 95.5,98.5 Z"/></g>
<g><path style="opacity:1" fill="#fee3e2" d="M 78.5,75.5 C 85.0803,80.1347 90.4136,85.9681 94.5,93C 94.2716,93.3988 93.9382,93.5654 93.5,93.5C 89.1686,89.3367 84.6686,85.3367 80,81.5C 79.6397,79.5789 78.8064,77.9122 77.5,76.5C 77.6236,75.8933 77.9569,75.56 78.5,75.5 Z"/></g>
<g><path style="opacity:1" fill="#fdd7d4" d="M 60.5,58.5 C 65.6512,48.5163 73.3179,41.0163 83.5,36C 84.5,35.3333 85.5,35.3333 86.5,36C 75.793,41.2115 67.1263,48.7115 60.5,58.5 Z"/></g>
<g><path style="opacity:1" fill="#fef1f0" d="M 119.5,46.5 C 121.177,52.2554 122.844,58.2554 124.5,64.5C 124.508,69.6486 122.508,73.8153 118.5,77C 114.809,77.0505 114.642,75.8839 118,73.5C 118.869,71.4194 119.369,69.2527 119.5,67C 118.247,62.245 117.247,57.4116 116.5,52.5C 107.591,55.9102 101.091,61.9102 97,70.5C 96.5034,72.8098 96.3367,75.1432 96.5,77.5C 94.8561,77.7135 93.3561,77.3802 92,76.5C 90.5966,67.1331 93.7633,59.6331 101.5,54C 103.754,52.6233 105.92,51.1233 108,49.5C 108.49,50.7932 108.657,52.1266 108.5,53.5C 109.552,53.6495 110.552,53.4828 111.5,53C 113.776,50.2111 116.443,48.0444 119.5,46.5 Z"/></g>
<g><path style="opacity:1" fill="#fef6f5" d="M 113.5,56.5 C 119.405,63.8731 118.739,70.7065 111.5,77C 107.514,77.4988 103.514,77.6655 99.5,77.5C 98.8124,72.6232 99.9791,68.2899 103,64.5C 106.4,61.5862 109.9,58.9195 113.5,56.5 Z"/></g>
<g><path style="opacity:1" fill="#fedfdd" d="M 56.5,29.5 C 58.3547,29.272 59.1881,29.9387 59,31.5C 56.1924,32.8596 55.3591,32.1929 56.5,29.5 Z"/></g>
<g><path style="opacity:1" fill="#ee2f21" d="M 68.5,20.5 C 69.9778,20.238 71.3112,20.5713 72.5,21.5C 71.0921,22.2432 69.7588,23.0766 68.5,24C 70.8098,24.4966 73.1432,24.6633 75.5,24.5C 75.3707,29.8971 72.704,31.8971 67.5,30.5C 69.6721,29.7952 71.6721,28.7952 73.5,27.5C 73,27.1667 72.5,26.8333 72,26.5C 69.9011,27.2865 67.7345,27.6199 65.5,27.5C 64.9093,24.3247 65.9093,21.9913 68.5,20.5 Z"/></g>
<g><path style="opacity:1" fill="#ef3829" d="M 130.5,16.5 C 133.146,17.4866 135.812,18.4866 138.5,19.5C 139.833,20.1667 139.833,20.8333 138.5,21.5C 136.941,20.9264 135.441,20.2598 134,19.5C 132.392,21.7672 133.225,22.7672 136.5,22.5C 136.649,23.552 136.483,24.552 136,25.5C 132.99,22.4303 131.157,23.097 130.5,27.5C 129.119,27.0004 128.453,26.0004 128.5,24.5C 129.762,21.978 130.429,19.3113 130.5,16.5 Z"/></g>
<g><path style="opacity:1" fill="#ef3929" d="M 76.5,17.5 C 78.5922,17.5614 80.0922,18.5614 81,20.5C 81.2511,22.433 81.7511,24.2663 82.5,26C 81.9747,26.6924 81.3081,27.1924 80.5,27.5C 78.9671,24.2321 77.6338,20.8988 76.5,17.5 Z"/></g>
<g><path style="opacity:1" fill="#ee3424" d="M 118.5,14.5 C 126.244,14.0482 128.577,17.2148 125.5,24C 119.172,25.9712 116.006,23.8045 116,17.5C 117.045,16.6266 117.878,15.6266 118.5,14.5 Z"/></g>
<g><path style="opacity:1" fill="#fee6e4" d="M 120.5,16.5 C 123.966,17.109 124.966,18.9423 123.5,22C 118.541,22.232 117.541,20.3987 120.5,16.5 Z"/></g>
<g><path style="opacity:1" fill="#ef3a2c" d="M 91.5,13.5 C 93.0481,13.8212 93.7148,14.8212 93.5,16.5C 92.5,16.5 91.5,16.5 90.5,16.5C 90.8333,19.1667 91.1667,21.8333 91.5,24.5C 90.5,24.5 89.5,24.5 88.5,24.5C 88.0074,22.1944 87.6741,19.861 87.5,17.5C 86.0222,17.762 84.6888,17.4287 83.5,16.5C 86.1836,15.247 88.8503,14.247 91.5,13.5 Z"/></g>
<g><path style="opacity:1" fill="#f03e2d" d="M 102.5,12.5 C 103.978,12.238 105.311,12.5713 106.5,13.5C 104.02,16.3609 103.02,19.6942 103.5,23.5C 102.5,23.5 101.5,23.5 100.5,23.5C 100.05,19.7685 98.3829,16.6018 95.5,14C 97.8087,13.2438 99.8087,13.7438 101.5,15.5C 102.386,14.675 102.719,13.675 102.5,12.5 Z"/></g>
<g><path style="opacity:0.004" fill="#000000" d="M 202.5,131.5 C 203.833,132.167 203.833,132.167 202.5,131.5 Z"/></g>
<g><path style="opacity:1" fill="#ee3524" d="M 180.5,133.5 C 185.006,132.527 187.172,134.194 187,138.5C 183.604,141.277 180.77,140.777 178.5,137C 178.978,135.697 179.645,134.531 180.5,133.5 Z"/></g>
<g><path style="opacity:1" fill="#ffcfca" d="M 181.5,134.5 C 184.5,134.167 185.833,135.5 185.5,138.5C 181.56,139.234 180.227,137.901 181.5,134.5 Z"/></g>
<g><path style="opacity:1" fill="#f45745" d="M 176.5,140.5 C 178.144,140.286 179.644,140.62 181,141.5C 180.698,143.974 180.532,146.308 180.5,148.5C 178.5,147.167 176.5,145.833 174.5,144.5C 175.18,143.14 175.847,141.807 176.5,140.5 Z"/></g>
<g><path style="opacity:0.004" fill="#fe0000" d="M 13.5,144.5 C 12.8333,143.167 12.8333,143.167 13.5,144.5 Z"/></g>
<g><path style="opacity:1" fill="#ee3729" d="M 30.5,136.5 C 31.5,136.5 32.5,136.5 33.5,136.5C 33.67,137.822 33.3366,138.989 32.5,140C 33.448,140.483 34.448,140.649 35.5,140.5C 35.719,141.675 35.3857,142.675 34.5,143.5C 32.6675,144.248 31.0009,145.248 29.5,146.5C 29.1667,146.167 28.8333,145.833 28.5,145.5C 32.1358,143.793 32.1358,142.626 28.5,142C 29.1667,141.333 29.8333,140.667 30.5,140C 28.8739,140.195 27.2072,140.195 25.5,140C 27.2331,138.811 28.8998,137.644 30.5,136.5 Z"/></g>
<g><path style="opacity:1" fill="#f37770" d="M 80.5,145.5 C 73.9779,145.177 67.6446,145.51 61.5,146.5C 60.9569,146.44 60.6236,146.107 60.5,145.5C 67.3222,144.182 73.9888,144.182 80.5,145.5 Z"/></g>
<g><path style="opacity:1" fill="#f47a72" d="M 113.5,143.5 C 118.833,144.167 124.167,144.833 129.5,145.5C 123.794,145.829 118.128,145.495 112.5,144.5C 112.624,143.893 112.957,143.56 113.5,143.5 Z"/></g>
<g><path style="opacity:1" fill="#f37972" d="M 131.5,145.5 C 138.011,144.182 144.678,144.182 151.5,145.5C 151.376,146.107 151.043,146.44 150.5,146.5C 144.355,145.51 138.022,145.177 131.5,145.5 Z"/></g>
<g><path style="opacity:0.008" fill="#ff7a59" d="M 13.5,144.5 C 13.8333,144.5 14.1667,144.5 14.5,144.5C 14.5,145.167 14.5,145.833 14.5,146.5C 13.6618,146.158 13.3284,145.492 13.5,144.5 Z"/></g>
<g><path style="opacity:1" fill="#f24938" d="M 33.5,146.5 C 35.7505,146.181 37.7505,146.681 39.5,148C 38.0248,150.309 36.3581,152.476 34.5,154.5C 33.2888,153.726 33.2888,152.893 34.5,152C 33.4954,150.493 32.162,149.327 30.5,148.5C 31.6016,147.824 32.6016,147.158 33.5,146.5 Z"/></g>
<g><path style="opacity:0.004" fill="#fe0000" d="M 194.5,150.5 C 195.833,151.167 195.833,151.167 194.5,150.5 Z"/></g>
<g><path style="opacity:0.004" fill="#ffc3b6" d="M 191.5,154.5 C 191.833,154.5 192.167,154.5 192.5,154.5C 192.672,155.492 192.338,156.158 191.5,156.5C 191.5,155.833 191.5,155.167 191.5,154.5 Z"/></g>
<g><path style="opacity:0.012" fill="#fe5554" d="M 190.5,156.5 C 190.833,156.5 191.167,156.5 191.5,156.5C 191.315,157.17 190.981,157.17 190.5,156.5 Z"/></g>
<g><path style="opacity:1" fill="#f04434" d="M 169.5,151.5 C 172.144,152.493 174.81,153.493 177.5,154.5C 174.316,155.203 172.816,157.203 173,160.5C 170.048,157.969 168.881,154.969 169.5,151.5 Z"/></g>
<g><path style="opacity:0.012" fill="#fe5554" d="M 189.5,157.5 C 189.833,157.5 190.167,157.5 190.5,157.5C 190.315,158.17 189.981,158.17 189.5,157.5 Z"/></g>
<g><path style="opacity:1" fill="#ef4030" d="M 40.5,151.5 C 41.3764,151.369 42.0431,151.702 42.5,152.5C 40.8333,153.5 39.5,154.833 38.5,156.5C 38.8076,157.308 39.3076,157.975 40,158.5C 41.1667,157.333 42.3333,156.167 43.5,155C 44.3317,154.312 44.9984,154.479 45.5,155.5C 44.1293,157.705 42.296,159.372 40,160.5C 35.3561,157.363 35.5228,154.363 40.5,151.5 Z"/></g>
<g><path style="opacity:1" fill="#fdcac6" d="M 107.5,160.5 C 110.729,160.165 112.229,161.498 112,164.5C 109.871,165.863 109.371,165.529 110.5,163.5C 110.192,162.692 109.692,162.025 109,161.5C 108.781,162.938 108.281,164.271 107.5,165.5C 106.334,163.833 106.334,162.166 107.5,160.5 Z"/></g>
<g><path style="opacity:0.008" fill="#7f807f" d="M 187.5,160.5 C 187.833,160.5 188.167,160.5 188.5,160.5C 188.315,161.17 187.981,161.17 187.5,160.5 Z"/></g>
<g><path style="opacity:1" fill="#fddbd8" d="M 113.5,161.5 C 119.166,160.054 119.832,161.387 115.5,165.5C 114.895,164.413 115.228,163.246 116.5,162C 115.552,161.517 114.552,161.351 113.5,161.5 Z"/></g>
<g><path style="opacity:1" fill="#ee3829" d="M 164.5,156.5 C 166.176,157.183 166.843,158.517 166.5,160.5C 168.288,160.215 169.955,160.548 171.5,161.5C 171.192,162.308 170.692,162.975 170,163.5C 166.526,162.072 166.026,162.572 168.5,165C 168,165.5 167.5,166 167,166.5C 165.333,164.833 163.667,163.167 162,161.5C 161.312,160.668 161.479,160.002 162.5,159.5C 163.167,160.167 163.833,160.833 164.5,161.5C 164.833,161 165.167,160.5 165.5,160C 165.011,158.862 164.678,157.695 164.5,156.5 Z"/></g>
<g><path style="opacity:1" fill="#fcb3ad" d="M 101.5,159.5 C 103.722,159.559 104.722,160.725 104.5,163C 104.002,166.61 102.335,167.277 99.5,165C 100.424,164.15 100.424,163.15 99.5,162C 100.056,160.989 100.722,160.156 101.5,159.5 Z"/></g>
<g><path style="opacity:0.004" fill="#fe0000" d="M 26.5,163.5 C 25.8333,164.167 25.8333,164.167 26.5,163.5 Z"/></g>
<g><path style="opacity:0.008" fill="#e90000" d="M 185.5,163.5 C 185.833,163.5 186.167,163.5 186.5,163.5C 186.5,164.833 185.833,165.5 184.5,165.5C 184.5,165.167 184.5,164.833 184.5,164.5C 185.167,164.5 185.5,164.167 185.5,163.5 Z"/></g>
<g><path style="opacity:1" fill="#ef3f30" d="M 49.5,161.5 C 51.9272,162.279 51.9272,163.446 49.5,165C 51.5868,164.782 53.5868,164.949 55.5,165.5C 54.3112,166.429 52.9778,166.762 51.5,166.5C 51.7852,168.288 51.4519,169.955 50.5,171.5C 49.6919,171.192 49.0253,170.692 48.5,170C 49.731,168.817 49.731,167.651 48.5,166.5C 47.8333,167.167 47.1667,167.833 46.5,168.5C 46.1667,168.167 45.8333,167.833 45.5,167.5C 46.4671,165.21 47.8004,163.21 49.5,161.5 Z"/></g>
<g><path style="opacity:1" fill="#fca69d" d="M 95.5,160.5 C 96.6935,160.97 97.3601,161.97 97.5,163.5C 97.1667,164.5 96.8333,165.5 96.5,166.5C 95.5344,164.604 95.2011,162.604 95.5,160.5 Z"/></g>
<g><path style="opacity:0.013" fill="#fe0000" d="M 30.5,168.5 C 31.1667,168.5 31.5,168.833 31.5,169.5C 31.44,170.043 31.1067,170.376 30.5,170.5C 29.2267,169.743 29.2267,169.077 30.5,168.5 Z"/></g>
<g><path style="opacity:1" fill="#ed2b1f" d="M 155.5,165.5 C 156.983,167.094 158.483,168.76 160,170.5C 160.688,171.332 160.521,171.998 159.5,172.5C 157.96,170.613 156.293,168.78 154.5,167C 155.056,166.617 155.389,166.117 155.5,165.5 Z"/></g>
<g><path style="opacity:0.004" fill="#fe0000" d="M 181.5,168.5 C 181.833,168.5 182.167,168.5 182.5,168.5C 182.315,169.17 181.981,169.17 181.5,168.5 Z"/></g>
<g><path style="opacity:0.008" fill="#fe0000" d="M 180.5,169.5 C 180.833,169.5 181.167,169.5 181.5,169.5C 181.315,170.17 180.981,170.17 180.5,169.5 Z"/></g>
<g><path style="opacity:1" fill="#ef392b" d="M 56.5,166.5 C 59.4827,167.47 61.1493,169.137 61.5,171.5C 60.5,170.833 59.5,170.167 58.5,169.5C 57.2888,170.274 57.2888,171.107 58.5,172C 54.6427,171.924 54.6427,173.258 58.5,176C 55.8341,176.162 53.8341,174.995 52.5,172.5C 54.2516,170.754 55.5849,168.754 56.5,166.5 Z"/></g>
<g><path style="opacity:0.008" fill="#fe0000" d="M 179.5,170.5 C 179.833,170.5 180.167,170.5 180.5,170.5C 180.315,171.17 179.981,171.17 179.5,170.5 Z"/></g>
<g><path style="opacity:0.008" fill="#fe0000" d="M 178.5,171.5 C 178.833,171.5 179.167,171.5 179.5,171.5C 179.315,172.17 178.981,172.17 178.5,171.5 Z"/></g>
<g><path style="opacity:1" fill="#f14332" d="M 146.5,171.5 C 149.655,171.984 151.988,173.651 153.5,176.5C 152.34,176.437 151.006,176.77 149.5,177.5C 148.749,178.376 148.249,179.376 148,180.5C 146.482,177.451 145.982,174.451 146.5,171.5 Z"/></g>
<g><path style="opacity:0.008" fill="#fe0000" d="M 177.5,172.5 C 177.833,172.5 178.167,172.5 178.5,172.5C 178.315,173.17 177.981,173.17 177.5,172.5 Z"/></g>
<g><path style="opacity:0.008" fill="#fe0000" d="M 176.5,173.5 C 176.833,173.5 177.167,173.5 177.5,173.5C 177.315,174.17 176.981,174.17 176.5,173.5 Z"/></g>
<g><path style="opacity:0.016" fill="#fe0000" d="M 175.5,174.5 C 175.833,174.5 176.167,174.5 176.5,174.5C 176.315,175.17 175.981,175.17 175.5,174.5 Z"/></g>
<g><path style="opacity:0.012" fill="#fe5554" d="M 174.5,175.5 C 174.833,175.5 175.167,175.5 175.5,175.5C 175.315,176.17 174.981,176.17 174.5,175.5 Z"/></g>
<g><path style="opacity:0.004" fill="#fe0000" d="M 173.5,176.5 C 173.833,176.5 174.167,176.5 174.5,176.5C 174.315,177.17 173.981,177.17 173.5,176.5 Z"/></g>
<g><path style="opacity:1" fill="#f14535" d="M 66.5,173.5 C 75.3168,175.815 75.3168,177.815 66.5,179.5C 67.8333,180.5 69.1667,181.5 70.5,182.5C 67.9676,182.931 65.6343,182.098 63.5,180C 64.914,178.007 65.914,175.84 66.5,173.5 Z"/></g>
<g><path style="opacity:1" fill="#ee3829" d="M 141.5,174.5 C 144.241,176.627 145.241,179.294 144.5,182.5C 143.086,181.376 141.586,180.376 140,179.5C 140.409,181.225 140.242,182.892 139.5,184.5C 137.929,182.029 136.929,179.363 136.5,176.5C 138.484,176.383 140.15,177.05 141.5,178.5C 142.292,177.3 142.292,175.967 141.5,174.5 Z"/></g>
<g><path style="opacity:0.008" fill="#fe0000" d="M 172.5,177.5 C 172.833,177.5 173.167,177.5 173.5,177.5C 173.315,178.17 172.981,178.17 172.5,177.5 Z"/></g>
<g><path style="opacity:0.004" fill="#fe0000" d="M 171.5,178.5 C 171.833,178.5 172.167,178.5 172.5,178.5C 172.315,179.17 171.981,179.17 171.5,178.5 Z"/></g>
<g><path style="opacity:0.004" fill="#efaa90" d="M 169.5,179.5 C 170.167,179.5 170.833,179.5 171.5,179.5C 171.027,180.906 170.027,181.573 168.5,181.5C 168.5,181.167 168.5,180.833 168.5,180.5C 169.167,180.5 169.5,180.167 169.5,179.5 Z"/></g>
<g><path style="opacity:0.012" fill="#ff6c52" d="M 44.5,181.5 C 45.1667,181.5 45.5,181.833 45.5,182.5C 44.5029,183.713 43.5029,183.546 42.5,182C 43.0944,181.536 43.7611,181.369 44.5,181.5 Z"/></g>
<g><path style="opacity:1" fill="#ef3a2c" d="M 86.5,181.5 C 92.704,181.314 94.0374,183.814 90.5,189C 84.4034,189.147 83.0701,186.647 86.5,181.5 Z"/></g>
<g><path style="opacity:0.016" fill="#fe0000" d="M 167.5,181.5 C 167.833,181.5 168.167,181.5 168.5,181.5C 168.315,182.17 167.981,182.17 167.5,181.5 Z"/></g>
<g><path style="opacity:1" fill="#ed2e22" d="M 132.5,178.5 C 134.363,179.967 135.696,181.967 136.5,184.5C 136.167,184.833 135.833,185.167 135.5,185.5C 133.918,183.423 132.918,181.09 132.5,178.5 Z"/></g>
<g><path style="opacity:0.012" fill="#fe5554" d="M 166.5,182.5 C 166.833,182.5 167.167,182.5 167.5,182.5C 167.315,183.17 166.981,183.17 166.5,182.5 Z"/></g>
<g><path style="opacity:1" fill="#f04030" d="M 75.5,177.5 C 76.4959,177.414 77.3292,177.748 78,178.5C 78.8184,181.227 78.6517,183.894 77.5,186.5C 76.7132,185.758 76.0465,184.925 75.5,184C 74.0494,184.263 72.7161,184.096 71.5,183.5C 73.2776,181.736 74.6109,179.736 75.5,177.5 Z"/></g>
<g><path style="opacity:1" fill="#fee2df" d="M 87.5,183.5 C 88.5,183.5 89.5,183.5 90.5,183.5C 90.5,184.833 90.5,186.167 90.5,187.5C 87.0464,187.733 86.0464,186.4 87.5,183.5 Z"/></g>
<g><path style="opacity:1" fill="#f1493b" d="M 125.5,180.5 C 129.012,181.005 131.345,183.005 132.5,186.5C 131.467,187.452 130.3,187.452 129,186.5C 127.739,186.759 126.739,187.426 126,188.5C 125.503,185.854 125.336,183.187 125.5,180.5 Z"/></g>
<g><path style="opacity:0.008" fill="#fe8000" d="M 165.5,183.5 C 165.833,183.5 166.167,183.5 166.5,183.5C 166.315,184.17 165.981,184.17 165.5,183.5 Z"/></g>
<g><path style="opacity:0.004" fill="#fe0000" d="M 47.5,184.5 C 46.8333,185.167 46.8333,185.167 47.5,184.5 Z"/></g>
<g><path style="opacity:1" fill="#ed2e22" d="M 120.5,182.5 C 122.332,183.14 122.665,184.14 121.5,185.5C 120.614,184.675 120.281,183.675 120.5,182.5 Z"/></g>
<g><path style="opacity:0.004" fill="#fe0000" d="M 163.5,184.5 C 164.167,184.5 164.833,184.5 165.5,184.5C 164.833,185.833 164.167,185.833 163.5,184.5 Z"/></g>
<g><path style="opacity:1" fill="#f04435" d="M 99.5,182.5 C 101.045,183.23 101.878,184.563 102,186.5C 103.353,185.315 104.52,183.981 105.5,182.5C 105.833,182.833 106.167,183.167 106.5,183.5C 104.078,185.726 104.078,188.06 106.5,190.5C 105.675,191.386 104.675,191.719 103.5,191.5C 103.367,188.104 102.367,187.771 100.5,190.5C 99.52,187.914 99.1866,185.247 99.5,182.5 Z"/></g>
<g><path style="opacity:0.012" fill="#fe5554" d="M 160.5,186.5 C 161.833,187.167 161.833,187.167 160.5,186.5 Z"/></g>
<g><path style="opacity:0.008" fill="#fe807f" d="M 159.5,187.5 C 159.833,187.5 160.167,187.5 160.5,187.5C 160.315,188.17 159.981,188.17 159.5,187.5 Z"/></g>
<g><path style="opacity:0.006" fill="#e23326" d="M 54.5,188.5 C 55.1667,188.5 55.5,188.833 55.5,189.5C 54.5029,190.713 53.5029,190.546 52.5,189C 53.0944,188.536 53.7611,188.369 54.5,188.5 Z"/></g>
<g><path style="opacity:1" fill="#f14636" d="M 109.5,182.5 C 110.822,182.33 111.989,182.663 113,183.5C 114.523,185.83 115.023,188.164 114.5,190.5C 112.261,188.88 110.427,189.213 109,191.5C 108.699,188.493 108.865,185.493 109.5,182.5 Z"/></g>
<g><path style="opacity:0.008" fill="#a06c65" d="M 157.5,189.5 C 157.5,189.167 157.5,188.833 157.5,188.5C 158.167,188.5 158.833,188.5 159.5,188.5C 159.158,189.338 158.492,189.672 157.5,189.5 Z"/></g>
<g><path style="opacity:0.012" fill="#fe5554" d="M 156.5,189.5 C 156.833,189.5 157.167,189.5 157.5,189.5C 157.5,189.833 157.5,190.167 157.5,190.5C 157.167,190.167 156.833,189.833 156.5,189.5 Z"/></g>
<g><path style="opacity:0.004" fill="#ffc1f7" d="M 154.5,191.5 C 154.5,191.167 154.5,190.833 154.5,190.5C 155.167,190.5 155.833,190.5 156.5,190.5C 156.158,191.338 155.492,191.672 154.5,191.5 Z"/></g>
<g><path style="opacity:0.004" fill="#fe0000" d="M 58.5,191.5 C 57.8333,192.167 57.8333,192.167 58.5,191.5 Z"/></g>
<g><path style="opacity:0.004" fill="#fe0000" d="M 154.5,191.5 C 153.833,192.167 153.833,192.167 154.5,191.5 Z"/></g>
<g><path style="opacity:0.012" fill="#fe5554" d="M 171.5,193.5 C 171.369,192.761 171.536,192.094 172,191.5C 172.692,192.437 172.525,193.103 171.5,193.5 Z"/></g>
<g><path style="opacity:0.494" fill="#f7796c" d="M 157.5,190.5 C 160.788,190.073 163.788,190.74 166.5,192.5C 167.5,191.833 168.5,191.167 169.5,190.5C 170.176,191.602 170.842,192.602 171.5,193.5C 171.769,195.429 171.269,197.095 170,198.5C 169.333,197.833 168.667,197.167 168,196.5C 165.613,197.913 163.28,198.58 161,198.5C 159.956,197.377 159.29,196.044 159,194.5C 158.667,195.167 158.333,195.833 158,196.5C 157.505,194.527 157.338,192.527 157.5,190.5 Z"/></g>
<g><path style="opacity:0.004" fill="#fe0000" d="M 172.5,195.5 C 173.833,196.167 173.833,196.167 172.5,195.5 Z"/></g>
<g><path style="opacity:0.008" fill="#e04e43" d="M 72.5,197.5 C 72.5,197.833 72.5,198.167 72.5,198.5C 68.5,198.167 68.5,197.833 72.5,197.5 Z"/></g>
<g><path style="opacity:0.008" fill="#ff6559" d="M 139.5,198.5 C 139.842,197.662 140.508,197.328 141.5,197.5C 141.158,198.338 140.492,198.672 139.5,198.5 Z"/></g>
<g><path style="opacity:0.008" fill="#a80003" d="M 72.5,198.5 C 73.2389,198.369 73.9056,198.536 74.5,199C 73.5632,199.692 72.8966,199.525 72.5,198.5 Z"/></g>
<g><path style="opacity:0.004" fill="#fe0000" d="M 139.5,198.5 C 139.103,199.525 138.437,199.692 137.5,199C 138.094,198.536 138.761,198.369 139.5,198.5 Z"/></g>
<g><path style="opacity:0.004" fill="#fe0000" d="M 166.5,198.5 C 167.833,199.167 167.833,199.167 166.5,198.5 Z"/></g>
<g><path style="opacity:0.004" fill="#fe0000" d="M 76.5,199.5 C 77.8333,200.167 77.8333,200.167 76.5,199.5 Z"/></g>
<g><path style="opacity:0.004" fill="#000000" d="M 134.5,199.5 C 135.833,200.167 135.833,200.167 134.5,199.5 Z"/></g>
<g><path style="opacity:0.016" fill="#f34a45" d="M 123.5,202.5 C 123.5,202.167 123.5,201.833 123.5,201.5C 124.833,201.5 126.167,201.5 127.5,201.5C 126.432,202.434 125.099,202.768 123.5,202.5 Z"/></g>
<g><path style="opacity:0.016" fill="#f6584e" d="M 88.5,201.5 C 89.9187,202.451 91.5853,202.784 93.5,202.5C 93.5,202.833 93.5,203.167 93.5,203.5C 91.5,203.5 89.5,203.5 87.5,203.5C 86.3915,202.71 85.0581,202.21 83.5,202C 85.1341,201.506 86.8008,201.34 88.5,201.5 Z"/></g>
<g><path style="opacity:0.006" fill="#f83223" d="M 118.5,203.5 C 118.5,203.167 118.5,202.833 118.5,202.5C 120.167,202.5 121.833,202.5 123.5,202.5C 123.5,202.833 123.5,203.167 123.5,203.5C 121.833,203.5 120.167,203.5 118.5,203.5 Z"/></g>
</svg>
