<?xml version="1.0" encoding="UTF-8"?>
<!DOCTYPE svg PUBLIC "-//W3C//DTD SVG 1.1//EN" "http://www.w3.org/Graphics/SVG/1.1/DTD/svg11.dtd">
<svg xmlns="http://www.w3.org/2000/svg" version="1.1" width="225px" height="225px" style="shape-rendering:geometricPrecision; text-rendering:geometricPrecision; image-rendering:optimizeQuality; fill-rule:evenodd; clip-rule:evenodd" xmlns:xlink="http://www.w3.org/1999/xlink">
<g><path style="opacity:0.958" fill="#f3f3f3" d="M 99.5,-0.5 C 107.833,-0.5 116.167,-0.5 124.5,-0.5C 181.291,9.95732 214.624,43.624 224.5,100.5C 224.5,108.167 224.5,115.833 224.5,123.5C 214.5,180.833 180.833,214.5 123.5,224.5C 115.833,224.5 108.167,224.5 100.5,224.5C 43.1647,214.498 9.49805,180.831 -0.5,123.5C -0.5,115.5 -0.5,107.5 -0.5,99.5C 9.84236,43.1576 43.1757,9.82431 99.5,-0.5 Z"/></g>
<g><path style="opacity:1" fill="#222325" d="M 106.5,1.5 C 165.809,3.37887 203.643,32.7122 220,89.5C 227.31,135.928 212.476,173.428 175.5,202C 133.141,229.33 90.8079,229.33 48.5,202C 10.3179,172.131 -4.18205,133.298 5,85.5C 20.9092,35.7511 54.7425,7.75108 106.5,1.5 Z"/></g>
<g><path style="opacity:1" fill="#e9e9e9" d="M 105.5,3.5 C 154.988,3.31027 190.488,25.3103 212,69.5C 227.427,111.524 221.094,149.857 193,184.5C 164.439,213.606 129.939,224.773 89.5,218C 42.4803,205.98 14.3136,176.147 5,128.5C -0.197521,77.7239 19.3025,39.8906 63.5,15C 76.9495,8.64065 90.9495,4.80732 105.5,3.5 Z"/></g>
<g><path style="opacity:1" fill="#2a2a2b" d="M 67.5,15.5 C 68.3764,15.3691 69.0431,15.7025 69.5,16.5C 68.5,17.1667 67.5,17.8333 66.5,18.5C 67.5804,20.9962 68.9138,23.3295 70.5,25.5C 69.7579,26.2868 68.9246,26.9535 68,27.5C 67.3942,24.2873 66.2275,21.2873 64.5,18.5C 65.3398,17.265 66.3398,16.265 67.5,15.5 Z"/></g>
<g><path style="opacity:1" fill="#2f3030" d="M 149.5,13.5 C 152.712,13.1058 155.046,14.2724 156.5,17C 156.333,17.5 156.167,18 156,18.5C 154.695,15.6936 152.528,14.8603 149.5,16C 148.652,18.6708 148.319,21.1708 148.5,23.5C 147.009,22.6519 146.342,21.3186 146.5,19.5C 146.628,17.0452 147.628,15.0452 149.5,13.5 Z"/></g>
<g><path style="opacity:1" fill="#19191a" d="M 142.5,10.5 C 143.473,10.9867 144.473,11.4867 145.5,12C 144.071,14.6897 143.071,17.5231 142.5,20.5C 141.448,20.6495 140.448,20.4828 139.5,20C 141.404,17.1226 142.404,13.9559 142.5,10.5 Z"/></g>
<g><path style="opacity:1" fill="#232324" d="M 74.5,13.5 C 74.6294,16.7659 75.6294,19.7659 77.5,22.5C 77.1667,22.8333 76.8333,23.1667 76.5,23.5C 74.6439,20.5914 72.9773,17.5914 71.5,14.5C 72.325,13.6143 73.325,13.281 74.5,13.5 Z"/></g>
<g><path style="opacity:1" fill="#17191b" d="M 120.5,6.5 C 121.5,6.5 122.5,6.5 123.5,6.5C 124.011,9.02843 124.678,11.5284 125.5,14C 125.167,14.8333 124.833,15.6667 124.5,16.5C 123.695,12.8999 122.362,9.56658 120.5,6.5 Z"/></g>
<g><path style="opacity:1" fill="#353638" d="M 74.5,13.5 C 76.0348,12.2121 77.7015,12.2121 79.5,13.5C 80.3302,15.1349 80.4969,16.8016 80,18.5C 81.3988,19.2266 82.8988,19.7266 84.5,20C 83.4071,21.3654 82.0738,21.6987 80.5,21C 79.1667,20 77.8333,19 76.5,18C 79.3185,15.1308 78.6518,13.6308 74.5,13.5 Z"/></g>
<g><path style="opacity:1" fill="#2e3031" d="M 85.5,8.5 C 92.1633,7.33258 94.9966,9.99924 94,16.5C 90.952,20.0095 87.6187,20.3428 84,17.5C 81.7879,14.0213 82.2879,11.0213 85.5,8.5 Z"/></g>
<g><path style="opacity:1" fill="#333435" d="M 107.5,6.5 C 109.176,7.18342 109.843,8.51676 109.5,10.5C 111.167,10.5 112.833,10.5 114.5,10.5C 114.5,9.16667 114.5,7.83333 114.5,6.5C 115.552,6.35055 116.552,6.51722 117.5,7C 116.167,10 116.167,13 117.5,16C 116.552,16.4828 115.552,16.6495 114.5,16.5C 114.5,14.8333 114.5,13.1667 114.5,11.5C 112.833,11.5 111.167,11.5 109.5,11.5C 109.286,13.1439 109.62,14.6439 110.5,16C 109.167,16.6667 107.833,16.6667 106.5,16C 107.451,12.9433 107.784,9.77659 107.5,6.5 Z"/></g>
<g><path style="opacity:1" fill="#3f4041" d="M 133.5,7.5 C 135.757,7.96166 137.757,8.96166 139.5,10.5C 137.634,10.0981 135.634,10.0981 133.5,10.5C 135.626,11.9008 137.293,13.7341 138.5,16C 136.555,19.9842 133.888,20.4842 130.5,17.5C 130.833,17.1667 131.167,16.8333 131.5,16.5C 133.332,18.9572 134.999,18.9572 136.5,16.5C 134.769,14.6553 133.102,12.822 131.5,11C 131.978,9.69736 132.645,8.53069 133.5,7.5 Z"/></g>
<g><path style="opacity:1" fill="#f1f1f2" d="M 86.5,9.5 C 92.6426,10.0262 93.9759,12.8595 90.5,18C 87.7825,19.033 85.9492,18.1997 85,15.5C 84.2516,13.1599 84.7516,11.1599 86.5,9.5 Z"/></g>
<g><path style="opacity:1" fill="#3d3d3e" d="M 98.5,6.5 C 103.123,5.40815 104.956,7.07482 104,11.5C 102.989,12.3366 101.822,12.67 100.5,12.5C 100.5,14.1667 100.5,15.8333 100.5,17.5C 99.5,17.5 98.5,17.5 97.5,17.5C 97.7839,14.2234 97.4505,11.0567 96.5,8C 97.4158,7.72158 98.0825,7.22158 98.5,6.5 Z"/></g>
<g><path style="opacity:1" fill="#f4f3f3" d="M 99.5,7.5 C 100.5,7.5 101.5,7.5 102.5,7.5C 102.5,8.83333 102.5,10.1667 102.5,11.5C 101.5,11.5 100.5,11.5 99.5,11.5C 99.5,10.1667 99.5,8.83333 99.5,7.5 Z"/></g>
<g><path style="opacity:1" fill="#777c82" d="M 55.5,25.5 C 54.6618,25.1583 54.3284,24.4916 54.5,23.5C 56.2276,21.0762 58.2276,20.9096 60.5,23C 59.451,23.4922 58.451,23.3256 57.5,22.5C 56.0815,23.0047 55.4148,24.0047 55.5,25.5 Z"/></g>
<g><path style="opacity:1" fill="#161719" d="M 162.5,19.5 C 163.652,23.0535 163.485,26.7202 162,30.5C 161.5,30 161,29.5 160.5,29C 161.432,25.9146 162.099,22.7479 162.5,19.5 Z"/></g>
<g><path style="opacity:1" fill="#191a1c" d="M 169.5,23.5 C 170.756,23.4614 171.756,23.9614 172.5,25C 164.74,35.2899 163.74,34.7899 169.5,23.5 Z"/></g>
<g><path style="opacity:1" fill="#121313" d="M 54.5,23.5 C 54.3284,24.4916 54.6618,25.1583 55.5,25.5C 58.1194,25.2317 60.6194,25.565 63,26.5C 63.7885,29.2871 63.2885,29.7871 61.5,28C 59.1667,27.6667 56.8333,27.3333 54.5,27C 53.2089,25.7083 53.2089,24.5417 54.5,23.5 Z"/></g>
<g><path style="opacity:1" fill="#1c1d1d" d="M 46.5,28.5 C 49.9396,30.0549 53.2729,31.8882 56.5,34C 55.9747,34.6924 55.3081,35.1924 54.5,35.5C 51.6892,33.1317 49.0225,30.7984 46.5,28.5 Z"/></g>
<g><path style="opacity:1" fill="#151617" d="M 179.5,34.5 C 181.199,34.3398 182.866,34.5065 184.5,35C 180.547,35.9527 178.381,38.4527 178,42.5C 177.109,39.5024 177.609,36.8357 179.5,34.5 Z"/></g>
<g><path style="opacity:1" fill="#787a7f" d="M 41.5,40.5 C 39.6064,39.9524 37.9397,38.9524 36.5,37.5C 38.7329,36.9839 40.3996,37.9839 41.5,40.5 Z"/></g>
<g><path style="opacity:1" fill="#242527" d="M 41.5,40.5 C 43.4459,41.2544 44.2793,42.5878 44,44.5C 40.9433,43.5495 37.7766,43.2161 34.5,43.5C 33.5,43.5 32.5,43.5 31.5,43.5C 31.6107,42.8826 31.944,42.3826 32.5,42C 35.6946,41.8195 38.6946,41.3195 41.5,40.5 Z"/></g>
<g><path style="opacity:1" fill="#181919" d="M 187.5,38.5 C 189.087,44.3887 186.754,46.5554 180.5,45C 184.641,44.6896 186.975,42.5229 187.5,38.5 Z"/></g>
<g><path style="opacity:1" fill="#1c1d20" d="M 191.5,43.5 C 192.376,43.3691 193.043,43.7025 193.5,44.5C 191.276,48.1038 188.276,49.7705 184.5,49.5C 187.461,48.2041 189.794,46.2041 191.5,43.5 Z"/></g>
<g><path style="opacity:1" fill="#909191" d="M 31.5,43.5 C 32.5,43.5 33.5,43.5 34.5,43.5C 35.8775,45.8745 37.8775,47.5412 40.5,48.5C 39.4787,50.188 38.1454,51.5213 36.5,52.5C 36.5,52.1667 36.5,51.8333 36.5,51.5C 36.8091,47.5964 34.8091,45.0964 30.5,44C 30.7284,43.6012 31.0618,43.4346 31.5,43.5 Z"/></g>
<g><path style="opacity:1" fill="#353637" d="M 194.5,46.5 C 196.273,47.3143 196.773,48.6476 196,50.5C 194.167,52.1667 192.333,53.8333 190.5,55.5C 187.919,54.3196 188.086,53.3196 191,52.5C 191.483,51.552 191.649,50.552 191.5,49.5C 192.5,49.5 193.5,49.5 194.5,49.5C 194.5,48.5 194.5,47.5 194.5,46.5 Z"/></g>
<g><path style="opacity:1" fill="#131416" d="M 36.5,51.5 C 36.5,51.8333 36.5,52.1667 36.5,52.5C 33.1237,52.9912 29.7903,52.1578 26.5,50C 29.8776,49.9525 33.2109,50.4525 36.5,51.5 Z"/></g>
<g><path style="opacity:1" fill="#131417" d="M 197.5,52.5 C 198.239,52.369 198.906,52.5357 199.5,53C 198.718,55.7405 198.218,58.5738 198,61.5C 196.612,62.5536 195.112,62.7203 193.5,62C 194.448,61.5172 195.448,61.3505 196.5,61.5C 196.264,58.3915 196.597,55.3915 197.5,52.5 Z"/></g>
<g><path style="opacity:1" fill="#181919" d="M 21.5,56.5 C 24.8057,57.8202 27.8057,59.6535 30.5,62C 30,62.5 29.5,63 29,63.5C 26.9205,61.8767 24.7538,60.3767 22.5,59C 21.7476,58.3292 21.4142,57.4959 21.5,56.5 Z"/></g>
<g><path style="opacity:1" fill="#171717" d="M 203.5,61.5 C 205.337,61.6395 205.67,62.3061 204.5,63.5C 194.25,67.5293 193.917,66.8627 203.5,61.5 Z"/></g>
<g><path style="opacity:1" fill="#1d1e1f" d="M 24.5,65.5 C 25.7562,65.4614 26.7562,65.9614 27.5,67C 22.9847,67.8816 18.6514,68.8816 14.5,70C 17.5517,67.8273 20.885,66.3273 24.5,65.5 Z"/></g>
<g><path style="opacity:1" fill="#3e4145" d="M 198.5,69.5 C 199.627,70.1217 200.627,70.955 201.5,72C 199.511,72.5192 198.511,71.6859 198.5,69.5 Z"/></g>
<g><path style="opacity:1" fill="#202021" d="M 208.5,71.5 C 210.549,71.7058 210.883,72.5391 209.5,74C 206.898,74.9771 204.398,76.1437 202,77.5C 201.308,76.9747 200.808,76.3081 200.5,75.5C 203.502,74.6659 206.168,73.3325 208.5,71.5 Z"/></g>
<g><path style="opacity:1" fill="#1e1f21" d="M 210.5,76.5 C 211.404,77.209 211.737,78.209 211.5,79.5C 209.856,79.7135 208.356,79.3802 207,78.5C 205.748,80.0009 204.748,81.6675 204,83.5C 203.333,82.1667 203.333,80.8333 204,79.5C 206.045,78.0735 208.212,77.0735 210.5,76.5 Z"/></g>
<g><path style="opacity:1" fill="#363738" d="M 13.5,74.5 C 20.6929,73.8467 23.1929,76.8467 21,83.5C 18.2709,86.8639 15.2709,87.1972 12,84.5C 11.0181,83.2411 10.6848,81.9078 11,80.5C 13.2103,83.2896 16.0437,84.123 19.5,83C 20.7596,81.1862 20.7596,79.3529 19.5,77.5C 17.2241,76.7868 14.8907,76.2868 12.5,76C 13.056,75.6174 13.3893,75.1174 13.5,74.5 Z"/></g>
<g><path style="opacity:1" fill="#242527" d="M 212.5,81.5 C 214.176,82.1834 214.843,83.5168 214.5,85.5C 211.619,86.2737 208.952,87.6071 206.5,89.5C 206.956,87.1726 208.623,85.3393 211.5,84C 212.252,83.3292 212.586,82.4959 212.5,81.5 Z"/></g>
<g><path style="opacity:1" fill="#2d2d2d" d="M 14.5,87.5 C 15.8221,87.33 16.9887,87.6634 18,88.5C 18.6667,90.5 18.6667,92.5 18,94.5C 17.2825,95.4506 16.4491,95.6172 15.5,95C 17.5152,93.4447 17.8485,91.6114 16.5,89.5C 14.6841,90.8149 13.0175,92.3149 11.5,94C 10.365,94.7494 9.36495,94.5827 8.5,93.5C 10.8545,91.8122 12.8545,89.8122 14.5,87.5 Z"/></g>
<g><path style="opacity:1" fill="#9c9a99" d="M 217.5,97.5 C 216.041,97.4326 214.708,97.7659 213.5,98.5C 211.333,97.3589 209,96.3589 206.5,95.5C 207,95.1667 207.5,94.8333 208,94.5C 211.356,95.2899 214.523,96.2899 217.5,97.5 Z"/></g>
<g><path style="opacity:1" fill="#3b3c3d" d="M 6.5,96.5 C 9.58583,97.9853 12.9192,98.9853 16.5,99.5C 14.9547,100.452 13.288,100.785 11.5,100.5C 11.5,102.167 11.5,103.833 11.5,105.5C 13.1667,105.5 14.8333,105.5 16.5,105.5C 16.6567,106.873 16.49,108.207 16,109.5C 13.1737,107.66 10.0071,106.994 6.5,107.5C 6.5,106.5 6.5,105.5 6.5,104.5C 7.83333,104.5 9.16667,104.5 10.5,104.5C 10.5,103.167 10.5,101.833 10.5,100.5C 9.16667,100.5 7.83333,100.5 6.5,100.5C 6.5,99.1667 6.5,97.8333 6.5,96.5 Z"/></g>
<g><path style="opacity:1" fill="#1e1f20" d="M 217.5,97.5 C 214.651,99.8502 211.485,101.85 208,103.5C 207.517,102.552 207.351,101.552 207.5,100.5C 209.685,100.296 211.685,99.6298 213.5,98.5C 214.708,97.7659 216.041,97.4326 217.5,97.5 Z"/></g>
<g><path style="opacity:1" fill="#909090" d="M 218.5,108.5 C 214.671,107.931 211.337,108.598 208.5,110.5C 207.493,110.548 207.16,109.548 207.5,107.5C 210.85,107.665 214.183,107.498 217.5,107C 216.289,106.107 216.289,105.274 217.5,104.5C 218.429,105.689 218.762,107.022 218.5,108.5 Z"/></g>
<g><path style="opacity:1" fill="#404245" d="M 218.5,108.5 C 218.785,110.288 218.452,111.955 217.5,113.5C 216.494,113.062 216.494,112.396 217.5,111.5C 214.572,110.516 211.572,110.183 208.5,110.5C 211.337,108.598 214.671,107.931 218.5,108.5 Z"/></g>
<g><path style="opacity:1" fill="#7b7977" d="M 6.5,113.5 C 6.32842,114.492 6.66175,115.158 7.5,115.5C 7.33003,116.822 7.66337,117.989 8.5,119C 7.55198,119.483 6.55198,119.649 5.5,119.5C 5.5,116.167 5.5,112.833 5.5,109.5C 6.55198,109.351 7.55198,109.517 8.5,110C 7.17723,110.816 6.51056,111.983 6.5,113.5 Z"/></g>
<g><path style="opacity:1" fill="#0b0c0e" d="M 6.5,113.5 C 9.57186,113.183 12.5719,113.516 15.5,114.5C 12.9135,115.48 10.2469,115.813 7.5,115.5C 6.66175,115.158 6.32842,114.492 6.5,113.5 Z"/></g>
<g><path style="opacity:1" fill="#2e2e2f" d="M 210.5,114.5 C 213.599,114.092 215.933,115.259 217.5,118C 214.561,117.868 211.561,117.535 208.5,117C 209.381,116.292 210.047,115.458 210.5,114.5 Z"/></g>
<g><path style="opacity:1" fill="#313132" d="M 6.5,121.5 C 9.89838,121.18 13.2317,121.513 16.5,122.5C 13.5027,123.248 10.5027,123.915 7.5,124.5C 6.61432,123.675 6.28099,122.675 6.5,121.5 Z"/></g>
<g><path style="opacity:1" fill="#1f2022" d="M 216.5,122.5 C 217.645,123.793 217.311,124.959 215.5,126C 213.5,126.667 211.5,126.667 209.5,126C 209.043,125.586 208.709,125.086 208.5,124.5C 210.57,124.448 212.903,124.281 215.5,124C 216.056,123.617 216.389,123.117 216.5,122.5 Z"/></g>
<g><path style="opacity:1" fill="#232425" d="M 16.5,125.5 C 17.4345,126.568 17.7678,127.901 17.5,129.5C 14.4721,129.339 11.6388,130.006 9,131.5C 8.5,131.167 8,130.833 7.5,130.5C 10.7463,129.049 13.7463,127.382 16.5,125.5 Z"/></g>
<g><path style="opacity:1" fill="#171b1d" d="M 103.5,18.5 C 154.517,18.0378 187.683,42.0378 203,90.5C 209.924,128.143 199.091,159.643 170.5,185C 133.484,211.001 95.8172,212.001 57.5,188C 22.8033,159.573 11.6367,123.74 24,80.5C 39.0225,44.9633 65.5225,24.2966 103.5,18.5 Z"/></g>
<g><path style="opacity:1" fill="#06b8ce" d="M 100.5,20.5 C 138.422,18.2927 168.256,32.626 190,63.5C 204.876,89.2276 207.542,116.228 198,144.5C 183.448,178.392 157.948,197.892 121.5,203C 73.4775,204.909 40.9775,183.409 24,138.5C 13.6404,92.072 28.4737,56.2386 68.5,31C 78.7798,25.9388 89.4465,22.4388 100.5,20.5 Z"/></g>
<g><path style="opacity:1" fill="#e2e52f" d="M 76.5,53.5 C 79.9909,55.1075 83.6576,56.1075 87.5,56.5C 86.5,57.1667 85.5,57.8333 84.5,58.5C 73.5353,54.0273 72.8686,55.0273 82.5,61.5C 83.1667,61.5 83.8333,61.5 84.5,61.5C 83.6971,62.4232 83.5304,63.4232 84,64.5C 87.0155,67.6828 90.1822,70.6828 93.5,73.5C 95.4998,70.9995 96.8331,68.1662 97.5,65C 96.079,63.3771 94.4124,62.2105 92.5,61.5C 93.4916,61.6716 94.1583,61.3382 94.5,60.5C 97.2672,62.1158 99.2672,61.4491 100.5,58.5C 101.338,58.8417 101.672,59.5084 101.5,60.5C 100.438,61.5754 100.438,62.5754 101.5,63.5C 104.188,64.5134 106.854,65.5134 109.5,66.5C 109.5,66.8333 109.5,67.1667 109.5,67.5C 108.833,67.5 108.5,67.8333 108.5,68.5C 105.965,67.6513 103.465,66.6513 101,65.5C 98.3003,67.9458 96.9669,70.9458 97,74.5C 99.6632,72.7511 102.497,71.4178 105.5,70.5C 105.842,71.3382 106.508,71.6716 107.5,71.5C 103.894,73.3029 100.227,75.1363 96.5,77C 101.037,81.3688 105.37,85.8688 109.5,90.5C 109.5,90.8333 109.5,91.1667 109.5,91.5C 109.5,91.8333 109.5,92.1667 109.5,92.5C 104.52,87.8551 99.5203,83.1884 94.5,78.5C 92.7295,83.035 90.7295,87.3683 88.5,91.5C 88.6716,90.5084 88.3382,89.8417 87.5,89.5C 89.2852,85.9544 90.4519,82.2877 91,78.5C 82.4835,80.5102 81.3168,84.5102 87.5,90.5C 86.5,91.5 85.5,92.5 84.5,93.5C 84.2459,89.5579 82.7459,86.2245 80,83.5C 76.7789,84.5276 73.6123,85.6942 70.5,87C 69.5769,89.0408 69.2436,91.2075 69.5,93.5C 75.2008,93.9243 80.8674,94.9243 86.5,96.5C 90.3125,95.2378 94.3125,94.5712 98.5,94.5C 102.874,94.8978 107.04,94.8978 111,94.5C 111.483,95.448 111.649,96.448 111.5,97.5C 105.912,101.417 100.912,106.084 96.5,111.5C 101.164,114.332 106.164,116.332 111.5,117.5C 110.909,118.151 110.243,118.818 109.5,119.5C 110.243,120.182 110.909,120.849 111.5,121.5C 107.554,122.315 103.887,123.815 100.5,126C 102.438,129.209 104.105,132.543 105.5,136C 107.473,136.495 109.473,136.662 111.5,136.5C 111.924,130.799 112.924,125.133 114.5,119.5C 113.238,115.687 112.571,111.687 112.5,107.5C 110.167,96.5 114.5,92.1667 125.5,94.5C 129.687,94.5712 133.687,95.2378 137.5,96.5C 138.183,96.1373 138.85,95.8039 139.5,95.5C 145.067,94.196 150.734,94.196 156.5,95.5C 156.238,96.9778 156.571,98.3112 157.5,99.5C 159.195,98.8256 160.862,98.1589 162.5,97.5C 162.842,98.3382 163.508,98.6716 164.5,98.5C 162.11,100.02 159.443,101.02 156.5,101.5C 156.337,103.857 156.503,106.19 157,108.5C 160.786,105.278 163.62,101.944 165.5,98.5C 167.709,97.0242 169.042,97.6909 169.5,100.5C 164.928,103.563 160.761,107.23 157,111.5C 156.181,117.681 156.347,123.681 157.5,129.5C 155.833,130.833 154.167,130.833 152.5,129.5C 153.805,127.603 154.471,125.269 154.5,122.5C 155.035,114.603 153.368,113.77 149.5,120C 150.077,121.9 150.744,123.733 151.5,125.5C 150.662,125.842 150.328,126.508 150.5,127.5C 149.625,125.432 148.459,123.432 147,121.5C 145.978,122.354 145.145,123.354 144.5,124.5C 146.259,127.266 148.593,129.266 151.5,130.5C 150.5,131.5 149.5,132.5 148.5,133.5C 147.266,130.593 145.266,128.259 142.5,126.5C 141.167,127.167 140.167,128.167 139.5,129.5C 142.25,130.875 144.916,132.208 147.5,133.5C 146.508,133.328 145.842,133.662 145.5,134.5C 142.989,133.606 140.489,132.606 138,131.5C 135.684,132.65 133.85,134.317 132.5,136.5C 137.5,137.167 142.5,137.833 147.5,138.5C 141.491,138.334 135.491,138.501 129.5,139C 125.964,142.704 122.298,146.204 118.5,149.5C 117.325,149.719 116.325,149.386 115.5,148.5C 115.624,147.893 115.957,147.56 116.5,147.5C 119.944,145.62 123.278,142.786 126.5,139C 123.961,138.204 121.628,138.371 119.5,139.5C 118.833,139.5 118.167,139.5 117.5,139.5C 116.432,138.566 115.099,138.232 113.5,138.5C 113.5,141.5 113.5,144.5 113.5,147.5C 112.909,143.909 112.243,140.909 111.5,138.5C 109.712,138.215 108.045,138.548 106.5,139.5C 107.702,141.78 108.702,144.114 109.5,146.5C 108.842,147.398 108.176,148.398 107.5,149.5C 106.893,149.376 106.56,149.043 106.5,148.5C 105.833,148.5 105.5,148.833 105.5,149.5C 101.702,146.204 98.0357,142.704 94.5,139C 88.5092,138.501 82.5092,138.334 76.5,138.5C 81.5,137.833 86.5,137.167 91.5,136.5C 90.1667,134.833 88.8333,133.167 87.5,131.5C 86.5,130.5 85.5,129.5 84.5,128.5C 83.399,127.2 82.0657,126.7 80.5,127C 78.2101,128.777 76.5434,130.944 75.5,133.5C 74.548,132.548 73.548,131.548 72.5,130.5C 72.6236,129.893 72.9569,129.56 73.5,129.5C 75.7996,128.934 77.7996,127.267 79.5,124.5C 78.8551,123.354 78.0217,122.354 77,121.5C 75.5415,123.432 74.3748,125.432 73.5,127.5C 73.5,126.833 73.1667,126.5 72.5,126.5C 75.7881,121.651 74.9547,117.651 70,114.5C 69.8333,117 69.6667,119.5 69.5,122C 69.5248,124.929 70.1914,127.429 71.5,129.5C 69.4855,130.924 67.1522,131.59 64.5,131.5C 61.1177,121.734 57.4511,112.067 53.5,102.5C 54.0431,102.44 54.3764,102.107 54.5,101.5C 52.5767,100.692 50.5767,100.192 48.5,100C 49.9174,97.1738 51.4174,97.0072 53,99.5C 55.5562,98.7809 56.7229,97.1142 56.5,94.5C 60.9489,94.8359 64.6155,94.5026 67.5,93.5C 67.7852,91.712 67.4519,90.0453 66.5,88.5C 63.3576,89.7201 60.691,91.3867 58.5,93.5C 56.9717,91.7213 55.6384,89.7213 54.5,87.5C 59.0719,84.4367 63.2385,80.77 67,76.5C 67.4995,70.5092 67.6662,64.5092 67.5,58.5C 68.1667,58.5 68.8333,58.5 69.5,58.5C 69.3341,63.5111 69.5007,68.5111 70,73.5C 71.892,71.9458 73.392,70.1124 74.5,68C 73.5912,65.1054 72.5912,62.2721 71.5,59.5C 72.1667,59.5 72.5,59.1667 72.5,58.5C 73.8952,61.1418 75.3952,63.8085 77,66.5C 78.0217,65.646 78.8551,64.646 79.5,63.5C 77.7407,60.7341 75.4073,58.7341 72.5,57.5C 73.9302,55.8452 74.7635,53.8452 75,51.5C 75.2784,52.4158 75.7784,53.0825 76.5,53.5 Z"/></g>
<g><path style="opacity:1" fill="#33bdc6" d="M 111.5,121.5 C 111.5,126.5 111.5,131.5 111.5,136.5C 109.473,136.662 107.473,136.495 105.5,136C 104.105,132.543 102.438,129.209 100.5,126C 103.887,123.815 107.554,122.315 111.5,121.5 Z"/></g>
<g><path style="opacity:1" fill="#2fbfca" d="M 73.5,129.5 C 73.5,128.833 73.5,128.167 73.5,127.5C 74.3748,125.432 75.5415,123.432 77,121.5C 78.0217,122.354 78.8551,123.354 79.5,124.5C 77.7996,127.267 75.7996,128.934 73.5,129.5 Z"/></g>
<g><path style="opacity:1" fill="#2dbec9" d="M 96.5,114.5 C 100.487,116.159 104.487,117.826 108.5,119.5C 105.842,120.829 103.176,122.162 100.5,123.5C 98.7807,120.677 97.4473,117.677 96.5,114.5 Z"/></g>
<g><path style="opacity:1" fill="#1cbccd" d="M 92.5,114.5 C 93.7498,114.577 94.5831,115.244 95,116.5C 96.3141,119.089 96.9808,121.756 97,124.5C 93.906,125.962 90.7394,127.296 87.5,128.5C 85.8333,127.5 84.5,126.167 83.5,124.5C 86.5222,121.147 89.5222,117.813 92.5,114.5 Z"/></g>
<g><path style="opacity:1" fill="#33c1c6" d="M 72.5,126.5 C 71.596,127.209 71.2627,128.209 71.5,129.5C 70.1914,127.429 69.5248,124.929 69.5,122C 69.6667,119.5 69.8333,117 70,114.5C 74.9547,117.651 75.7881,121.651 72.5,126.5 Z"/></g>
<g><path style="opacity:1" fill="#16bbcf" d="M 81.5,108.5 C 85.1977,109.182 88.531,110.682 91.5,113C 88.318,116.349 84.9846,119.516 81.5,122.5C 79.8333,121.5 78.5,120.167 77.5,118.5C 79.0355,115.222 80.3689,111.889 81.5,108.5 Z"/></g>
<g><path style="opacity:1" fill="#27bdcc" d="M 55.5,100.5 C 59.4643,103.963 63.2977,107.63 67,111.5C 67.6667,117.5 67.6667,123.5 67,129.5C 62.6116,120.056 58.7783,110.389 55.5,100.5 Z"/></g>
<g><path style="opacity:1" fill="#22bccc" d="M 69.5,103.5 C 72.7036,104.901 76.0369,105.901 79.5,106.5C 79.0269,110.452 77.6936,114.119 75.5,117.5C 73.8509,115.35 72.0176,113.35 70,111.5C 69.5026,108.854 69.3359,106.187 69.5,103.5 Z"/></g>
<g><path style="opacity:1" fill="#1abed1" d="M 57.5,98.5 C 60.9446,99.1489 64.1113,100.482 67,102.5C 67.6667,104.5 67.6667,106.5 67,108.5C 63.5798,105.251 60.4131,101.917 57.5,98.5 Z"/></g>
<g><path style="opacity:1" fill="#2fbdc7" d="M 111.5,97.5 C 111.5,104.167 111.5,110.833 111.5,117.5C 106.164,116.332 101.164,114.332 96.5,111.5C 100.912,106.084 105.912,101.417 111.5,97.5 Z"/></g>
<g><path style="opacity:1" fill="#27becb" d="M 86.5,97.5 C 88.3913,100.957 90.058,104.624 91.5,108.5C 88.4019,108.869 85.4019,108.036 82.5,106C 84.2489,103.337 85.5822,100.503 86.5,97.5 Z"/></g>
<g><path style="opacity:1" fill="#10bbd0" d="M 88.5,95.5 C 95.175,95.3337 101.842,95.5004 108.5,96C 103.985,100.682 99.3185,105.182 94.5,109.5C 92.3017,104.901 90.3017,100.234 88.5,95.5 Z"/></g>
<g><path style="opacity:1" fill="#20bccd" d="M 69.5,95.5 C 74.5,95.5 79.5,95.5 84.5,95.5C 83.7345,99.0353 82.4012,102.369 80.5,105.5C 76.91,103.868 73.2433,102.534 69.5,101.5C 69.5,99.5 69.5,97.5 69.5,95.5 Z"/></g>
<g><path style="opacity:1" fill="#eae724" d="M 64.5,131.5 C 67.1522,131.59 69.4855,130.924 71.5,129.5C 71.2627,128.209 71.596,127.209 72.5,126.5C 73.1667,126.5 73.5,126.833 73.5,127.5C 73.5,128.167 73.5,128.833 73.5,129.5C 72.9569,129.56 72.6236,129.893 72.5,130.5C 73.548,131.548 74.548,132.548 75.5,133.5C 79.0648,132.558 82.0648,130.891 84.5,128.5C 85.5,129.5 86.5,130.5 87.5,131.5C 83.3929,131.925 79.7262,133.425 76.5,136C 81.4889,136.499 86.4889,136.666 91.5,136.5C 86.5,137.167 81.5,137.833 76.5,138.5C 77.0577,139.79 78.0577,140.623 79.5,141C 87.874,144.402 96.2073,147.902 104.5,151.5C 105.298,151.043 105.631,150.376 105.5,149.5C 105.5,148.833 105.833,148.5 106.5,148.5C 106.56,149.043 106.893,149.376 107.5,149.5C 108.176,148.398 108.842,147.398 109.5,146.5C 109.56,147.043 109.893,147.376 110.5,147.5C 111.484,144.572 111.817,141.572 111.5,138.5C 112.243,140.909 112.909,143.909 113.5,147.5C 115.343,145.147 116.677,142.48 117.5,139.5C 118.167,139.5 118.833,139.5 119.5,139.5C 118.501,142.162 117.501,144.828 116.5,147.5C 115.957,147.56 115.624,147.893 115.5,148.5C 116.325,149.386 117.325,149.719 118.5,149.5C 118.369,150.376 118.702,151.043 119.5,151.5C 129.14,147.524 138.474,143.191 147.5,138.5C 142.5,137.833 137.5,137.167 132.5,136.5C 137.544,136.827 142.544,136.494 147.5,135.5C 147.043,134.702 146.376,134.369 145.5,134.5C 145.842,133.662 146.508,133.328 147.5,133.5C 147.833,133.5 148.167,133.5 148.5,133.5C 149.5,132.5 150.5,131.5 151.5,130.5C 150.89,129.609 150.557,128.609 150.5,127.5C 150.328,126.508 150.662,125.842 151.5,125.5C 152.234,126.708 152.567,128.041 152.5,129.5C 154.167,130.833 155.833,130.833 157.5,129.5C 161.5,119.833 165.5,110.167 169.5,100.5C 169.042,97.6909 167.709,97.0242 165.5,98.5C 165.167,98.5 164.833,98.5 164.5,98.5C 163.508,98.6716 162.842,98.3382 162.5,97.5C 163.473,97.0133 164.473,96.5133 165.5,96C 162.518,95.502 159.518,95.3354 156.5,95.5C 150.734,94.196 145.067,94.196 139.5,95.5C 138.85,95.8039 138.183,96.1373 137.5,96.5C 133.687,95.2378 129.687,94.5712 125.5,94.5C 114.5,92.1667 110.167,96.5 112.5,107.5C 112.571,111.687 113.238,115.687 114.5,119.5C 112.924,125.133 111.924,130.799 111.5,136.5C 111.5,131.5 111.5,126.5 111.5,121.5C 110.909,120.849 110.243,120.182 109.5,119.5C 110.243,118.818 110.909,118.151 111.5,117.5C 111.5,110.833 111.5,104.167 111.5,97.5C 111.649,96.448 111.483,95.448 111,94.5C 107.04,94.8978 102.874,94.8978 98.5,94.5C 94.3125,94.5712 90.3125,95.2378 86.5,96.5C 80.8674,94.9243 75.2008,93.9243 69.5,93.5C 74.5,93.5 79.5,93.5 84.5,93.5C 85.5,92.5 86.5,91.5 87.5,90.5C 87.5,90.1667 87.5,89.8333 87.5,89.5C 88.3382,89.8417 88.6716,90.5084 88.5,91.5C 91.5982,92.821 95.0982,93.4877 99,93.5C 102.683,93.4986 106.183,93.1652 109.5,92.5C 109.5,92.1667 109.5,91.8333 109.5,91.5C 110.821,88.4018 111.488,84.9018 111.5,81C 111.167,77.5 110.833,74 110.5,70.5C 109.893,70.6236 109.56,70.9569 109.5,71.5C 108.833,71.5 108.167,71.5 107.5,71.5C 106.508,71.6716 105.842,71.3382 105.5,70.5C 106.71,70.0679 107.71,69.4013 108.5,68.5C 108.5,67.8333 108.833,67.5 109.5,67.5C 110.809,65.4294 111.475,62.9294 111.5,60C 111.497,57.3097 111.164,54.8097 110.5,52.5C 108.396,52.2011 106.396,52.5344 104.5,53.5C 103.67,56.0164 102.67,58.3498 101.5,60.5C 101.672,59.5084 101.338,58.8417 100.5,58.5C 101.159,56.8621 101.826,55.1955 102.5,53.5C 96.563,51.1724 91.8963,52.6724 88.5,58C 90.4068,59.122 92.4068,59.9553 94.5,60.5C 94.1583,61.3382 93.4916,61.6716 92.5,61.5C 90.742,61.1231 89.0754,60.4565 87.5,59.5C 86.4822,60.1925 85.4822,60.8592 84.5,61.5C 83.8333,61.5 83.1667,61.5 82.5,61.5C 83.1667,60.5 83.8333,59.5 84.5,58.5C 85.5,57.8333 86.5,57.1667 87.5,56.5C 88.1667,55.1667 89.1667,54.1667 90.5,53.5C 91.0431,53.44 91.3764,53.1067 91.5,52.5C 86.3477,51.1863 81.3477,51.1863 76.5,52.5C 76.5,52.8333 76.5,53.1667 76.5,53.5C 75.7784,53.0825 75.2784,52.4158 75,51.5C 74.7635,53.8452 73.9302,55.8452 72.5,57.5C 72.5,57.8333 72.5,58.1667 72.5,58.5C 72.5,59.1667 72.1667,59.5 71.5,59.5C 71.1583,58.6618 70.4916,58.3284 69.5,58.5C 68.8333,58.5 68.1667,58.5 67.5,58.5C 62.9278,67.9843 58.5944,77.651 54.5,87.5C 55.6384,89.7213 56.9717,91.7213 58.5,93.5C 61.5,93.5 64.5,93.5 67.5,93.5C 64.6155,94.5026 60.9489,94.8359 56.5,94.5C 56.7229,97.1142 55.5562,98.7809 53,99.5C 51.4174,97.0072 49.9174,97.1738 48.5,100C 50.5767,100.192 52.5767,100.692 54.5,101.5C 54.3764,102.107 54.0431,102.44 53.5,102.5C 43.7157,102.03 41.049,97.3634 45.5,88.5C 47.8511,86.7711 50.5178,86.1044 53.5,86.5C 56.7649,77.0442 60.4315,67.7109 64.5,58.5C 61.1344,54.5715 60.6344,50.2381 63,45.5C 67.6102,42.6364 71.9436,42.9697 76,46.5C 85.2862,43.1269 94.4529,39.4603 103.5,35.5C 104.673,26.2848 109.34,23.6181 117.5,27.5C 118.919,29.9585 119.919,32.6251 120.5,35.5C 129.391,39.4461 138.391,43.1128 147.5,46.5C 149.706,44.8006 152.206,43.8006 155,43.5C 161.393,43.8897 164.059,47.2231 163,53.5C 162.028,55.3049 160.861,56.9716 159.5,58.5C 163.568,67.7109 167.235,77.0442 170.5,86.5C 176.865,85.5117 180.531,88.1783 181.5,94.5C 179.968,100.026 176.301,103.026 170.5,103.5C 166.736,112.293 163.069,121.126 159.5,130C 165.21,135.792 164.544,140.792 157.5,145C 153.549,145.941 150.383,144.774 148,141.5C 138.776,145.195 129.609,149.029 120.5,153C 120.612,158.887 117.779,162.387 112,163.5C 106.461,162.281 103.628,158.781 103.5,153C 94.3772,149.459 85.3772,145.626 76.5,141.5C 69.2929,147.659 63.9596,146.325 60.5,137.5C 60.8519,134.783 62.1853,132.783 64.5,131.5 Z"/></g>
<g><path style="opacity:1" fill="#38c1c3" d="M 84.5,128.5 C 82.0648,130.891 79.0648,132.558 75.5,133.5C 76.5434,130.944 78.2101,128.777 80.5,127C 82.0657,126.7 83.399,127.2 84.5,128.5 Z"/></g>
<g><path style="opacity:1" fill="#33bfc6" d="M 148.5,133.5 C 148.167,133.5 147.833,133.5 147.5,133.5C 144.916,132.208 142.25,130.875 139.5,129.5C 140.167,128.167 141.167,127.167 142.5,126.5C 145.266,128.259 147.266,130.593 148.5,133.5 Z"/></g>
<g><path style="opacity:1" fill="#1cbbcd" d="M 124.5,126.5 C 128.035,127.265 131.369,128.599 134.5,130.5C 131.674,135.913 127.341,137.579 121.5,135.5C 122.801,132.573 123.801,129.573 124.5,126.5 Z"/></g>
<g><path style="opacity:1" fill="#1ebccc" d="M 96.5,126.5 C 97.675,126.281 98.675,126.614 99.5,127.5C 100.801,130.427 101.801,133.427 102.5,136.5C 97.1448,137.655 92.9781,135.988 90,131.5C 89.3123,130.668 89.479,130.002 90.5,129.5C 92.604,128.481 94.604,127.481 96.5,126.5 Z"/></g>
<g><path style="opacity:1" fill="#26bdcb" d="M 150.5,127.5 C 150.557,128.609 150.89,129.609 151.5,130.5C 148.593,129.266 146.259,127.266 144.5,124.5C 145.145,123.354 145.978,122.354 147,121.5C 148.459,123.432 149.625,125.432 150.5,127.5 Z"/></g>
<g><path style="opacity:1" fill="#1cbcce" d="M 113.5,121.5 C 117.053,122.517 120.386,124.017 123.5,126C 122.004,129.149 120.504,132.316 119,135.5C 117.301,136.406 115.467,136.739 113.5,136.5C 113.5,131.5 113.5,126.5 113.5,121.5 Z"/></g>
<g><path style="opacity:1" fill="#37c0c2" d="M 152.5,129.5 C 152.567,128.041 152.234,126.708 151.5,125.5C 150.744,123.733 150.077,121.9 149.5,120C 153.368,113.77 155.035,114.603 154.5,122.5C 154.471,125.269 153.805,127.603 152.5,129.5 Z"/></g>
<g><path style="opacity:1" fill="#1dbccd" d="M 129.5,114.5 C 133.402,116.893 136.902,119.893 140,123.5C 140.163,125.387 139.329,126.887 137.5,128C 133.834,127.597 130.334,126.43 127,124.5C 127.484,121.161 128.317,117.827 129.5,114.5 Z"/></g>
<g><path style="opacity:1" fill="#2cbeca" d="M 125.5,114.5 C 126.376,114.369 127.043,114.702 127.5,115.5C 126.352,118.289 125.019,120.956 123.5,123.5C 120.824,122.162 118.158,120.829 115.5,119.5C 118.927,117.816 122.261,116.149 125.5,114.5 Z"/></g>
<g><path style="opacity:1" fill="#19bbce" d="M 139.5,108.5 C 140.675,108.281 141.675,108.614 142.5,109.5C 143.833,112.5 145.167,115.5 146.5,118.5C 145.5,120.167 144.167,121.5 142.5,122.5C 138.833,119.5 135.5,116.167 132.5,112.5C 135.05,111.396 137.383,110.063 139.5,108.5 Z"/></g>
<g><path style="opacity:1" fill="#26bdcc" d="M 169.5,100.5 C 165.5,110.167 161.5,119.833 157.5,129.5C 156.347,123.681 156.181,117.681 157,111.5C 160.761,107.23 164.928,103.563 169.5,100.5 Z"/></g>
<g><path style="opacity:1" fill="#21bccb" d="M 152.5,103.5 C 153.748,104.334 154.415,105.667 154.5,107.5C 154.333,108.833 154.167,110.167 154,111.5C 151.982,113.35 150.149,115.35 148.5,117.5C 146.897,114.627 145.564,111.627 144.5,108.5C 146.892,106.309 149.558,104.642 152.5,103.5 Z"/></g>
<g><path style="opacity:1" fill="#24becf" d="M 164.5,98.5 C 164.833,98.5 165.167,98.5 165.5,98.5C 163.62,101.944 160.786,105.278 157,108.5C 156.503,106.19 156.337,103.857 156.5,101.5C 159.443,101.02 162.11,100.02 164.5,98.5 Z"/></g>
<g><path style="opacity:1" fill="#2dbeca" d="M 136.5,97.5 C 138.753,99.817 140.42,102.65 141.5,106C 138.465,107.637 135.465,108.47 132.5,108.5C 134.234,104.963 135.568,101.296 136.5,97.5 Z"/></g>
<g><path style="opacity:1" fill="#19bcce" d="M 113.5,97.5 C 118.479,101.812 123.146,106.479 127.5,111.5C 123.317,113.757 118.984,115.757 114.5,117.5C 113.503,110.866 113.17,104.2 113.5,97.5 Z"/></g>
<g><path style="opacity:1" fill="#7acd88" d="M 174.5,95.5 C 176.337,95.6395 176.67,96.3061 175.5,97.5C 174.702,97.0431 174.369,96.3764 174.5,95.5 Z"/></g>
<g><path style="opacity:1" fill="#17bcce" d="M 139.5,95.5 C 144.5,95.5 149.5,95.5 154.5,95.5C 154.739,97.4672 154.406,99.3005 153.5,101C 150.209,102.597 146.875,104.097 143.5,105.5C 141.605,102.379 140.272,99.046 139.5,95.5 Z"/></g>
<g><path style="opacity:1" fill="#0ebbd1" d="M 115.5,96.5 C 122.011,95.1819 128.678,95.1819 135.5,96.5C 133.769,100.962 131.769,105.295 129.5,109.5C 124.813,105.145 120.146,100.812 115.5,96.5 Z"/></g>
<g><path style="opacity:1" fill="#1abfd2" d="M 156.5,95.5 C 159.518,95.3354 162.518,95.502 165.5,96C 164.473,96.5133 163.473,97.0133 162.5,97.5C 160.862,98.1589 159.195,98.8256 157.5,99.5C 156.571,98.3112 156.238,96.9778 156.5,95.5 Z"/></g>
<g><path style="opacity:1" fill="#1dbfd1" d="M 58.5,96.5 C 61.2869,95.5233 64.2869,95.19 67.5,95.5C 67.762,96.9778 67.4287,98.3112 66.5,99.5C 63.8122,98.4866 61.1456,97.4866 58.5,96.5 Z"/></g>
<g><path style="opacity:1" fill="#52c2b3" d="M 174.5,95.5 C 172.983,95.5106 171.816,96.1772 171,97.5C 171.497,95.8016 171.33,94.1349 170.5,92.5C 172.421,92.5704 174.421,92.4037 176.5,92C 175.177,92.8159 174.511,93.9826 174.5,95.5 Z"/></g>
<g><path style="opacity:1" fill="#5cc5ac" d="M 47.5,92.5 C 49.2079,92.3773 51.0412,92.0439 53,91.5C 52.3333,93.5 52.3333,95.5 53,97.5C 51.5981,95.0266 50.0981,95.0266 48.5,97.5C 48.1667,97.1667 47.8333,96.8333 47.5,96.5C 50.1063,95.0762 50.1063,93.7429 47.5,92.5 Z"/></g>
<g><path style="opacity:1" fill="#2fc0c8" d="M 156.5,88.5 C 159.601,89.5491 162.601,90.8824 165.5,92.5C 162.572,93.4841 159.572,93.8174 156.5,93.5C 156.5,91.8333 156.5,90.1667 156.5,88.5 Z"/></g>
<g><path style="opacity:1" fill="#36c1c5" d="M 67.5,93.5 C 64.5,93.5 61.5,93.5 58.5,93.5C 60.691,91.3867 63.3576,89.7201 66.5,88.5C 67.4519,90.0453 67.7852,91.712 67.5,93.5 Z"/></g>
<g><path style="opacity:1" fill="#1ebfce" d="M 66.5,79.5 C 67.7969,81.6934 67.7969,84.0268 66.5,86.5C 63.4701,87.4318 60.6368,88.7651 58,90.5C 57.3333,89.8333 57.3333,89.1667 58,88.5C 61.0379,85.6306 63.8712,82.6306 66.5,79.5 Z"/></g>
<g><path style="opacity:1" fill="#27bdc9" d="M 142.5,83.5 C 146.168,84.5555 149.835,85.7222 153.5,87C 154.423,89.0408 154.756,91.2075 154.5,93.5C 149.5,93.5 144.5,93.5 139.5,93.5C 140.099,90.0369 141.099,86.7036 142.5,83.5 Z"/></g>
<g><path style="opacity:1" fill="#26bdc9" d="M 84.5,93.5 C 79.5,93.5 74.5,93.5 69.5,93.5C 69.2436,91.2075 69.5769,89.0408 70.5,87C 73.6123,85.6942 76.7789,84.5276 80,83.5C 82.7459,86.2245 84.2459,89.5579 84.5,93.5 Z"/></g>
<g><path style="opacity:1" fill="#1cbece" d="M 156.5,79.5 C 160.702,82.5162 163.869,86.1828 166,90.5C 163.227,89.0737 160.393,87.7404 157.5,86.5C 156.526,84.2573 156.192,81.924 156.5,79.5 Z"/></g>
<g><path style="opacity:1" fill="#2bbeca" d="M 132.5,78.5 C 140.812,79.7879 142.479,83.7879 137.5,90.5C 135.287,86.7382 133.62,82.7382 132.5,78.5 Z"/></g>
<g><path style="opacity:1" fill="#22bdcb" d="M 128.5,78.5 C 131.56,82.597 133.893,87.2637 135.5,92.5C 128.524,93.6644 121.524,93.8311 114.5,93C 119.37,88.2979 124.037,83.4646 128.5,78.5 Z"/></g>
<g><path style="opacity:1" fill="#24bdc9" d="M 109.5,92.5 C 106.183,93.1652 102.683,93.4986 99,93.5C 95.0982,93.4877 91.5982,92.821 88.5,91.5C 90.7295,87.3683 92.7295,83.035 94.5,78.5C 99.5203,83.1884 104.52,87.8551 109.5,92.5 Z"/></g>
<g><path style="opacity:1" fill="#27bdcb" d="M 87.5,89.5 C 87.5,89.8333 87.5,90.1667 87.5,90.5C 81.3168,84.5102 82.4835,80.5102 91,78.5C 90.4519,82.2877 89.2852,85.9544 87.5,89.5 Z"/></g>
<g><path style="opacity:1" fill="#23bcca" d="M 147.5,71.5 C 153.651,73.6767 155.984,78.01 154.5,84.5C 150.534,84.3491 147.2,82.8491 144.5,80C 145.409,77.1054 146.409,74.2721 147.5,71.5 Z"/></g>
<g><path style="opacity:1" fill="#1ebccc" d="M 74.5,71.5 C 77.2662,73.5096 78.9328,76.3429 79.5,80C 76.7755,82.7459 73.4421,84.2459 69.5,84.5C 69.3359,81.8127 69.5026,79.146 70,76.5C 71.7073,74.9625 73.2073,73.2959 74.5,71.5 Z"/></g>
<g><path style="opacity:1" fill="#0dbbd1" d="M 113.5,70.5 C 118.214,72.5711 122.881,74.7377 127.5,77C 122.963,81.3688 118.63,85.8688 114.5,90.5C 113.509,84.021 113.176,77.3543 113.5,70.5 Z"/></g>
<g><path style="opacity:1" fill="#0bbbd1" d="M 107.5,71.5 C 108.167,71.5 108.833,71.5 109.5,71.5C 110.833,77.8333 110.833,84.1667 109.5,90.5C 105.37,85.8688 101.037,81.3688 96.5,77C 100.227,75.1363 103.894,73.3029 107.5,71.5 Z"/></g>
<g><path style="opacity:1" fill="#76cd85" d="M 109.5,71.5 C 109.56,70.9569 109.893,70.6236 110.5,70.5C 110.833,74 111.167,77.5 111.5,81C 111.488,84.9018 110.821,88.4018 109.5,91.5C 109.5,91.1667 109.5,90.8333 109.5,90.5C 110.833,84.1667 110.833,77.8333 109.5,71.5 Z"/></g>
<g><path style="opacity:1" fill="#89d172" d="M 113.5,70.5 C 113.176,77.3543 113.509,84.021 114.5,90.5C 114.44,91.0431 114.107,91.3764 113.5,91.5C 112.181,84.344 112.181,77.344 113.5,70.5 Z"/></g>
<g><path style="opacity:1" fill="#1ebccd" d="M 141.5,65.5 C 143.729,66.0553 145.395,67.3886 146.5,69.5C 145.43,73.312 143.596,76.6453 141,79.5C 137.834,78.8331 135,77.4998 132.5,75.5C 135.522,72.1467 138.522,68.8134 141.5,65.5 Z"/></g>
<g><path style="opacity:1" fill="#1abccd" d="M 80.5,65.5 C 84.7504,68.0786 88.417,71.4119 91.5,75.5C 88.5072,78.1694 85.1738,79.1694 81.5,78.5C 80.1667,75.5 78.8333,72.5 77.5,69.5C 78.5244,68.1482 79.5244,66.8149 80.5,65.5 Z"/></g>
<g><path style="opacity:1" fill="#24bdcc" d="M 108.5,68.5 C 107.71,69.4013 106.71,70.0679 105.5,70.5C 102.497,71.4178 99.6632,72.7511 97,74.5C 96.9669,70.9458 98.3003,67.9458 101,65.5C 103.465,66.6513 105.965,67.6513 108.5,68.5 Z"/></g>
<g><path style="opacity:1" fill="#2bbecb" d="M 121.5,65.5 C 122.675,65.281 123.675,65.6143 124.5,66.5C 125.5,68.5 126.5,70.5 127.5,72.5C 127,72.8333 126.5,73.1667 126,73.5C 122.326,72.4131 118.826,70.9131 115.5,69C 117.618,67.9179 119.618,66.7512 121.5,65.5 Z"/></g>
<g><path style="opacity:1" fill="#1cbcce" d="M 156.5,58.5 C 160.913,67.8347 165.246,77.3347 169.5,87C 169.167,87.1667 168.833,87.3333 168.5,87.5C 164.515,84.0156 160.682,80.349 157,76.5C 156.501,70.5092 156.334,64.5092 156.5,58.5 Z"/></g>
<g><path style="opacity:1" fill="#2cbec6" d="M 153.5,58.5 C 154.65,63.3158 154.816,68.3158 154,73.5C 152.108,71.9458 150.608,70.1124 149.5,68C 150.435,64.6346 151.768,61.468 153.5,58.5 Z"/></g>
<g><path style="opacity:1" fill="#1abcce" d="M 67.5,58.5 C 67.6662,64.5092 67.4995,70.5092 67,76.5C 63.2385,80.77 59.0719,84.4367 54.5,87.5C 58.5944,77.651 62.9278,67.9843 67.5,58.5 Z"/></g>
<g><path style="opacity:1" fill="#18bccf" d="M 135.5,59.5 C 137.729,60.0553 139.395,61.3886 140.5,63.5C 137.5,67.1667 134.167,70.5 130.5,73.5C 128.579,70.4037 127.246,67.0704 126.5,63.5C 129.912,62.9579 132.912,61.6246 135.5,59.5 Z"/></g>
<g><path style="opacity:1" fill="#1bbcce" d="M 92.5,61.5 C 94.4124,62.2105 96.079,63.3771 97.5,65C 96.8331,68.1662 95.4998,70.9995 93.5,73.5C 90.1822,70.6828 87.0155,67.6828 84,64.5C 83.5304,63.4232 83.6971,62.4232 84.5,61.5C 85.4822,60.8592 86.4822,60.1925 87.5,59.5C 89.0754,60.4565 90.742,61.1231 92.5,61.5 Z"/></g>
<g><path style="opacity:1" fill="#2dc0c9" d="M 69.5,58.5 C 70.4916,58.3284 71.1583,58.6618 71.5,59.5C 72.5912,62.2721 73.5912,65.1054 74.5,68C 73.392,70.1124 71.892,71.9458 70,73.5C 69.5007,68.5111 69.3341,63.5111 69.5,58.5 Z"/></g>
<g><path style="opacity:1" fill="#3ac1c4" d="M 149.5,57.5 C 150.376,57.3691 151.043,57.7025 151.5,58.5C 150.162,61.1756 148.829,63.8422 147.5,66.5C 146.167,65.8333 145.167,64.8333 144.5,63.5C 146.19,61.4807 147.856,59.4807 149.5,57.5 Z"/></g>
<g><path style="opacity:1" fill="#2cc0c8" d="M 72.5,58.5 C 72.5,58.1667 72.5,57.8333 72.5,57.5C 75.4073,58.7341 77.7407,60.7341 79.5,63.5C 78.8551,64.646 78.0217,65.646 77,66.5C 75.3952,63.8085 73.8952,61.1418 72.5,58.5 Z"/></g>
<g><path style="opacity:1" fill="#23becf" d="M 145.5,55.5 C 146.552,55.3505 147.552,55.5172 148.5,56C 146.833,57.6667 145.167,59.3333 143.5,61C 141.799,61.3446 140.466,60.6779 139.5,59C 141.618,57.9179 143.618,56.7512 145.5,55.5 Z"/></g>
<g><path style="opacity:1" fill="#19bed0" d="M 84.5,58.5 C 83.8333,59.5 83.1667,60.5 82.5,61.5C 72.8686,55.0273 73.5353,54.0273 84.5,58.5 Z"/></g>
<g><path style="opacity:1" fill="#1ebecf" d="M 133.5,53.5 C 137.981,52.3516 142.648,52.1849 147.5,53C 144.145,54.1176 140.978,55.6176 138,57.5C 136.629,55.9586 135.129,54.6253 133.5,53.5 Z"/></g>
<g><path style="opacity:1" fill="#1abcce" d="M 121.5,52.5 C 127.485,51.1686 132.151,53.0019 135.5,58C 131.968,60.1393 128.302,60.9727 124.5,60.5C 123.487,57.8122 122.487,55.1456 121.5,52.5 Z"/></g>
<g><path style="opacity:1" fill="#1ebcce" d="M 118.5,52.5 C 120.147,55.7294 121.814,59.0627 123.5,62.5C 120.605,64.1151 117.605,65.4484 114.5,66.5C 113.514,62.03 113.181,57.3633 113.5,52.5C 115.167,52.5 116.833,52.5 118.5,52.5 Z"/></g>
<g><path style="opacity:1" fill="#8bd172" d="M 118.5,52.5 C 116.833,52.5 115.167,52.5 113.5,52.5C 113.181,57.3633 113.514,62.03 114.5,66.5C 114.44,67.0431 114.107,67.3764 113.5,67.5C 112.505,62.2079 112.172,56.8746 112.5,51.5C 114.735,51.2053 116.735,51.5386 118.5,52.5 Z"/></g>
<g><path style="opacity:1" fill="#22bccd" d="M 110.5,52.5 C 110.819,57.3633 110.486,62.03 109.5,66.5C 106.854,65.5134 104.188,64.5134 101.5,63.5C 100.438,62.5754 100.438,61.5754 101.5,60.5C 102.67,58.3498 103.67,56.0164 104.5,53.5C 106.396,52.5344 108.396,52.2011 110.5,52.5 Z"/></g>
<g><path style="opacity:1" fill="#21bccd" d="M 100.5,58.5 C 99.2672,61.4491 97.2672,62.1158 94.5,60.5C 92.4068,59.9553 90.4068,59.122 88.5,58C 91.8963,52.6724 96.563,51.1724 102.5,53.5C 101.826,55.1955 101.159,56.8621 100.5,58.5 Z"/></g>
<g><path style="opacity:1" fill="#1ebdcf" d="M 76.5,53.5 C 76.5,53.1667 76.5,52.8333 76.5,52.5C 81.3633,52.1805 86.03,52.5139 90.5,53.5C 89.1667,54.1667 88.1667,55.1667 87.5,56.5C 83.6576,56.1075 79.9909,55.1075 76.5,53.5 Z"/></g>
<g><path style="opacity:1" fill="#74cd86" d="M 110.5,52.5 C 111.164,54.8097 111.497,57.3097 111.5,60C 111.475,62.9294 110.809,65.4294 109.5,67.5C 109.5,67.1667 109.5,66.8333 109.5,66.5C 110.486,62.03 110.819,57.3633 110.5,52.5 Z"/></g>
<g><path style="opacity:1" fill="#48c3b7" d="M 157.5,47.5 C 158.645,48.7927 158.311,49.9593 156.5,51C 159.182,53.3303 158.849,53.8303 155.5,52.5C 152.147,54.9762 151.814,54.4762 154.5,51C 151.818,48.6697 152.151,48.1697 155.5,49.5C 156.522,49.1445 157.189,48.4778 157.5,47.5 Z"/></g>
<g><path style="opacity:1" fill="#8ad173" d="M 76.5,52.5 C 81.3477,51.1863 86.3477,51.1863 91.5,52.5C 91.3764,53.1067 91.0431,53.44 90.5,53.5C 86.03,52.5139 81.3633,52.1805 76.5,52.5 Z"/></g>
<g><path style="opacity:1" fill="#71cc89" d="M 77.5,48.5 C 82.6405,49.4881 87.9738,49.8214 93.5,49.5C 87.9871,50.8157 82.3204,50.8157 76.5,49.5C 76.6236,48.8933 76.9569,48.56 77.5,48.5 Z"/></g>
<g><path style="opacity:1" fill="#4dc3b8" d="M 65.5,49.5 C 67.3573,49.5049 69.3573,49.3382 71.5,49C 68.8333,50.3333 68.8333,51.6667 71.5,53C 69.3309,51.8862 67.4976,52.3862 66,54.5C 65.4926,53.0039 65.9926,51.8373 67.5,51C 66.9558,50.2828 66.2891,49.7828 65.5,49.5 Z"/></g>
<g><path style="opacity:1" fill="#30c0c9" d="M 106.5,39.5 C 107.097,39.7352 107.43,40.2352 107.5,41C 106.333,43.8333 105.167,46.6667 104,49.5C 101.599,50.6023 99.0991,50.769 96.5,50C 100.037,46.6309 103.371,43.1309 106.5,39.5 Z"/></g>
<g><path style="opacity:1" fill="#31bfc8" d="M 116.5,39.5 C 120.298,42.7961 123.964,46.2961 127.5,50C 125.167,50.6667 122.833,50.6667 120.5,50C 118.67,46.6763 117.337,43.1763 116.5,39.5 Z"/></g>
<g><path style="opacity:1" fill="#86d078" d="M 114.5,41.5 C 113.527,43.9479 113.194,46.6146 113.5,49.5C 114.833,49.5 116.167,49.5 117.5,49.5C 116.081,50.4511 114.415,50.7845 112.5,50.5C 112.18,47.1016 112.513,43.7683 113.5,40.5C 114.107,40.6236 114.44,40.9569 114.5,41.5 Z"/></g>
<g><path style="opacity:1" fill="#29c1d0" d="M 114.5,41.5 C 115.499,44.1618 116.499,46.8284 117.5,49.5C 116.167,49.5 114.833,49.5 113.5,49.5C 113.194,46.6146 113.527,43.9479 114.5,41.5 Z"/></g>
<g><path style="opacity:1" fill="#7bce82" d="M 109.5,41.5 C 109.56,40.9569 109.893,40.6236 110.5,40.5C 111.803,43.6447 111.803,46.6447 110.5,49.5C 110.806,46.6146 110.473,43.9479 109.5,41.5 Z"/></g>
<g><path style="opacity:1" fill="#3ec1c6" d="M 109.5,41.5 C 110.473,43.9479 110.806,46.6146 110.5,49.5C 109.432,50.4345 108.099,50.7678 106.5,50.5C 107.216,47.4018 108.216,44.4018 109.5,41.5 Z"/></g>
<g><path style="opacity:1" fill="#31bdc8" d="M 118.5,38.5 C 119.251,37.4265 120.251,37.2599 121.5,38C 130.243,41.7442 138.909,45.5775 147.5,49.5C 141.863,50.6632 136.196,50.8299 130.5,50C 126.631,45.963 122.631,42.1296 118.5,38.5 Z"/></g>
<g><path style="opacity:1" fill="#1cbccf" d="M 93.5,49.5 C 87.9738,49.8214 82.6405,49.4881 77.5,48.5C 86.6565,44.2845 95.9899,40.7845 105.5,38C 101.631,42.037 97.631,45.8704 93.5,49.5 Z"/></g>
<g><path style="opacity:1" fill="#6bc7a1" d="M 108.5,29.5 C 110.044,29.7031 111.378,30.3698 112.5,31.5C 114.677,30.4958 115.011,31.1625 113.5,33.5C 114.167,34.1667 114.833,34.8333 115.5,35.5C 114.132,36.5937 112.965,36.2603 112,34.5C 109.67,37.1821 109.17,36.8488 110.5,33.5C 109.37,32.3777 108.703,31.0443 108.5,29.5 Z"/></g>
<g><path style="opacity:1" fill="#30bec5" d="M 87.5,131.5 C 88.8333,133.167 90.1667,134.833 91.5,136.5C 86.4889,136.666 81.4889,136.499 76.5,136C 79.7262,133.425 83.3929,131.925 87.5,131.5 Z"/></g>
<g><path style="opacity:1" fill="#191b1d" d="M 14.5,132.5 C 15.675,132.281 16.675,132.614 17.5,133.5C 14.5673,134.93 12.0673,136.93 10,139.5C 9.83333,139 9.66667,138.5 9.5,138C 11.4011,136.271 13.0678,134.438 14.5,132.5 Z"/></g>
<g><path style="opacity:1" fill="#282a2b" d="M 206.5,128.5 C 209.607,129.124 212.607,130.124 215.5,131.5C 213.726,132.187 212.059,133.02 210.5,134C 211.865,135.682 213.365,135.849 215,134.5C 215.538,136.473 214.704,137.473 212.5,137.5C 210.137,134.849 207.804,134.849 205.5,137.5C 204.479,136.998 204.312,136.332 205,135.5C 206.918,134.458 208.751,133.292 210.5,132C 209.207,131.51 207.873,131.343 206.5,131.5C 206.5,130.5 206.5,129.5 206.5,128.5 Z"/></g>
<g><path style="opacity:1" fill="#2dbec5" d="M 145.5,134.5 C 146.376,134.369 147.043,134.702 147.5,135.5C 142.544,136.494 137.544,136.827 132.5,136.5C 133.85,134.317 135.684,132.65 138,131.5C 140.489,132.606 142.989,133.606 145.5,134.5 Z"/></g>
<g><path style="opacity:1" fill="#52c5af" d="M 65.5,135.5 C 66.7927,134.355 67.9593,134.689 69,136.5C 69.6667,135.833 70.3333,135.167 71,134.5C 70.3333,136.5 70.3333,138.5 71,140.5C 70.3333,139.833 69.6667,139.167 69,138.5C 65.5238,141.186 65.0238,140.853 67.5,137.5C 67.1445,136.478 66.4778,135.811 65.5,135.5 Z"/></g>
<g><path style="opacity:1" fill="#5cc5ab" d="M 152.5,134.5 C 153.458,134.953 154.292,135.619 155,136.5C 158.476,133.814 158.976,134.147 156.5,137.5C 158.976,140.853 158.476,141.186 155,138.5C 154.333,139.167 153.667,139.833 153,140.5C 153.793,138.5 153.626,136.5 152.5,134.5 Z"/></g>
<g><path style="opacity:1" fill="#28bdca" d="M 76.5,138.5 C 82.5092,138.334 88.5092,138.501 94.5,139C 98.0357,142.704 101.702,146.204 105.5,149.5C 105.631,150.376 105.298,151.043 104.5,151.5C 96.2073,147.902 87.874,144.402 79.5,141C 78.0577,140.623 77.0577,139.79 76.5,138.5 Z"/></g>
<g><path style="opacity:1" fill="#19bdd1" d="M 106.5,148.5 C 103.704,145.203 100.704,142.036 97.5,139C 99.9018,138.186 102.235,138.353 104.5,139.5C 105.402,142.04 106.402,144.54 107.5,147C 107.43,147.765 107.097,148.265 106.5,148.5 Z"/></g>
<g><path style="opacity:1" fill="#43c2c1" d="M 111.5,138.5 C 111.817,141.572 111.484,144.572 110.5,147.5C 109.893,147.376 109.56,147.043 109.5,146.5C 108.702,144.114 107.702,141.78 106.5,139.5C 108.045,138.548 109.712,138.215 111.5,138.5 Z"/></g>
<g><path style="opacity:1" fill="#27becc" d="M 117.5,139.5 C 116.677,142.48 115.343,145.147 113.5,147.5C 113.5,144.5 113.5,141.5 113.5,138.5C 115.099,138.232 116.432,138.566 117.5,139.5 Z"/></g>
<g><path style="opacity:1" fill="#2cbdcb" d="M 116.5,147.5 C 117.501,144.828 118.501,142.162 119.5,139.5C 121.628,138.371 123.961,138.204 126.5,139C 123.278,142.786 119.944,145.62 116.5,147.5 Z"/></g>
<g><path style="opacity:1" fill="#24bccc" d="M 147.5,138.5 C 138.474,143.191 129.14,147.524 119.5,151.5C 118.702,151.043 118.369,150.376 118.5,149.5C 122.298,146.204 125.964,142.704 129.5,139C 135.491,138.501 141.491,138.334 147.5,138.5 Z"/></g>
<g><path style="opacity:1" fill="#2d2d2e" d="M 16.5,140.5 C 20.554,140.21 21.054,140.877 18,142.5C 17.6667,144.5 17.3333,146.5 17,148.5C 11.6687,149.947 10.1687,147.947 12.5,142.5C 12.8072,143.887 12.8072,145.554 12.5,147.5C 13.5,147.5 14.5,147.5 15.5,147.5C 15.298,145.05 15.6314,142.717 16.5,140.5 Z"/></g>
<g><path style="opacity:1" fill="#232426" d="M 202.5,141.5 C 204.094,141.92 205.594,142.586 207,143.5C 208.667,142.833 210.333,142.167 212,141.5C 212.5,141.833 213,142.167 213.5,142.5C 210.039,144.891 206.372,145.557 202.5,144.5C 202.5,143.5 202.5,142.5 202.5,141.5 Z"/></g>
<g><path style="opacity:1" fill="#46c2b6" d="M 109.5,152.5 C 110.458,152.953 111.292,153.619 112,154.5C 115.476,151.814 115.976,152.147 113.5,155.5C 114.83,158.849 114.33,159.182 112,156.5C 108.524,159.186 108.024,158.853 110.5,155.5C 109.873,154.583 109.539,153.583 109.5,152.5 Z"/></g>
<g><path style="opacity:1" fill="#0d1518" d="M 113.5,181.5 C 113.628,183.655 113.128,185.655 112,187.5C 108.814,180.952 105.814,174.285 103,167.5C 102.12,172.826 101.287,178.159 100.5,183.5C 100.39,185.374 101.056,186.874 102.5,188C 100.5,188.667 98.5,188.667 96.5,188C 97.8932,186.829 98.7265,185.329 99,183.5C 99.691,177.93 100.524,172.43 101.5,167C 100.833,166.333 100.167,165.667 99.5,165C 102.167,164.333 104.833,164.333 107.5,165C 106.524,167.147 106.691,169.314 108,171.5C 109.638,175.124 111.471,178.457 113.5,181.5 Z"/></g>
<g><path style="opacity:1" fill="#0c1316" d="M 113.5,181.5 C 114.716,176.183 116.716,171.183 119.5,166.5C 119.291,165.914 118.957,165.414 118.5,165C 120.833,164.333 123.167,164.333 125.5,165C 124.566,172.177 125.066,179.343 127,186.5C 127.5,187 128,187.5 128.5,188C 126.167,188.667 123.833,188.667 121.5,188C 122.944,186.874 123.61,185.374 123.5,183.5C 122.973,178.334 121.807,173.334 120,168.5C 118.664,173.403 116.497,177.737 113.5,181.5 Z"/></g>
<g><path style="opacity:1" fill="#0c1417" d="M 140.5,173.5 C 140.5,174.5 140.5,175.5 140.5,176.5C 142.604,176.799 144.604,176.466 146.5,175.5C 145.451,172.177 144.117,169.01 142.5,166C 143.009,164.831 143.842,163.998 145,163.5C 148.348,171.699 151.848,179.866 155.5,188C 153.167,188.667 150.833,188.667 148.5,188C 150.734,179.236 147.568,176.403 139,179.5C 136.336,182.376 136.169,185.21 138.5,188C 136.5,188.667 134.5,188.667 132.5,188C 135.275,183.124 137.942,178.29 140.5,173.5 Z"/></g>
<g><path style="opacity:1" fill="#0c1317" d="M 78.5,163.5 C 82.5191,163.646 86.5191,163.979 90.5,164.5C 90.8511,166.869 91.0178,169.203 91,171.5C 88.4307,165.625 84.264,163.792 78.5,166C 77.1667,167.667 77.1667,169.333 78.5,171C 83.2666,173.438 87.7666,176.271 92,179.5C 93.5437,184.623 91.7103,187.789 86.5,189C 82.8297,189.279 79.163,189.112 75.5,188.5C 72.0583,179.476 73.0583,178.643 78.5,186C 83.3341,189.771 87.0007,188.938 89.5,183.5C 89.1243,181.617 88.1243,180.117 86.5,179C 82.3913,177.199 78.558,175.032 75,172.5C 73.9804,168.553 75.1471,165.553 78.5,163.5 Z"/></g>
<g><path style="opacity:1" fill="#111c22" d="M 140.5,173.5 C 140.491,171.692 140.991,170.025 142,168.5C 142.599,170.535 142.099,172.201 140.5,173.5 Z"/></g>
<g><path style="opacity:1" fill="#787879" d="M 37.5,177.5 C 37.1667,178.5 36.5,179.167 35.5,179.5C 34.0359,177.016 32.3692,177.016 30.5,179.5C 29.479,178.998 29.3123,178.332 30,177.5C 32.4592,176.351 34.9592,176.351 37.5,177.5 Z"/></g>
<g><path style="opacity:1" fill="#191a1b" d="M 35.5,179.5 C 36.5,179.167 37.1667,178.5 37.5,177.5C 37.9166,175.355 38.9166,174.688 40.5,175.5C 38.6667,178.5 36.8333,181.5 35,184.5C 34.5,184 34,183.5 33.5,183C 34.8228,182.184 35.4894,181.017 35.5,179.5 Z"/></g>
<g><path style="opacity:1" fill="#252729" d="M 183.5,174.5 C 187.404,175.95 191.404,177.116 195.5,178C 194.892,178.87 194.059,179.37 193,179.5C 189.192,178.684 186.026,177.017 183.5,174.5 Z"/></g>
<g><path style="opacity:1" fill="#18191a" d="M 42.5,181.5 C 43.4916,181.328 44.1583,181.662 44.5,182.5C 43.5041,182.414 42.6708,182.748 42,183.5C 41.0266,185.392 40.3599,187.392 40,189.5C 37.7317,185.913 38.565,183.246 42.5,181.5 Z"/></g>
<g><path style="opacity:1" fill="#626364" d="M 42.5,181.5 C 44.9358,180.428 47.1025,181.095 49,183.5C 49.7737,185.403 49.4404,187.07 48,188.5C 49.2028,185.247 48.0361,183.247 44.5,182.5C 44.1583,181.662 43.4916,181.328 42.5,181.5 Z"/></g>
<g><path style="opacity:1" fill="#818285" d="M 186.5,187.5 C 186.167,186.833 185.833,186.167 185.5,185.5C 186.497,185.53 187.164,185.03 187.5,184C 186.496,182.202 185.996,180.368 186,178.5C 187.419,180.336 188.586,182.336 189.5,184.5C 188.812,185.855 187.812,186.855 186.5,187.5 Z"/></g>
<g><path style="opacity:1" fill="#1b1d1f" d="M 185.5,185.5 C 185.833,186.167 186.167,186.833 186.5,187.5C 182.913,187.331 179.579,185.831 176.5,183C 179.606,183.206 182.606,184.039 185.5,185.5 Z"/></g>
<g><path style="opacity:1" fill="#505256" d="M 179.5,189.5 C 181.368,190.786 181.534,192.119 180,193.5C 179.51,192.207 179.343,190.873 179.5,189.5 Z"/></g>
<g><path style="opacity:1" fill="#8b8989" d="M 53.5,192.5 C 53.1667,193.167 52.8333,193.833 52.5,194.5C 49.9619,193.743 47.6286,193.743 45.5,194.5C 47.5,193.167 49.5,191.833 51.5,190.5C 52.6956,190.846 52.6956,191.346 51.5,192C 52.0944,192.464 52.7611,192.631 53.5,192.5 Z"/></g>
<g><path style="opacity:1" fill="#1b1b1c" d="M 170.5,186.5 C 172.908,189.093 175.242,191.927 177.5,195C 176.833,195.667 176.167,195.667 175.5,195C 173.607,192.697 171.607,190.53 169.5,188.5C 169.863,187.817 170.196,187.15 170.5,186.5 Z"/></g>
<g><path style="opacity:1" fill="#1c1c1d" d="M 52.5,194.5 C 52.8333,193.833 53.1667,193.167 53.5,192.5C 53.281,191.325 53.6143,190.325 54.5,189.5C 55.1424,192.957 54.4757,196.29 52.5,199.5C 51.6919,199.192 51.0253,198.692 50.5,198C 51.9733,197.29 52.6399,196.124 52.5,194.5 Z"/></g>
<g><path style="opacity:1" fill="#1f1f20" d="M 160.5,194.5 C 163.615,196.231 166.615,198.231 169.5,200.5C 168.758,201.287 167.925,201.953 167,202.5C 164.946,199.626 162.779,196.959 160.5,194.5 Z"/></g>
<g><path style="opacity:1" fill="#171819" d="M 60.5,193.5 C 61.3764,193.369 62.0431,193.702 62.5,194.5C 56.0307,205.03 55.3641,204.696 60.5,193.5 Z"/></g>
<g><path style="opacity:1" fill="#6a6c70" d="M 150.5,204.5 C 149.833,203.5 149.167,202.5 148.5,201.5C 150.254,198.366 152.754,197.366 156,198.5C 156.667,199.167 156.667,199.833 156,200.5C 151.848,198.508 150.015,199.841 150.5,204.5 Z"/></g>
<g><path style="opacity:1" fill="#1a1c1f" d="M 66.5,196.5 C 69.8618,201.557 68.5284,204.391 62.5,205C 65.8408,203.15 67.1742,200.317 66.5,196.5 Z"/></g>
<g><path style="opacity:1" fill="#151617" d="M 148.5,201.5 C 149.167,202.5 149.833,203.5 150.5,204.5C 151.736,206.828 153.736,207.994 156.5,208C 150.669,209.666 148.002,207.499 148.5,201.5 Z"/></g>
<g><path style="opacity:1" fill="#75777b" d="M 160.5,199.5 C 162.379,199.393 162.712,199.893 161.5,201C 163.285,202.593 163.452,204.093 162,205.5C 161.187,203.564 160.687,201.564 160.5,199.5 Z"/></g>
<g><path style="opacity:1" fill="#343537" d="M 71.5,209.5 C 70.0783,209.291 68.745,208.791 67.5,208C 69.1101,205.689 70.4435,203.189 71.5,200.5C 73.5497,199.337 75.5497,199.504 77.5,201C 78.4506,201.718 78.6172,202.551 78,203.5C 76.54,201.578 74.8733,200.911 73,201.5C 72.4427,203.615 71.6094,205.615 70.5,207.5C 70.8627,208.183 71.1961,208.85 71.5,209.5 Z"/></g>
<g><path style="opacity:1" fill="#090c11" d="M 89.5,205.5 C 90.2389,205.369 90.9056,205.536 91.5,206C 90.8702,209.129 90.2036,212.296 89.5,215.5C 88.6143,214.675 88.281,213.675 88.5,212.5C 89.4682,210.393 89.8016,208.059 89.5,205.5 Z"/></g>
<g><path style="opacity:1" fill="#18191a" d="M 141.5,203.5 C 142.386,202.224 143.386,202.224 144.5,203.5C 146.279,206.115 146.945,208.782 146.5,211.5C 145.193,208.531 143.527,205.865 141.5,203.5 Z"/></g>
<g><path style="opacity:1" fill="#141518" d="M 82.5,203.5 C 84.1537,205.56 85.1537,208.06 85.5,211C 84.8742,211.75 84.3742,212.584 84,213.5C 83.7096,211.08 83.2096,208.746 82.5,206.5C 82.5,205.5 82.5,204.5 82.5,203.5 Z"/></g>
<g><path style="opacity:1" fill="#1b1d1f" d="M 95.5,206.5 C 96.4972,206.47 97.1639,206.97 97.5,208C 96.6521,210.77 96.3187,213.603 96.5,216.5C 95.448,216.649 94.448,216.483 93.5,216C 94.432,212.915 95.0986,209.748 95.5,206.5 Z"/></g>
<g><path style="opacity:1" fill="#848384" d="M 82.5,203.5 C 82.5,204.5 82.5,205.5 82.5,206.5C 81.5176,208.406 80.5176,210.406 79.5,212.5C 79.1667,212.167 78.8333,211.833 78.5,211.5C 80.3752,208.76 81.0418,205.927 80.5,203C 81.4368,202.308 82.1034,202.475 82.5,203.5 Z"/></g>
<g><path style="opacity:1" fill="#7d7f83" d="M 116.5,207.5 C 118.017,206.265 119.684,206.265 121.5,207.5C 122.833,208.167 122.833,208.833 121.5,209.5C 120.264,208.754 118.93,208.421 117.5,208.5C 117.5,207.833 117.167,207.5 116.5,207.5 Z"/></g>
<g><path style="opacity:1" fill="#1c1d1e" d="M 130.5,205.5 C 134.499,206.928 137.999,209.261 141,212.5C 141.667,213.167 141.667,213.833 141,214.5C 137.257,211.576 133.757,208.576 130.5,205.5 Z"/></g>
<g><path style="opacity:1" fill="#767574" d="M 89.5,205.5 C 89.8016,208.059 89.4682,210.393 88.5,212.5C 87.5388,209.672 87.7054,207.005 89,204.5C 89.3988,204.728 89.5654,205.062 89.5,205.5 Z"/></g>
<g><path style="opacity:1" fill="#2a2b2d" d="M 116.5,207.5 C 117.167,207.5 117.5,207.833 117.5,208.5C 116.227,209.077 116.227,209.743 117.5,210.5C 121.85,210.886 123.517,213.219 122.5,217.5C 120.076,217.808 117.743,217.474 115.5,216.5C 117.312,216.574 119.312,216.241 121.5,215.5C 119.78,214.08 117.946,212.747 116,211.5C 115.235,209.934 115.402,208.601 116.5,207.5 Z"/></g>
<g><path style="opacity:1" fill="#4d4e4e" d="M 71.5,209.5 C 73.1992,209.34 74.8659,209.506 76.5,210C 74.685,211.77 73.0183,211.603 71.5,209.5 Z"/></g>
<g><path style="opacity:1" fill="#1c1e21" d="M 124.5,206.5 C 125.5,206.5 126.5,206.5 127.5,206.5C 128.422,219.692 127.422,219.692 124.5,206.5 Z"/></g>
<g><path style="opacity:1" fill="#161718" d="M 105.5,213.5 C 105.737,212.209 105.404,211.209 104.5,210.5C 104.351,209.448 104.517,208.448 105,207.5C 106.238,210.259 107.404,213.093 108.5,216C 108.167,216.5 107.833,217 107.5,217.5C 106.638,216.234 105.971,214.901 105.5,213.5 Z"/></g>
<g><path style="opacity:1" fill="#7c7976" d="M 104.5,210.5 C 105.404,211.209 105.737,212.209 105.5,213.5C 102.671,213.325 101.004,214.658 100.5,217.5C 100.167,217.167 99.8333,216.833 99.5,216.5C 100.62,213.865 102.287,211.865 104.5,210.5 Z"/></g>
</svg>
