<?xml version="1.0" encoding="UTF-8"?>
<!DOCTYPE svg PUBLIC "-//W3C//DTD SVG 1.1//EN" "http://www.w3.org/Graphics/SVG/1.1/DTD/svg11.dtd">
<svg xmlns="http://www.w3.org/2000/svg" version="1.1" width="512px" height="512px" style="shape-rendering:geometricPrecision; text-rendering:geometricPrecision; image-rendering:optimizeQuality; fill-rule:evenodd; clip-rule:evenodd" xmlns:xlink="http://www.w3.org/1999/xlink">
<g><path style="opacity:0.985" fill="#fefefe" d="M -0.5,-0.5 C 170.167,-0.5 340.833,-0.5 511.5,-0.5C 511.5,170.167 511.5,340.833 511.5,511.5C 340.833,511.5 170.167,511.5 -0.5,511.5C -0.5,340.833 -0.5,170.167 -0.5,-0.5 Z"/></g>
<g><path style="opacity:1" fill="#00118b" d="M 480.5,33.5 C 480.5,33.8333 480.5,34.1667 480.5,34.5C 331.833,34.5 183.167,34.5 34.5,34.5C 34.5,182.833 34.5,331.167 34.5,479.5C 183.167,479.5 331.833,479.5 480.5,479.5C 331.668,480.5 182.668,480.833 33.5,480.5C 33.5,331.5 33.5,182.5 33.5,33.5C 182.5,33.5 331.5,33.5 480.5,33.5 Z"/></g>
<g><path style="opacity:1" fill="#24298d" d="M 480.5,34.5 C 480.5,182.833 480.5,331.167 480.5,479.5C 331.833,479.5 183.167,479.5 34.5,479.5C 34.5,331.167 34.5,182.833 34.5,34.5C 183.167,34.5 331.833,34.5 480.5,34.5 Z"/></g>
<g><path style="opacity:1" fill="#d3d3e0" d="M 475.5,39.5 C 330.167,39.5 184.833,39.5 39.5,39.5C 39.5,184.833 39.5,330.167 39.5,475.5C 38.5004,330.001 38.1671,184.334 38.5,38.5C 184.334,38.1671 330.001,38.5004 475.5,39.5 Z"/></g>
<g><path style="opacity:1" fill="#f9f9fb" d="M 475.5,39.5 C 475.5,184.833 475.5,330.167 475.5,475.5C 330.167,475.5 184.833,475.5 39.5,475.5C 39.5,330.167 39.5,184.833 39.5,39.5C 184.833,39.5 330.167,39.5 475.5,39.5 Z"/></g>
<g><path style="opacity:1" fill="#afb0d0" d="M 172.5,61.5 C 172.5,70.8333 172.5,80.1667 172.5,89.5C 174.5,89.5 176.5,89.5 178.5,89.5C 178.183,85.2984 178.517,81.2984 179.5,77.5C 179.5,81.8333 179.5,86.1667 179.5,90.5C 176.833,90.5 174.167,90.5 171.5,90.5C 171.173,80.6522 171.506,70.9856 172.5,61.5 Z"/></g>
<g><path style="opacity:1" fill="#283998" d="M 172.5,61.5 C 174.5,61.5 176.5,61.5 178.5,61.5C 178.5,65.1667 178.5,68.8333 178.5,72.5C 182.833,72.5 187.167,72.5 191.5,72.5C 191.5,68.8333 191.5,65.1667 191.5,61.5C 193.5,61.5 195.5,61.5 197.5,61.5C 197.5,70.8333 197.5,80.1667 197.5,89.5C 195.5,89.5 193.5,89.5 191.5,89.5C 191.5,85.5 191.5,81.5 191.5,77.5C 187.5,77.5 183.5,77.5 179.5,77.5C 178.517,81.2984 178.183,85.2984 178.5,89.5C 176.5,89.5 174.5,89.5 172.5,89.5C 172.5,80.1667 172.5,70.8333 172.5,61.5 Z"/></g>
<g><path style="opacity:1" fill="#2c3b99" d="M 213.5,61.5 C 216.119,61.2317 218.619,61.565 221,62.5C 225,71.3374 229.167,80.1707 233.5,89C 228.96,90.3589 225.96,88.8589 224.5,84.5C 219.88,83.5067 215.214,83.1734 210.5,83.5C 210.496,88.9885 207.829,90.8219 202.5,89C 206.543,80.0097 210.209,70.843 213.5,61.5 Z"/></g>
<g><path style="opacity:1" fill="#2b3998" d="M 232.5,62.5 C 234.607,61.5318 236.941,61.1984 239.5,61.5C 240.557,67.5652 241.89,73.5652 243.5,79.5C 246.101,73.6957 248.101,67.6957 249.5,61.5C 252.167,61.5 254.833,61.5 257.5,61.5C 259.023,67.572 260.857,73.572 263,79.5C 264.578,73.5834 266.078,67.5834 267.5,61.5C 269.857,61.3367 272.19,61.5034 274.5,62C 271.748,70.7588 269.082,79.5921 266.5,88.5C 264.257,89.4742 261.924,89.8076 259.5,89.5C 257.816,82.7673 255.816,76.1006 253.5,69.5C 252.914,69.7093 252.414,70.0426 252,70.5C 251.075,76.7758 249.241,82.7758 246.5,88.5C 244.257,89.4742 241.924,89.8076 239.5,89.5C 237.714,80.1786 235.38,71.1786 232.5,62.5 Z"/></g>
<g><path style="opacity:1" fill="#2c3b99" d="M 284.5,61.5 C 287.119,61.2317 289.619,61.565 292,62.5C 296.435,70.9165 300.268,79.5831 303.5,88.5C 298.293,90.8582 295.626,89.1915 295.5,83.5C 290.833,83.5 286.167,83.5 281.5,83.5C 281.056,89.1527 278.056,90.9861 272.5,89C 277.175,80.1372 281.175,70.9706 284.5,61.5 Z"/></g>
<g><path style="opacity:1" fill="#000690" d="M 308.5,61.5 C 310.5,61.5 312.5,61.5 314.5,61.5C 314.5,70.8333 314.5,80.1667 314.5,89.5C 312.5,89.5 310.5,89.5 308.5,89.5C 308.5,80.1667 308.5,70.8333 308.5,61.5 Z"/></g>
<g><path style="opacity:1" fill="#2b3e99" d="M 309.5,62.5 C 310.833,62.5 312.167,62.5 313.5,62.5C 313.5,71.1667 313.5,79.8333 313.5,88.5C 312.167,88.5 310.833,88.5 309.5,88.5C 309.5,79.8333 309.5,71.1667 309.5,62.5 Z"/></g>
<g><path style="opacity:1" fill="#32429b" d="M 335.5,61.5 C 336.568,62.4345 337.901,62.7678 339.5,62.5C 339.5,71.1667 339.5,79.8333 339.5,88.5C 337.901,88.2322 336.568,88.5655 335.5,89.5C 334.167,80.1667 334.167,70.8333 335.5,61.5 Z"/></g>
<g><path style="opacity:1" fill="#000690" d="M 335.5,61.5 C 337.167,61.5 338.833,61.5 340.5,61.5C 340.5,70.8333 340.5,80.1667 340.5,89.5C 338.833,89.5 337.167,89.5 335.5,89.5C 336.568,88.5655 337.901,88.2322 339.5,88.5C 339.5,79.8333 339.5,71.1667 339.5,62.5C 337.901,62.7678 336.568,62.4345 335.5,61.5 Z"/></g>
<g><path style="opacity:1" fill="#283798" d="M 325.5,61.5 C 326.376,61.3691 327.043,61.7025 327.5,62.5C 326.5,63.8333 325.5,65.1667 324.5,66.5C 325.325,67.3857 326.325,67.719 327.5,67.5C 327.5,69.1667 327.5,70.8333 327.5,72.5C 325.5,72.5 323.5,72.5 321.5,72.5C 320.656,67.8619 321.989,64.1953 325.5,61.5 Z"/></g>
<g><path style="opacity:1" fill="#e8e8f1" d="M 216.5,68.5 C 219.402,71.0936 221.402,74.427 222.5,78.5C 219.572,79.4841 216.572,79.8174 213.5,79.5C 214.301,75.7653 215.301,72.0986 216.5,68.5 Z"/></g>
<g><path style="opacity:1" fill="#e7e8f0" d="M 287.5,68.5 C 288.497,68.4701 289.164,68.9701 289.5,70C 290.662,73.1469 291.662,76.3136 292.5,79.5C 289.428,79.8174 286.428,79.4841 283.5,78.5C 285.406,75.36 286.74,72.0266 287.5,68.5 Z"/></g>
<g><path style="opacity:1" fill="#040606" d="M 413.5,119.5 C 309.5,119.5 205.5,119.5 101.5,119.5C 101.5,113.5 101.5,107.5 101.5,101.5C 205.5,101.5 309.5,101.5 413.5,101.5C 413.5,107.5 413.5,113.5 413.5,119.5 Z"/></g>
<g><path style="opacity:1" fill="#273898" d="M 60.5,106.5 C 62.1667,106.5 63.8333,106.5 65.5,106.5C 65.5,109.167 65.5,111.833 65.5,114.5C 73.1667,114.5 80.8333,114.5 88.5,114.5C 88.5,116.167 88.5,117.833 88.5,119.5C 80.8333,119.5 73.1667,119.5 65.5,119.5C 65.5,122.5 65.5,125.5 65.5,128.5C 63.8333,128.5 62.1667,128.5 60.5,128.5C 60.5,121.167 60.5,113.833 60.5,106.5 Z"/></g>
<g><path style="opacity:1" fill="#2c3899" d="M 433.5,113.5 C 439.602,112.733 445.269,113.899 450.5,117C 454.423,123.03 454.423,129.03 450.5,135C 448.783,136.559 446.783,137.392 444.5,137.5C 443.971,134.396 444.971,132.063 447.5,130.5C 449.981,122.627 446.981,118.627 438.5,118.5C 431.257,119.05 428.257,122.716 429.5,129.5C 431.646,130.556 433.312,132.056 434.5,134C 434,135.5 433.5,137 433,138.5C 422.873,133.115 421.207,125.782 428,116.5C 430.058,115.771 431.891,114.771 433.5,113.5 Z"/></g>
<g><path style="opacity:1" fill="#4d4b4b" d="M 101.5,119.5 C 205.5,119.5 309.5,119.5 413.5,119.5C 413.5,120.167 413.5,120.833 413.5,121.5C 309.5,121.5 205.5,121.5 101.5,121.5C 101.5,120.833 101.5,120.167 101.5,119.5 Z"/></g>
<g><path style="opacity:1" fill="#050507" d="M 101.5,121.5 C 205.5,121.5 309.5,121.5 413.5,121.5C 413.5,126.833 413.5,132.167 413.5,137.5C 309.5,137.5 205.5,137.5 101.5,137.5C 101.5,132.167 101.5,126.833 101.5,121.5 Z"/></g>
<g><path style="opacity:1" fill="#303e9a" d="M 59.5,132.5 C 69.1667,132.5 78.8333,132.5 88.5,132.5C 88.9452,135.365 88.2785,137.865 86.5,140C 81.1197,143.073 75.7864,146.24 70.5,149.5C 76.4632,150.496 82.4632,150.829 88.5,150.5C 88.5,152.167 88.5,153.833 88.5,155.5C 79.1667,155.5 69.8333,155.5 60.5,155.5C 60.2011,153.396 60.5344,151.396 61.5,149.5C 67.1667,146 72.8333,142.5 78.5,139C 72.1754,138.5 65.8421,138.334 59.5,138.5C 59.5,136.5 59.5,134.5 59.5,132.5 Z"/></g>
<g><path style="opacity:1" fill="#0a0a0e" d="M 101.5,138.5 C 205.5,138.5 309.5,138.5 413.5,138.5C 413.5,143.5 413.5,148.5 413.5,153.5C 309.5,153.5 205.5,153.5 101.5,153.5C 101.5,148.5 101.5,143.5 101.5,138.5 Z"/></g>
<g><path style="opacity:1" fill="#2d3b99" d="M 434.5,142.5 C 450.072,141.562 455.905,148.562 452,163.5C 450.378,165.906 448.211,167.739 445.5,169C 433.358,172.773 426.025,168.606 423.5,156.5C 424.254,149.426 427.92,144.759 434.5,142.5 Z"/></g>
<g><path style="opacity:1" fill="#f9f9fb" d="M 435.5,148.5 C 447.223,146.838 450.89,151.338 446.5,162C 441.04,165.385 435.706,165.218 430.5,161.5C 426.891,155.06 428.558,150.727 435.5,148.5 Z"/></g>
<g><path style="opacity:1" fill="#0f0e14" d="M 413.5,169.5 C 331.5,169.5 249.5,169.5 167.5,169.5C 169.814,163.724 168.314,159.39 163,156.5C 161.559,157.26 160.059,157.926 158.5,158.5C 156.902,157.515 155.235,157.349 153.5,158C 151.999,159.252 150.332,160.252 148.5,161C 147.251,162.98 145.918,164.813 144.5,166.5C 143.596,167.209 143.263,168.209 143.5,169.5C 129.5,169.5 115.5,169.5 101.5,169.5C 101.5,164.5 101.5,159.5 101.5,154.5C 205.5,154.5 309.5,154.5 413.5,154.5C 413.5,159.5 413.5,164.5 413.5,169.5 Z"/></g>
<g><path style="opacity:1" fill="#e1c420" d="M 167.5,169.5 C 166.167,170.167 166.167,170.833 167.5,171.5C 167.5,171.833 167.5,172.167 167.5,172.5C 166.205,175.629 164.038,177.962 161,179.5C 157.553,178.511 154.053,177.844 150.5,177.5C 150.649,176.448 150.483,175.448 150,174.5C 147.982,173.777 146.148,172.777 144.5,171.5C 144.5,169.833 144.5,168.167 144.5,166.5C 145.918,164.813 147.251,162.98 148.5,161C 150.332,160.252 151.999,159.252 153.5,158C 155.235,157.349 156.902,157.515 158.5,158.5C 160.059,157.926 161.559,157.26 163,156.5C 168.314,159.39 169.814,163.724 167.5,169.5 Z"/></g>
<g><path style="opacity:1" fill="#2e3c99" d="M 85.5,160.5 C 86.5,160.5 87.5,160.5 88.5,160.5C 89.0113,164.388 87.3447,166.721 83.5,167.5C 82.1667,171.833 82.1667,176.167 83.5,180.5C 88.1872,180.977 89.5205,183.311 87.5,187.5C 78.8333,184.167 70.1667,180.833 61.5,177.5C 60.1667,175.167 60.1667,172.833 61.5,170.5C 69.8186,167.666 77.8186,164.333 85.5,160.5 Z"/></g>
<g><path style="opacity:1" fill="#e8e8f1" d="M 75.5,169.5 C 77.369,171.635 78.0356,174.302 77.5,177.5C 75.8008,177.66 74.1341,177.494 72.5,177C 70.779,175.473 68.779,174.473 66.5,174C 69.5919,172.454 72.5919,170.954 75.5,169.5 Z"/></g>
<g><path style="opacity:1" fill="#a9a7a8" d="M 144.5,166.5 C 144.5,168.167 144.5,169.833 144.5,171.5C 130.167,171.5 115.833,171.5 101.5,171.5C 101.5,170.833 101.5,170.167 101.5,169.5C 115.5,169.5 129.5,169.5 143.5,169.5C 143.263,168.209 143.596,167.209 144.5,166.5 Z"/></g>
<g><path style="opacity:1" fill="#a9a8a9" d="M 167.5,169.5 C 249.5,169.5 331.5,169.5 413.5,169.5C 413.5,170.167 413.5,170.833 413.5,171.5C 331.5,171.5 249.5,171.5 167.5,171.5C 166.167,170.833 166.167,170.167 167.5,169.5 Z"/></g>
<g><path style="opacity:1" fill="#000000" d="M 167.5,172.5 C 167.5,172.167 167.5,171.833 167.5,171.5C 249.5,171.5 331.5,171.5 413.5,171.5C 413.5,176.5 413.5,181.5 413.5,186.5C 316.833,186.5 220.167,186.5 123.5,186.5C 123.263,185.209 123.596,184.209 124.5,183.5C 220.161,185.498 316.161,186.164 412.5,185.5C 412.5,181.167 412.5,176.833 412.5,172.5C 330.833,172.5 249.167,172.5 167.5,172.5 Z"/></g>
<g><path style="opacity:1" fill="#cfb525" d="M 124.5,183.5 C 123.596,184.209 123.263,185.209 123.5,186.5C 122.833,186.167 122.167,185.833 121.5,185.5C 121.338,183.473 121.505,181.473 122,179.5C 124.018,177.65 125.851,175.65 127.5,173.5C 128.723,172.386 130.056,172.219 131.5,173C 129.722,175.135 129.055,177.635 129.5,180.5C 127.067,180.273 125.401,181.273 124.5,183.5 Z"/></g>
<g><path style="opacity:1" fill="#010d91" d="M 452.5,175.5 C 443.682,176.493 434.682,176.827 425.5,176.5C 425.5,177.5 425.5,178.5 425.5,179.5C 431.358,179.178 437.025,179.511 442.5,180.5C 436.5,180.5 430.5,180.5 424.5,180.5C 424.5,178.833 424.5,177.167 424.5,175.5C 433.833,175.5 443.167,175.5 452.5,175.5 Z"/></g>
<g><path style="opacity:1" fill="#2d3e99" d="M 452.5,175.5 C 453.793,177.364 453.793,179.364 452.5,181.5C 446.641,184.593 440.975,187.926 435.5,191.5C 434.957,191.56 434.624,191.893 434.5,192.5C 440.798,193.496 447.132,193.83 453.5,193.5C 453.784,195.415 453.451,197.081 452.5,198.5C 443.682,197.507 434.682,197.173 425.5,197.5C 425.784,195.585 425.451,193.919 424.5,192.5C 431.196,189.489 437.196,185.489 442.5,180.5C 437.025,179.511 431.358,179.178 425.5,179.5C 425.5,178.5 425.5,177.5 425.5,176.5C 434.682,176.827 443.682,176.493 452.5,175.5 Z"/></g>
<g><path style="opacity:1" fill="#151620" d="M 101.5,171.5 C 115.833,171.5 130.167,171.5 144.5,171.5C 146.148,172.777 147.982,173.777 150,174.5C 150.483,175.448 150.649,176.448 150.5,177.5C 154.053,177.844 157.553,178.511 161,179.5C 164.038,177.962 166.205,175.629 167.5,172.5C 249.167,172.5 330.833,172.5 412.5,172.5C 412.5,176.833 412.5,181.167 412.5,185.5C 316.161,186.164 220.161,185.498 124.5,183.5C 125.401,181.273 127.067,180.273 129.5,180.5C 129.055,177.635 129.722,175.135 131.5,173C 130.056,172.219 128.723,172.386 127.5,173.5C 125.851,175.65 124.018,177.65 122,179.5C 121.505,181.473 121.338,183.473 121.5,185.5C 115.021,186.491 108.354,186.824 101.5,186.5C 101.5,181.5 101.5,176.5 101.5,171.5 Z"/></g>
<g><path style="opacity:1" fill="#9b989d" d="M 121.5,185.5 C 122.167,185.833 122.833,186.167 123.5,186.5C 220.167,186.5 316.833,186.5 413.5,186.5C 413.5,187.167 413.5,187.833 413.5,188.5C 309.5,188.5 205.5,188.5 101.5,188.5C 101.5,187.833 101.5,187.167 101.5,186.5C 108.354,186.824 115.021,186.491 121.5,185.5 Z"/></g>
<g><path style="opacity:1" fill="#13131d" d="M 101.5,188.5 C 205.5,188.5 309.5,188.5 413.5,188.5C 413.5,193.167 413.5,197.833 413.5,202.5C 356.833,202.5 300.167,202.5 243.5,202.5C 243.5,201.833 243.5,201.167 243.5,200.5C 299.428,201.496 355.428,201.829 411.5,201.5C 411.5,197.833 411.5,194.167 411.5,190.5C 354.5,190.5 297.5,190.5 240.5,190.5C 240.5,192.167 240.5,193.833 240.5,195.5C 239.262,193.786 238.595,191.786 238.5,189.5C 235.812,189.166 233.479,189.832 231.5,191.5C 189.003,190.501 146.337,190.168 103.5,190.5C 103.5,194.167 103.5,197.833 103.5,201.5C 143.5,201.5 183.5,201.5 223.5,201.5C 223.5,201.833 223.5,202.167 223.5,202.5C 182.833,202.5 142.167,202.5 101.5,202.5C 101.5,197.833 101.5,193.167 101.5,188.5 Z"/></g>
<g><path style="opacity:1" fill="#dabe24" d="M 240.5,195.5 C 241.047,197.485 242.047,199.151 243.5,200.5C 243.5,201.167 243.5,201.833 243.5,202.5C 242.167,202.833 242.167,203.167 243.5,203.5C 243.685,205.196 244.519,206.529 246,207.5C 246.422,205.574 247.589,204.574 249.5,204.5C 248.536,208.454 249.536,211.954 252.5,215C 251.944,216.011 251.278,216.844 250.5,217.5C 248.302,216.933 245.969,216.933 243.5,217.5C 242.524,216.185 241.524,214.852 240.5,213.5C 236.647,213.746 232.647,214.079 228.5,214.5C 227.283,210.62 225.617,206.954 223.5,203.5C 223.5,203.167 223.5,202.833 223.5,202.5C 223.5,202.167 223.5,201.833 223.5,201.5C 222.71,200.206 221.71,199.039 220.5,198C 223.167,197.667 225.833,197.333 228.5,197C 230.16,195.512 231.16,193.679 231.5,191.5C 233.479,189.832 235.812,189.166 238.5,189.5C 238.595,191.786 239.262,193.786 240.5,195.5 Z"/></g>
<g><path style="opacity:1" fill="#2f3b9a" d="M 87.5,189.5 C 88.6225,191.288 88.7891,193.288 88,195.5C 83.9659,198.022 80.2992,201.022 77,204.5C 76.51,205.793 76.3433,207.127 76.5,208.5C 80.5,208.5 84.5,208.5 88.5,208.5C 88.5,210.5 88.5,212.5 88.5,214.5C 79.1667,214.5 69.8333,214.5 60.5,214.5C 60.3338,208.158 60.5005,201.825 61,195.5C 64.9102,190.724 69.2436,190.391 74,194.5C 74.6667,195.833 75.3333,197.167 76,198.5C 79.183,194.462 83.0164,191.462 87.5,189.5 Z"/></g>
<g><path style="opacity:1" fill="#868bb7" d="M 435.5,191.5 C 441.5,192.167 447.5,192.833 453.5,193.5C 447.132,193.83 440.798,193.496 434.5,192.5C 434.624,191.893 434.957,191.56 435.5,191.5 Z"/></g>
<g><path style="opacity:1" fill="#1a1c2b" d="M 231.5,191.5 C 231.16,193.679 230.16,195.512 228.5,197C 225.833,197.333 223.167,197.667 220.5,198C 221.71,199.039 222.71,200.206 223.5,201.5C 183.5,201.5 143.5,201.5 103.5,201.5C 103.5,197.833 103.5,194.167 103.5,190.5C 146.337,190.168 189.003,190.501 231.5,191.5 Z"/></g>
<g><path style="opacity:1" fill="#1a1c2b" d="M 243.5,200.5 C 242.047,199.151 241.047,197.485 240.5,195.5C 240.5,193.833 240.5,192.167 240.5,190.5C 297.5,190.5 354.5,190.5 411.5,190.5C 411.5,194.167 411.5,197.833 411.5,201.5C 355.428,201.829 299.428,201.496 243.5,200.5 Z"/></g>
<g><path style="opacity:1" fill="#00008e" d="M 424.5,192.5 C 425.451,193.919 425.784,195.585 425.5,197.5C 434.682,197.173 443.682,197.507 452.5,198.5C 443.167,198.5 433.833,198.5 424.5,198.5C 424.5,196.5 424.5,194.5 424.5,192.5 Z"/></g>
<g><path style="opacity:1" fill="#fafafc" d="M 66.5,197.5 C 68.1439,197.286 69.6439,197.62 71,198.5C 71.4983,201.817 71.665,205.15 71.5,208.5C 69.1667,208.5 66.8333,208.5 64.5,208.5C 64.0097,204.513 64.6764,200.846 66.5,197.5 Z"/></g>
<g><path style="opacity:1" fill="#5b5b61" d="M 243.5,203.5 C 300.336,203.168 357.002,203.501 413.5,204.5C 358.833,204.5 304.167,204.5 249.5,204.5C 247.589,204.574 246.422,205.574 246,207.5C 244.519,206.529 243.685,205.196 243.5,203.5 Z"/></g>
<g><path style="opacity:1" fill="#2d3a99" d="M 431.5,203.5 C 434.244,204.072 435.077,205.738 434,208.5C 429.145,210.211 427.478,213.544 429,218.5C 430.46,221.21 432.46,221.876 435,220.5C 436.333,216.5 437.667,212.5 439,208.5C 442.416,204.144 446.416,203.478 451,206.5C 453.905,211.651 454.238,216.985 452,222.5C 450.005,224.747 447.505,225.747 444.5,225.5C 443.789,222.136 444.956,219.803 448,218.5C 448.497,215.854 448.664,213.187 448.5,210.5C 446.712,210.215 445.045,210.548 443.5,211.5C 442.323,216.198 440.657,220.698 438.5,225C 427.083,227.923 422.25,223.423 424,211.5C 425.38,207.625 427.88,204.958 431.5,203.5 Z"/></g>
<g><path style="opacity:1" fill="#202133" d="M 223.5,203.5 C 225.617,206.954 227.283,210.62 228.5,214.5C 232.647,214.079 236.647,213.746 240.5,213.5C 241.524,214.852 242.524,216.185 243.5,217.5C 196.167,217.5 148.833,217.5 101.5,217.5C 101.5,212.833 101.5,208.167 101.5,203.5C 142.167,203.5 182.833,203.5 223.5,203.5 Z"/></g>
<g><path style="opacity:1" fill="#1d1e31" d="M 249.5,204.5 C 304.167,204.5 358.833,204.5 413.5,204.5C 413.5,208.833 413.5,213.167 413.5,217.5C 359.167,217.5 304.833,217.5 250.5,217.5C 251.278,216.844 251.944,216.011 252.5,215C 249.536,211.954 248.536,208.454 249.5,204.5 Z"/></g>
<g><path style="opacity:1" fill="#dcdcdd" d="M 250.5,217.5 C 304.833,217.5 359.167,217.5 413.5,217.5C 413.5,217.833 413.5,218.167 413.5,218.5C 309.5,218.5 205.5,218.5 101.5,218.5C 101.5,218.167 101.5,217.833 101.5,217.5C 148.833,217.5 196.167,217.5 243.5,217.5C 245.969,216.933 248.302,216.933 250.5,217.5 Z"/></g>
<g><path style="opacity:1" fill="#717279" d="M 101.5,219.5 C 101.5,219.167 101.5,218.833 101.5,218.5C 205.5,218.5 309.5,218.5 413.5,218.5C 413.5,218.833 413.5,219.167 413.5,219.5C 371.663,219.168 329.997,219.501 288.5,220.5C 282.569,220.968 276.902,220.635 271.5,219.5C 214.833,219.5 158.167,219.5 101.5,219.5 Z"/></g>
<g><path style="opacity:1" fill="#d5ba29" d="M 271.5,219.5 C 276.902,220.635 282.569,220.968 288.5,220.5C 288.821,222.048 289.821,222.715 291.5,222.5C 293.934,222.648 296.601,222.814 299.5,223C 299.957,223.414 300.291,223.914 300.5,224.5C 298.562,228.107 295.562,230.107 291.5,230.5C 285.069,227.511 278.402,226.678 271.5,228C 270.833,227.667 270.167,227.333 269.5,227C 271.609,224.691 272.276,222.191 271.5,219.5 Z"/></g>
<g><path style="opacity:1" fill="#2b3a99" d="M 66.5,221.5 C 69.4752,224.618 68.9752,227.285 65,229.5C 63.5563,234.256 64.7229,238.089 68.5,241C 72.1667,241.667 75.8333,241.667 79.5,241C 84.7375,237.726 85.9042,233.226 83,227.5C 81.3005,226.594 79.4672,226.261 77.5,226.5C 77.5,228.5 77.5,230.5 77.5,232.5C 76.1667,232.5 74.8333,232.5 73.5,232.5C 73.5,228.833 73.5,225.167 73.5,221.5C 77.5138,221.334 81.5138,221.501 85.5,222C 89.2006,228.683 89.3673,235.516 86,242.5C 80.1929,247.24 73.6929,248.407 66.5,246C 59.0262,240.138 57.5262,232.971 62,224.5C 63.4087,223.219 64.9087,222.219 66.5,221.5 Z"/></g>
<g><path style="opacity:1" fill="#21223f" d="M 101.5,219.5 C 158.167,219.5 214.833,219.5 271.5,219.5C 272.276,222.191 271.609,224.691 269.5,227C 270.167,227.333 270.833,227.667 271.5,228C 278.402,226.678 285.069,227.511 291.5,230.5C 295.562,230.107 298.562,228.107 300.5,224.5C 300.291,223.914 299.957,223.414 299.5,223C 296.601,222.814 293.934,222.648 291.5,222.5C 291.082,221.778 290.416,221.278 289.5,221C 330.499,220.5 371.499,220.333 412.5,220.5C 412.5,224.167 412.5,227.833 412.5,231.5C 377.5,231.5 342.5,231.5 307.5,231.5C 305.708,231.366 304.042,231.699 302.5,232.5C 235.5,232.5 168.5,232.5 101.5,232.5C 101.5,228.167 101.5,223.833 101.5,219.5 Z"/></g>
<g><path style="opacity:1" fill="#0c1138" d="M 413.5,219.5 C 413.5,223.833 413.5,228.167 413.5,232.5C 378.5,232.5 343.5,232.5 308.5,232.5C 307.833,232.5 307.5,232.167 307.5,231.5C 342.5,231.5 377.5,231.5 412.5,231.5C 412.5,227.833 412.5,224.167 412.5,220.5C 371.499,220.333 330.499,220.5 289.5,221C 290.416,221.278 291.082,221.778 291.5,222.5C 289.821,222.715 288.821,222.048 288.5,220.5C 329.997,219.501 371.663,219.168 413.5,219.5 Z"/></g>
<g><path style="opacity:1" fill="#e0c324" d="M 307.5,231.5 C 307.5,232.167 307.833,232.5 308.5,232.5C 308.833,233.167 309.167,233.833 309.5,234.5C 309.749,236.936 310.749,238.936 312.5,240.5C 315.095,239.287 317.595,237.953 320,236.5C 323.104,236.743 325.27,238.243 326.5,241C 329.265,243.101 332.265,244.767 335.5,246C 336.337,247.011 336.67,248.178 336.5,249.5C 336.5,250.167 336.5,250.833 336.5,251.5C 335.262,254.06 333.262,255.893 330.5,257C 326.429,257.524 322.429,258.358 318.5,259.5C 314.007,258.823 312.34,256.156 313.5,251.5C 313.167,250.833 312.833,250.167 312.5,249.5C 312.061,246.531 310.561,245.864 308,247.5C 302.115,245.008 299.949,240.674 301.5,234.5C 302.338,234.158 302.672,233.492 302.5,232.5C 304.042,231.699 305.708,231.366 307.5,231.5 Z"/></g>
<g><path style="opacity:1" fill="#757285" d="M 308.5,232.5 C 343.5,232.5 378.5,232.5 413.5,232.5C 413.5,233.167 413.5,233.833 413.5,234.5C 378.833,234.5 344.167,234.5 309.5,234.5C 309.167,233.833 308.833,233.167 308.5,232.5 Z"/></g>
<g><path style="opacity:1" fill="#2a3898" d="M 433.5,231.5 C 447.658,229.497 454.158,235.497 453,249.5C 450.505,255.754 445.838,258.754 439,258.5C 428.24,258.007 423.24,252.34 424,241.5C 426.022,236.98 429.189,233.647 433.5,231.5 Z"/></g>
<g><path style="opacity:1" fill="#6a677b" d="M 101.5,232.5 C 168.5,232.5 235.5,232.5 302.5,232.5C 302.672,233.492 302.338,234.158 301.5,234.5C 234.833,234.5 168.167,234.5 101.5,234.5C 101.5,233.833 101.5,233.167 101.5,232.5 Z"/></g>
<g><path style="opacity:1" fill="#25274c" d="M 101.5,234.5 C 168.167,234.5 234.833,234.5 301.5,234.5C 299.949,240.674 302.115,245.008 308,247.5C 310.561,245.864 312.061,246.531 312.5,249.5C 305.5,249.5 298.5,249.5 291.5,249.5C 294.764,248.306 295.931,245.973 295,242.5C 292.833,241.667 291.333,240.167 290.5,238C 286.846,235.434 284.18,236.1 282.5,240C 285,242.585 286.333,245.751 286.5,249.5C 224.833,249.5 163.167,249.5 101.5,249.5C 101.5,244.5 101.5,239.5 101.5,234.5 Z"/></g>
<g><path style="opacity:1" fill="#27294d" d="M 309.5,234.5 C 344.167,234.5 378.833,234.5 413.5,234.5C 413.5,239.5 413.5,244.5 413.5,249.5C 387.833,249.5 362.167,249.5 336.5,249.5C 336.67,248.178 336.337,247.011 335.5,246C 332.265,244.767 329.265,243.101 326.5,241C 325.27,238.243 323.104,236.743 320,236.5C 317.595,237.953 315.095,239.287 312.5,240.5C 310.749,238.936 309.749,236.936 309.5,234.5 Z"/></g>
<g><path style="opacity:1" fill="#f5f5f9" d="M 436.5,236.5 C 447.306,236.445 450.639,241.279 446.5,251C 440.6,254.647 435.1,254.147 430,249.5C 427.369,242.762 429.536,238.428 436.5,236.5 Z"/></g>
<g><path style="opacity:1" fill="#d6bb2a" d="M 291.5,249.5 C 289.833,249.5 288.167,249.5 286.5,249.5C 286.333,245.751 285,242.585 282.5,240C 284.18,236.1 286.846,235.434 290.5,238C 291.333,240.167 292.833,241.667 295,242.5C 295.931,245.973 294.764,248.306 291.5,249.5 Z"/></g>
<g><path style="opacity:1" fill="#2a2c5e" d="M 313.5,251.5 C 312.34,256.156 314.007,258.823 318.5,259.5C 322.429,258.358 326.429,257.524 330.5,257C 333.262,255.893 335.262,254.06 336.5,251.5C 361.661,252.498 386.995,252.831 412.5,252.5C 412.5,256.5 412.5,260.5 412.5,264.5C 377.5,264.5 342.5,264.5 307.5,264.5C 308.341,262.621 308.675,260.621 308.5,258.5C 305.643,259.333 302.977,260.666 300.5,262.5C 300.863,263.183 301.196,263.85 301.5,264.5C 235.002,265.499 168.335,265.832 101.5,265.5C 101.5,260.833 101.5,256.167 101.5,251.5C 172.167,251.5 242.833,251.5 313.5,251.5 Z"/></g>
<g><path style="opacity:1" fill="#b2b2ca" d="M 481.5,33.5 C 481.167,33.5 480.833,33.5 480.5,33.5C 331.5,33.5 182.5,33.5 33.5,33.5C 33.5,182.5 33.5,331.5 33.5,480.5C 33.5,480.833 33.5,481.167 33.5,481.5C 32.5004,332.001 32.167,182.334 32.5,32.5C 182.334,32.167 332.001,32.5004 481.5,33.5 Z"/></g>
<g><path style="opacity:1" fill="#d2b734" d="M 307.5,264.5 C 305.833,264.5 304.167,264.5 302.5,264.5C 302.167,264.5 301.833,264.5 301.5,264.5C 301.196,263.85 300.863,263.183 300.5,262.5C 302.977,260.666 305.643,259.333 308.5,258.5C 308.675,260.621 308.341,262.621 307.5,264.5 Z"/></g>
<g><path style="opacity:1" fill="#121559" d="M 336.5,251.5 C 362.167,251.5 387.833,251.5 413.5,251.5C 413.5,256.167 413.5,260.833 413.5,265.5C 376.33,265.832 339.33,265.498 302.5,264.5C 304.167,264.5 305.833,264.5 307.5,264.5C 342.5,264.5 377.5,264.5 412.5,264.5C 412.5,260.5 412.5,256.5 412.5,252.5C 386.995,252.831 361.661,252.498 336.5,251.5 Z"/></g>
<g><path style="opacity:1" fill="#8986a3" d="M 301.5,264.5 C 301.833,264.5 302.167,264.5 302.5,264.5C 339.33,265.498 376.33,265.832 413.5,265.5C 309.5,266.833 205.5,266.833 101.5,265.5C 168.335,265.832 235.002,265.499 301.5,264.5 Z"/></g>
<g><path style="opacity:1" fill="#2a3a99" d="M 424.5,264.5 C 434.167,264.5 443.833,264.5 453.5,264.5C 454.055,271.704 453.222,278.704 451,285.5C 448.083,287.393 444.916,287.893 441.5,287C 439.393,285.736 438.393,283.903 438.5,281.5C 433.687,283.496 429.187,286.162 425,289.5C 424.333,287.5 424.333,285.5 425,283.5C 428.667,280.833 432.333,278.167 436,275.5C 436.495,273.527 436.662,271.527 436.5,269.5C 432.5,269.5 428.5,269.5 424.5,269.5C 424.5,267.833 424.5,266.167 424.5,264.5 Z"/></g>
<g><path style="opacity:1" fill="#e7e8f1" d="M 440.5,269.5 C 443.167,269.5 445.833,269.5 448.5,269.5C 448.665,273.182 448.499,276.848 448,280.5C 445.408,281.982 443.075,281.648 441,279.5C 440.502,276.183 440.335,272.85 440.5,269.5 Z"/></g>
<g><path style="opacity:1" fill="#2b2e71" d="M 349.5,281.5 C 346.313,279.249 343.313,279.249 340.5,281.5C 260.833,281.5 181.167,281.5 101.5,281.5C 101.5,276.833 101.5,272.167 101.5,267.5C 205.5,267.5 309.5,267.5 413.5,267.5C 413.5,272.167 413.5,276.833 413.5,281.5C 392.167,281.5 370.833,281.5 349.5,281.5 Z"/></g>
<g><path style="opacity:1" fill="#253497" d="M 70.5,289.5 C 71.4861,285.03 71.8195,280.363 71.5,275.5C 72.8333,275.5 74.1667,275.5 75.5,275.5C 75.5,280.167 75.5,284.833 75.5,289.5C 78.5,289.5 81.5,289.5 84.5,289.5C 84.5,284.167 84.5,278.833 84.5,273.5C 85.8333,273.5 87.1667,273.5 88.5,273.5C 88.5,280.5 88.5,287.5 88.5,294.5C 79.1667,294.5 69.8333,294.5 60.5,294.5C 60.5,287.5 60.5,280.5 60.5,273.5C 61.8333,273.5 63.1667,273.5 64.5,273.5C 64.5,278.833 64.5,284.167 64.5,289.5C 66.5,289.5 68.5,289.5 70.5,289.5 Z"/></g>
<g><path style="opacity:1" fill="#8f8fc2" d="M 75.5,275.5 C 74.1667,275.5 72.8333,275.5 71.5,275.5C 71.8195,280.363 71.4861,285.03 70.5,289.5C 70.5,284.5 70.5,279.5 70.5,274.5C 72.4147,274.216 74.0813,274.549 75.5,275.5 Z"/></g>
<g><path style="opacity:1" fill="#e3c623" d="M 349.5,281.5 C 349.427,283.027 350.094,284.027 351.5,284.5C 360.467,287.431 368.8,291.764 376.5,297.5C 377.167,298.833 378.167,299.833 379.5,300.5C 381.343,304.187 382.01,308.187 381.5,312.5C 383.398,311.904 385.065,311.904 386.5,312.5C 386.205,314.735 386.539,316.735 387.5,318.5C 390.177,321.169 393.177,323.502 396.5,325.5C 395.873,326.417 395.539,327.417 395.5,328.5C 394.5,328.833 393.833,329.5 393.5,330.5C 386.481,337.003 378.481,341.337 369.5,343.5C 368.29,343.932 367.29,344.599 366.5,345.5C 364.727,347.433 362.561,348.766 360,349.5C 358.872,351.345 358.372,353.345 358.5,355.5C 357.833,355.5 357.5,355.833 357.5,356.5C 356.596,357.209 356.263,358.209 356.5,359.5C 355.185,360.476 353.852,361.476 352.5,362.5C 351.274,360.722 349.607,359.722 347.5,359.5C 347.068,358.29 346.401,357.29 345.5,356.5C 344.167,356.167 342.833,355.833 341.5,355.5C 339.421,352.353 339.087,349.019 340.5,345.5C 340.5,344.833 340.5,344.167 340.5,343.5C 341.705,339.487 341.705,335.487 340.5,331.5C 340.768,329.901 340.434,328.568 339.5,327.5C 338.833,325.833 338.167,324.167 337.5,322.5C 337.567,321.041 337.234,319.708 336.5,318.5C 335.87,316.25 334.87,314.25 333.5,312.5C 334.373,308.069 336.706,304.736 340.5,302.5C 340.833,301.833 341.167,301.167 341.5,300.5C 342.167,299.5 342.833,298.5 343.5,297.5C 343.982,296.584 344.315,295.584 344.5,294.5C 342.38,291.143 341.047,287.476 340.5,283.5C 340.5,282.833 340.5,282.167 340.5,281.5C 343.313,279.249 346.313,279.249 349.5,281.5 Z"/></g>
<g><path style="opacity:1" fill="#c3c2d3" d="M 101.5,281.5 C 181.167,281.5 260.833,281.5 340.5,281.5C 340.5,282.167 340.5,282.833 340.5,283.5C 260.833,283.5 181.167,283.5 101.5,283.5C 101.5,282.833 101.5,282.167 101.5,281.5 Z"/></g>
<g><path style="opacity:1" fill="#2d3387" d="M 101.5,283.5 C 181.167,283.5 260.833,283.5 340.5,283.5C 341.047,287.476 342.38,291.143 344.5,294.5C 344.315,295.584 343.982,296.584 343.5,297.5C 262.833,297.5 182.167,297.5 101.5,297.5C 101.5,292.833 101.5,288.167 101.5,283.5 Z"/></g>
<g><path style="opacity:1" fill="#2d3386" d="M 351.5,284.5 C 371.993,283.503 392.66,283.169 413.5,283.5C 413.5,288.167 413.5,292.833 413.5,297.5C 401.167,297.5 388.833,297.5 376.5,297.5C 368.8,291.764 360.467,287.431 351.5,284.5 Z"/></g>
<g><path style="opacity:1" fill="#2e3c9a" d="M 448.5,291.5 C 450.167,291.5 451.833,291.5 453.5,291.5C 453.5,299.167 453.5,306.833 453.5,314.5C 451.833,314.5 450.167,314.5 448.5,314.5C 448.5,311.5 448.5,308.5 448.5,305.5C 440.5,305.5 432.5,305.5 424.5,305.5C 424.5,303.833 424.5,302.167 424.5,300.5C 432.5,300.5 440.5,300.5 448.5,300.5C 448.5,297.5 448.5,294.5 448.5,291.5 Z"/></g>
<g><path style="opacity:1" fill="#aaabcc" d="M 448.5,291.5 C 448.5,294.5 448.5,297.5 448.5,300.5C 440.5,300.5 432.5,300.5 424.5,300.5C 431.982,299.508 439.648,299.175 447.5,299.5C 447.194,296.615 447.527,293.948 448.5,291.5 Z"/></g>
<g><path style="opacity:1" fill="#16248e" d="M 101.5,301.5 C 181.332,300.501 261.332,300.167 341.5,300.5C 341.167,301.167 340.833,301.833 340.5,302.5C 260.904,301.503 181.237,301.17 101.5,301.5 Z"/></g>
<g><path style="opacity:1" fill="#2c3592" d="M 101.5,301.5 C 181.237,301.17 260.904,301.503 340.5,302.5C 336.706,304.736 334.373,308.069 333.5,312.5C 256.335,313.499 179.002,313.833 101.5,313.5C 101.5,309.5 101.5,305.5 101.5,301.5 Z"/></g>
<g><path style="opacity:1" fill="#2f3592" d="M 379.5,300.5 C 390.833,300.5 402.167,300.5 413.5,300.5C 413.5,304.833 413.5,309.167 413.5,313.5C 404.416,313.804 395.416,313.471 386.5,312.5C 385.065,311.904 383.398,311.904 381.5,312.5C 382.01,308.187 381.343,304.187 379.5,300.5 Z"/></g>
<g><path style="opacity:1" fill="#2c3a99" d="M 79.5,300.5 C 83.3559,301.517 86.1892,303.85 88,307.5C 89.3219,321.83 82.8219,327.33 68.5,324C 59.8187,320.458 57.3187,314.292 61,305.5C 62.1667,304.333 63.3333,303.167 64.5,302C 66.8453,301.456 68.1786,302.456 68.5,305C 63.1753,309.629 63.1753,314.295 68.5,319C 72.1667,319.667 75.8333,319.667 79.5,319C 84.3106,316.877 85.6439,313.377 83.5,308.5C 81.8333,307.333 80.1667,306.167 78.5,305C 79.3802,303.644 79.7135,302.144 79.5,300.5 Z"/></g>
<g><path style="opacity:1" fill="#bebcce" d="M 386.5,312.5 C 395.416,313.471 404.416,313.804 413.5,313.5C 413.5,314.167 413.5,314.833 413.5,315.5C 404.833,315.5 396.167,315.5 387.5,315.5C 387.5,316.5 387.5,317.5 387.5,318.5C 386.539,316.735 386.205,314.735 386.5,312.5 Z"/></g>
<g><path style="opacity:1" fill="#c6c5da" d="M 333.5,312.5 C 334.87,314.25 335.87,316.25 336.5,318.5C 334.952,318.179 334.285,317.179 334.5,315.5C 256.833,315.5 179.167,315.5 101.5,315.5C 101.5,314.833 101.5,314.167 101.5,313.5C 179.002,313.833 256.335,313.499 333.5,312.5 Z"/></g>
<g><path style="opacity:1" fill="#2f3a95" d="M 101.5,315.5 C 179.167,315.5 256.833,315.5 334.5,315.5C 334.285,317.179 334.952,318.179 336.5,318.5C 337.234,319.708 337.567,321.041 337.5,322.5C 337.5,324.167 337.5,325.833 337.5,327.5C 258.833,327.5 180.167,327.5 101.5,327.5C 101.5,323.5 101.5,319.5 101.5,315.5 Z"/></g>
<g><path style="opacity:1" fill="#363d97" d="M 413.5,315.5 C 413.5,319.833 413.5,324.167 413.5,328.5C 407.5,328.5 401.5,328.5 395.5,328.5C 395.539,327.417 395.873,326.417 396.5,325.5C 393.177,323.502 390.177,321.169 387.5,318.5C 387.5,317.5 387.5,316.5 387.5,315.5C 396.167,315.5 404.833,315.5 413.5,315.5 Z"/></g>
<g><path style="opacity:1" fill="#303e9b" d="M 424.5,318.5 C 434.167,318.5 443.833,318.5 453.5,318.5C 453.5,320.167 453.5,321.833 453.5,323.5C 443.833,323.5 434.167,323.5 424.5,323.5C 424.5,321.833 424.5,320.167 424.5,318.5 Z"/></g>
<g><path style="opacity:1" fill="#7a7dae" d="M 337.5,322.5 C 338.167,324.167 338.833,325.833 339.5,327.5C 260.167,328.833 180.833,328.833 101.5,327.5C 180.167,327.5 258.833,327.5 337.5,327.5C 337.5,325.833 337.5,324.167 337.5,322.5 Z"/></g>
<g><path style="opacity:1" fill="#2d3c99" d="M 86.5,328.5 C 87.6935,328.97 88.3601,329.97 88.5,331.5C 88.1667,332.5 87.8333,333.5 87.5,334.5C 83.0603,335.264 81.3936,337.93 82.5,342.5C 81.3936,347.07 83.0603,349.736 87.5,350.5C 88.8333,352.5 88.8333,354.5 87.5,356.5C 78.739,352.704 69.9057,349.038 61,345.5C 60.2419,343.231 60.4086,341.064 61.5,339C 70.1831,335.982 78.5164,332.482 86.5,328.5 Z"/></g>
<g><path style="opacity:1" fill="#2f3e9a" d="M 429.5,330.5 C 437.5,330.5 445.5,330.5 453.5,330.5C 453.5,332.5 453.5,334.5 453.5,336.5C 446.159,336.334 438.826,336.5 431.5,337C 427.92,339.926 427.587,343.26 430.5,347C 438.159,347.5 445.826,347.666 453.5,347.5C 453.5,349.5 453.5,351.5 453.5,353.5C 445.493,353.666 437.493,353.5 429.5,353C 421.537,345.544 421.537,338.044 429.5,330.5 Z"/></g>
<g><path style="opacity:1" fill="#35439c" d="M 340.5,331.5 C 341.705,335.487 341.705,339.487 340.5,343.5C 260.833,343.5 181.167,343.5 101.5,343.5C 101.5,339.167 101.5,334.833 101.5,330.5C 181.237,330.17 260.904,330.503 340.5,331.5 Z"/></g>
<g><path style="opacity:1" fill="#39469d" d="M 393.5,330.5 C 400.167,330.5 406.833,330.5 413.5,330.5C 413.5,334.833 413.5,339.167 413.5,343.5C 398.833,343.5 384.167,343.5 369.5,343.5C 378.481,341.337 386.481,337.003 393.5,330.5 Z"/></g>
<g><path style="opacity:1" fill="#eaeaf2" d="M 74.5,338.5 C 75.5,338.5 76.5,338.5 77.5,338.5C 77.5,341.167 77.5,343.833 77.5,346.5C 73.9296,345.754 70.5963,344.421 67.5,342.5C 70.0499,341.396 72.3832,340.063 74.5,338.5 Z"/></g>
<g><path style="opacity:1" fill="#3651a4" d="M 340.5,345.5 C 339.087,349.019 339.421,352.353 341.5,355.5C 261.668,356.499 181.668,356.833 101.5,356.5C 101.5,352.833 101.5,349.167 101.5,345.5C 181.167,345.5 260.833,345.5 340.5,345.5 Z"/></g>
<g><path style="opacity:1" fill="#3852a4" d="M 366.5,345.5 C 382.167,345.5 397.833,345.5 413.5,345.5C 413.5,349.167 413.5,352.833 413.5,356.5C 394.992,356.83 376.659,356.497 358.5,355.5C 358.372,353.345 358.872,351.345 360,349.5C 362.561,348.766 364.727,347.433 366.5,345.5 Z"/></g>
<g><path style="opacity:1" fill="#9da3d0" d="M 341.5,355.5 C 342.833,355.833 344.167,356.167 345.5,356.5C 264.167,357.833 182.833,357.833 101.5,356.5C 181.668,356.833 261.668,356.499 341.5,355.5 Z"/></g>
<g><path style="opacity:1" fill="#9ea3d0" d="M 358.5,355.5 C 376.659,356.497 394.992,356.83 413.5,356.5C 394.833,357.833 376.167,357.833 357.5,356.5C 357.5,355.833 357.833,355.5 358.5,355.5 Z"/></g>
<g><path style="opacity:1" fill="#2d3a99" d="M 64.5,356.5 C 69.9459,355.339 74.1126,357.006 77,361.5C 77.4986,365.152 77.6653,368.818 77.5,372.5C 81.1667,372.5 84.8333,372.5 88.5,372.5C 88.5,374.5 88.5,376.5 88.5,378.5C 79.1667,378.5 69.8333,378.5 60.5,378.5C 60.3338,372.491 60.5005,366.491 61,360.5C 62.3756,359.295 63.5423,357.962 64.5,356.5 Z"/></g>
<g><path style="opacity:1" fill="#2c3a99" d="M 424.5,360.5 C 434.167,360.5 443.833,360.5 453.5,360.5C 453.813,363.247 453.48,365.914 452.5,368.5C 446.172,369.413 440.172,371.246 434.5,374C 440.739,375.928 447.072,377.428 453.5,378.5C 453.5,381.5 453.5,384.5 453.5,387.5C 443.833,387.5 434.167,387.5 424.5,387.5C 424.5,385.833 424.5,384.167 424.5,382.5C 431.2,382.83 437.866,382.497 444.5,381.5C 437.838,379.834 431.171,378.167 424.5,376.5C 424.5,374.5 424.5,372.5 424.5,370.5C 431.526,368.994 438.526,367.327 445.5,365.5C 438.532,364.503 431.532,364.17 424.5,364.5C 424.5,363.167 424.5,361.833 424.5,360.5 Z"/></g>
<g><path style="opacity:1" fill="#f5f5f9" d="M 67.5,361.5 C 72.8219,363.131 74.8219,366.797 73.5,372.5C 70.5,372.5 67.5,372.5 64.5,372.5C 63.8075,368.247 64.8075,364.581 67.5,361.5 Z"/></g>
<g><path style="opacity:1" fill="#3d62ae" d="M 347.5,359.5 C 349.607,359.722 351.274,360.722 352.5,362.5C 353.852,361.476 355.185,360.476 356.5,359.5C 375.5,359.5 394.5,359.5 413.5,359.5C 413.5,363.167 413.5,366.833 413.5,370.5C 309.5,370.5 205.5,370.5 101.5,370.5C 101.5,366.833 101.5,363.167 101.5,359.5C 183.5,359.5 265.5,359.5 347.5,359.5 Z"/></g>
<g><path style="opacity:1" fill="#4f76ba" d="M 101.5,374.5 C 205.5,374.5 309.5,374.5 413.5,374.5C 413.5,378.167 413.5,381.833 413.5,385.5C 309.5,385.5 205.5,385.5 101.5,385.5C 101.5,381.833 101.5,378.167 101.5,374.5 Z"/></g>
<g><path style="opacity:1" fill="#2e3c9a" d="M 77.5,383.5 C 85.5318,383.703 89.1984,387.87 88.5,396C 89.33,402.176 86.6634,405.676 80.5,406.5C 80.1667,405.667 79.8333,404.833 79.5,404C 80.5402,401.869 82.0402,400.036 84,398.5C 84.6667,396.167 84.6667,393.833 84,391.5C 82.2672,389.398 80.2672,389.065 78,390.5C 76.7915,395.804 74.6249,400.637 71.5,405C 68.8333,405.667 66.1667,405.667 63.5,405C 62.2986,404.097 61.4652,402.931 61,401.5C 60.3333,397.167 60.3333,392.833 61,388.5C 66.2628,383.007 68.2628,383.673 67,390.5C 64.5854,393.032 63.9187,396.032 65,399.5C 66.3333,400.833 67.6667,400.833 69,399.5C 69.6904,392.853 72.5238,387.519 77.5,383.5 Z"/></g>
<g><path style="opacity:1" fill="#5185c5" d="M 101.5,388.5 C 205.5,388.5 309.5,388.5 413.5,388.5C 413.5,392.167 413.5,395.833 413.5,399.5C 309.5,399.5 205.5,399.5 101.5,399.5C 101.5,395.833 101.5,392.167 101.5,388.5 Z"/></g>
<g><path style="opacity:1" fill="#5a98d1" d="M 101.5,403.5 C 205.5,403.5 309.5,403.5 413.5,403.5C 413.5,406.5 413.5,409.5 413.5,412.5C 309.5,412.5 205.5,412.5 101.5,412.5C 101.5,409.5 101.5,406.5 101.5,403.5 Z"/></g>
<g><path style="opacity:1" fill="#32419b" d="M 213.5,426.5 C 215.167,426.5 216.833,426.5 218.5,426.5C 218.5,435.5 218.5,444.5 218.5,453.5C 216.585,453.216 214.919,453.549 213.5,454.5C 209.196,448.679 205.03,442.679 201,436.5C 200.501,442.491 200.334,448.491 200.5,454.5C 198.167,454.5 195.833,454.5 193.5,454.5C 193.5,444.833 193.5,435.167 193.5,425.5C 196.247,425.187 198.914,425.52 201.5,426.5C 204.585,433.009 208.418,439.009 213,444.5C 213.499,438.509 213.666,432.509 213.5,426.5 Z"/></g>
<g><path style="opacity:1" fill="#00008d" d="M 213.5,426.5 C 215.265,425.539 217.265,425.205 219.5,425.5C 219.5,435.167 219.5,444.833 219.5,454.5C 217.5,454.5 215.5,454.5 213.5,454.5C 214.919,453.549 216.585,453.216 218.5,453.5C 218.5,444.5 218.5,435.5 218.5,426.5C 216.833,426.5 215.167,426.5 213.5,426.5 Z"/></g>
<g><path style="opacity:1" fill="#2b3a99" d="M 235.5,425.5 C 238.119,425.232 240.619,425.565 243,426.5C 246.653,435.801 250.819,444.801 255.5,453.5C 249.713,455.658 246.713,453.658 246.5,447.5C 241.786,447.173 237.12,447.507 232.5,448.5C 231.907,450.382 231.24,452.215 230.5,454C 228.167,454.667 225.833,454.667 223.5,454C 227.791,444.569 231.791,435.069 235.5,425.5 Z"/></g>
<g><path style="opacity:1" fill="#2c3a99" d="M 268.5,424.5 C 272.769,424.734 276.769,425.901 280.5,428C 282.229,429.789 282.896,431.956 282.5,434.5C 278.807,435.056 276.14,433.722 274.5,430.5C 270.573,428.586 267.573,429.42 265.5,433C 265.645,433.772 265.978,434.439 266.5,435C 271.944,436.258 277.111,438.091 282,440.5C 284.867,446.53 283.367,451.03 277.5,454C 273.5,454.667 269.5,454.667 265.5,454C 261.145,452.813 258.811,449.98 258.5,445.5C 262.4,443.855 265.067,445.022 266.5,449C 267.729,449.781 269.062,450.281 270.5,450.5C 272.762,449.533 275.095,448.866 277.5,448.5C 277.822,446.278 277.155,444.444 275.5,443C 272.211,442.118 268.877,441.452 265.5,441C 260.055,438.89 258.222,435.056 260,429.5C 262.531,427.097 265.364,425.43 268.5,424.5 Z"/></g>
<g><path style="opacity:1" fill="#2a3998" d="M 299.5,425.5 C 302.365,425.055 304.865,425.722 307,427.5C 310.846,436.522 314.679,445.522 318.5,454.5C 316.167,454.5 313.833,454.5 311.5,454.5C 311.854,448.357 309.021,446.024 303,447.5C 300.833,447.667 298.667,447.833 296.5,448C 295.692,450.088 294.692,452.088 293.5,454C 291.421,454.808 289.421,454.641 287.5,453.5C 291.123,443.919 295.123,434.585 299.5,425.5 Z"/></g>
<g><path style="opacity:1" fill="#e3e4ee" d="M 238.5,433.5 C 241.661,435.92 243.327,439.253 243.5,443.5C 240.753,443.813 238.086,443.48 235.5,442.5C 236.35,439.427 237.35,436.427 238.5,433.5 Z"/></g>
<g><path style="opacity:1" fill="#e5e5ef" d="M 302.5,433.5 C 304.915,436.34 306.248,439.673 306.5,443.5C 303.833,443.5 301.167,443.5 298.5,443.5C 299.276,439.948 300.609,436.614 302.5,433.5 Z"/></g>
<g><path style="opacity:1" fill="#8584bb" d="M 480.5,33.5 C 480.833,33.5 481.167,33.5 481.5,33.5C 481.5,182.833 481.5,332.167 481.5,481.5C 332.167,481.5 182.833,481.5 33.5,481.5C 33.5,481.167 33.5,480.833 33.5,480.5C 182.668,480.833 331.668,480.5 480.5,479.5C 480.5,331.167 480.5,182.833 480.5,34.5C 480.5,34.1667 480.5,33.8333 480.5,33.5 Z"/></g>
</svg>
